G04 #@! TF.GenerationSoftware,KiCad,Pcbnew,(5.1.10)-1*
G04 #@! TF.CreationDate,2022-12-19T19:49:33-05:00*
G04 #@! TF.ProjectId,EdgeAdapter,45646765-4164-4617-9074-65722e6b6963,rev?*
G04 #@! TF.SameCoordinates,Original*
G04 #@! TF.FileFunction,Legend,Top*
G04 #@! TF.FilePolarity,Positive*
%FSLAX46Y46*%
G04 Gerber Fmt 4.6, Leading zero omitted, Abs format (unit mm)*
G04 Created by KiCad (PCBNEW (5.1.10)-1) date 2022-12-19 19:49:33*
%MOMM*%
%LPD*%
G01*
G04 APERTURE LIST*
%ADD10C,0.150000*%
%ADD11C,0.120000*%
G04 APERTURE END LIST*
D10*
X27921904Y-70608571D02*
X28255238Y-70608571D01*
X28398095Y-71132380D02*
X27921904Y-71132380D01*
X27921904Y-70132380D01*
X28398095Y-70132380D01*
X29255238Y-71132380D02*
X29255238Y-70132380D01*
X29255238Y-71084761D02*
X29160000Y-71132380D01*
X28969523Y-71132380D01*
X28874285Y-71084761D01*
X28826666Y-71037142D01*
X28779047Y-70941904D01*
X28779047Y-70656190D01*
X28826666Y-70560952D01*
X28874285Y-70513333D01*
X28969523Y-70465714D01*
X29160000Y-70465714D01*
X29255238Y-70513333D01*
X30160000Y-70465714D02*
X30160000Y-71275238D01*
X30112380Y-71370476D01*
X30064761Y-71418095D01*
X29969523Y-71465714D01*
X29826666Y-71465714D01*
X29731428Y-71418095D01*
X30160000Y-71084761D02*
X30064761Y-71132380D01*
X29874285Y-71132380D01*
X29779047Y-71084761D01*
X29731428Y-71037142D01*
X29683809Y-70941904D01*
X29683809Y-70656190D01*
X29731428Y-70560952D01*
X29779047Y-70513333D01*
X29874285Y-70465714D01*
X30064761Y-70465714D01*
X30160000Y-70513333D01*
X31017142Y-71084761D02*
X30921904Y-71132380D01*
X30731428Y-71132380D01*
X30636190Y-71084761D01*
X30588571Y-70989523D01*
X30588571Y-70608571D01*
X30636190Y-70513333D01*
X30731428Y-70465714D01*
X30921904Y-70465714D01*
X31017142Y-70513333D01*
X31064761Y-70608571D01*
X31064761Y-70703809D01*
X30588571Y-70799047D01*
X32207619Y-70846666D02*
X32683809Y-70846666D01*
X32112380Y-71132380D02*
X32445714Y-70132380D01*
X32779047Y-71132380D01*
X33540952Y-71132380D02*
X33540952Y-70132380D01*
X33540952Y-71084761D02*
X33445714Y-71132380D01*
X33255238Y-71132380D01*
X33160000Y-71084761D01*
X33112380Y-71037142D01*
X33064761Y-70941904D01*
X33064761Y-70656190D01*
X33112380Y-70560952D01*
X33160000Y-70513333D01*
X33255238Y-70465714D01*
X33445714Y-70465714D01*
X33540952Y-70513333D01*
X34445714Y-71132380D02*
X34445714Y-70608571D01*
X34398095Y-70513333D01*
X34302857Y-70465714D01*
X34112380Y-70465714D01*
X34017142Y-70513333D01*
X34445714Y-71084761D02*
X34350476Y-71132380D01*
X34112380Y-71132380D01*
X34017142Y-71084761D01*
X33969523Y-70989523D01*
X33969523Y-70894285D01*
X34017142Y-70799047D01*
X34112380Y-70751428D01*
X34350476Y-70751428D01*
X34445714Y-70703809D01*
X34921904Y-70465714D02*
X34921904Y-71465714D01*
X34921904Y-70513333D02*
X35017142Y-70465714D01*
X35207619Y-70465714D01*
X35302857Y-70513333D01*
X35350476Y-70560952D01*
X35398095Y-70656190D01*
X35398095Y-70941904D01*
X35350476Y-71037142D01*
X35302857Y-71084761D01*
X35207619Y-71132380D01*
X35017142Y-71132380D01*
X34921904Y-71084761D01*
X35683809Y-70465714D02*
X36064761Y-70465714D01*
X35826666Y-70132380D02*
X35826666Y-70989523D01*
X35874285Y-71084761D01*
X35969523Y-71132380D01*
X36064761Y-71132380D01*
X36779047Y-71084761D02*
X36683809Y-71132380D01*
X36493333Y-71132380D01*
X36398095Y-71084761D01*
X36350476Y-70989523D01*
X36350476Y-70608571D01*
X36398095Y-70513333D01*
X36493333Y-70465714D01*
X36683809Y-70465714D01*
X36779047Y-70513333D01*
X36826666Y-70608571D01*
X36826666Y-70703809D01*
X36350476Y-70799047D01*
X37255238Y-71132380D02*
X37255238Y-70465714D01*
X37255238Y-70656190D02*
X37302857Y-70560952D01*
X37350476Y-70513333D01*
X37445714Y-70465714D01*
X37540952Y-70465714D01*
D11*
X28670000Y-69430000D02*
X31330000Y-69430000D01*
X28670000Y-31270000D02*
X28670000Y-69430000D01*
X31330000Y-31270000D02*
X31330000Y-69430000D01*
X28670000Y-31270000D02*
X31330000Y-31270000D01*
X28670000Y-30000000D02*
X28670000Y-28670000D01*
X28670000Y-28670000D02*
X30000000Y-28670000D01*
D10*
X34676666Y-27152380D02*
X34676666Y-27866666D01*
X34629047Y-28009523D01*
X34533809Y-28104761D01*
X34390952Y-28152380D01*
X34295714Y-28152380D01*
X35105238Y-27247619D02*
X35152857Y-27200000D01*
X35248095Y-27152380D01*
X35486190Y-27152380D01*
X35581428Y-27200000D01*
X35629047Y-27247619D01*
X35676666Y-27342857D01*
X35676666Y-27438095D01*
X35629047Y-27580952D01*
X35057619Y-28152380D01*
X35676666Y-28152380D01*
X29666666Y-27122380D02*
X29666666Y-27836666D01*
X29619047Y-27979523D01*
X29523809Y-28074761D01*
X29380952Y-28122380D01*
X29285714Y-28122380D01*
X30666666Y-28122380D02*
X30095238Y-28122380D01*
X30380952Y-28122380D02*
X30380952Y-27122380D01*
X30285714Y-27265238D01*
X30190476Y-27360476D01*
X30095238Y-27408095D01*
M02*
