M48
INCH,TZ
T1C0.0394
%
G90
G05
T1
X11811Y-11811
X11811Y-12811
X11811Y-13811
X11811Y-14811
X11811Y-15811
X11811Y-16811
X11811Y-17811
X11811Y-18811
X11811Y-19811
X11811Y-20811
X11811Y-21811
X11811Y-22811
X11811Y-23811
X11811Y-24811
X11811Y-25811
X11811Y-26811
X13780Y-11811
X13780Y-12811
X13780Y-13811
X13780Y-14811
X13780Y-15811
X13780Y-16811
X13780Y-17811
X13780Y-18811
X13780Y-19811
X13780Y-20811
X13780Y-21811
X13780Y-22811
X13780Y-23811
X13780Y-24811
X13780Y-25811
X13780Y-26811
T0
M30
