G04 #@! TF.GenerationSoftware,KiCad,Pcbnew,(5.1.10)-1*
G04 #@! TF.CreationDate,2022-01-19T11:14:15-05:00*
G04 #@! TF.ProjectId,CoCo1SwitchBoard,436f436f-3153-4776-9974-6368426f6172,1.0*
G04 #@! TF.SameCoordinates,Original*
G04 #@! TF.FileFunction,Legend,Bot*
G04 #@! TF.FilePolarity,Positive*
%FSLAX46Y46*%
G04 Gerber Fmt 4.6, Leading zero omitted, Abs format (unit mm)*
G04 Created by KiCad (PCBNEW (5.1.10)-1) date 2022-01-19 11:14:15*
%MOMM*%
%LPD*%
G01*
G04 APERTURE LIST*
%ADD10C,0.120000*%
%ADD11C,0.150000*%
G04 APERTURE END LIST*
D10*
X240900000Y72100000D02*
X247600000Y72100000D01*
X247600000Y65900000D02*
X240900000Y65900000D01*
X247600000Y67800000D02*
X247600000Y70200000D01*
X240900000Y67800000D02*
X240900000Y70200000D01*
X240900000Y65900000D02*
X240900000Y66100000D01*
X240900000Y72100000D02*
X240900000Y71900000D01*
X247600000Y72100000D02*
X247600000Y71900000D01*
X247600000Y65900000D02*
X247600000Y66100000D01*
X22400000Y72100000D02*
X29100000Y72100000D01*
X29100000Y65900000D02*
X22400000Y65900000D01*
X29100000Y67800000D02*
X29100000Y70200000D01*
X22400000Y67800000D02*
X22400000Y70200000D01*
X22400000Y65900000D02*
X22400000Y66100000D01*
X22400000Y72100000D02*
X22400000Y71900000D01*
X29100000Y72100000D02*
X29100000Y71900000D01*
X29100000Y65900000D02*
X29100000Y66100000D01*
X217150000Y72100000D02*
X223850000Y72100000D01*
X223850000Y65900000D02*
X217150000Y65900000D01*
X223850000Y67800000D02*
X223850000Y70200000D01*
X217150000Y67800000D02*
X217150000Y70200000D01*
X217150000Y65900000D02*
X217150000Y66100000D01*
X217150000Y72100000D02*
X217150000Y71900000D01*
X223850000Y72100000D02*
X223850000Y71900000D01*
X223850000Y65900000D02*
X223850000Y66100000D01*
X136650000Y15100000D02*
X143350000Y15100000D01*
X143350000Y8900000D02*
X136650000Y8900000D01*
X143350000Y10800000D02*
X143350000Y13200000D01*
X136650000Y10800000D02*
X136650000Y13200000D01*
X136650000Y8900000D02*
X136650000Y9100000D01*
X136650000Y15100000D02*
X136650000Y14900000D01*
X143350000Y15100000D02*
X143350000Y14900000D01*
X143350000Y8900000D02*
X143350000Y9100000D01*
X136650000Y91100000D02*
X143350000Y91100000D01*
X143350000Y84900000D02*
X136650000Y84900000D01*
X143350000Y86800000D02*
X143350000Y89200000D01*
X136650000Y86800000D02*
X136650000Y89200000D01*
X136650000Y84900000D02*
X136650000Y85100000D01*
X136650000Y91100000D02*
X136650000Y90900000D01*
X143350000Y91100000D02*
X143350000Y90900000D01*
X143350000Y84900000D02*
X143350000Y85100000D01*
X51150000Y34100000D02*
X57850000Y34100000D01*
X57850000Y27900000D02*
X51150000Y27900000D01*
X57850000Y29800000D02*
X57850000Y32200000D01*
X51150000Y29800000D02*
X51150000Y32200000D01*
X51150000Y27900000D02*
X51150000Y28100000D01*
X51150000Y34100000D02*
X51150000Y33900000D01*
X57850000Y34100000D02*
X57850000Y33900000D01*
X57850000Y27900000D02*
X57850000Y28100000D01*
X184150000Y34100000D02*
X190850000Y34100000D01*
X190850000Y27900000D02*
X184150000Y27900000D01*
X190850000Y29800000D02*
X190850000Y32200000D01*
X184150000Y29800000D02*
X184150000Y32200000D01*
X184150000Y27900000D02*
X184150000Y28100000D01*
X184150000Y34100000D02*
X184150000Y33900000D01*
X190850000Y34100000D02*
X190850000Y33900000D01*
X190850000Y27900000D02*
X190850000Y28100000D01*
X112650000Y53100000D02*
X119350000Y53100000D01*
X119350000Y46900000D02*
X112650000Y46900000D01*
X119350000Y48800000D02*
X119350000Y51200000D01*
X112650000Y48800000D02*
X112650000Y51200000D01*
X112650000Y46900000D02*
X112650000Y47100000D01*
X112650000Y53100000D02*
X112650000Y52900000D01*
X119350000Y53100000D02*
X119350000Y52900000D01*
X119350000Y46900000D02*
X119350000Y47100000D01*
X198150000Y72100000D02*
X204850000Y72100000D01*
X204850000Y65900000D02*
X198150000Y65900000D01*
X204850000Y67800000D02*
X204850000Y70200000D01*
X198150000Y67800000D02*
X198150000Y70200000D01*
X198150000Y65900000D02*
X198150000Y66100000D01*
X198150000Y72100000D02*
X198150000Y71900000D01*
X204850000Y72100000D02*
X204850000Y71900000D01*
X204850000Y65900000D02*
X204850000Y66100000D01*
X117650000Y15100000D02*
X124350000Y15100000D01*
X124350000Y8900000D02*
X117650000Y8900000D01*
X124350000Y10800000D02*
X124350000Y13200000D01*
X117650000Y10800000D02*
X117650000Y13200000D01*
X117650000Y8900000D02*
X117650000Y9100000D01*
X117650000Y15100000D02*
X117650000Y14900000D01*
X124350000Y15100000D02*
X124350000Y14900000D01*
X124350000Y8900000D02*
X124350000Y9100000D01*
X260150000Y34100000D02*
X266850000Y34100000D01*
X266850000Y27900000D02*
X260150000Y27900000D01*
X266850000Y29800000D02*
X266850000Y32200000D01*
X260150000Y29800000D02*
X260150000Y32200000D01*
X260150000Y27900000D02*
X260150000Y28100000D01*
X260150000Y34100000D02*
X260150000Y33900000D01*
X266850000Y34100000D02*
X266850000Y33900000D01*
X266850000Y27900000D02*
X266850000Y28100000D01*
X103150000Y72100000D02*
X109850000Y72100000D01*
X109850000Y65900000D02*
X103150000Y65900000D01*
X109850000Y67800000D02*
X109850000Y70200000D01*
X103150000Y67800000D02*
X103150000Y70200000D01*
X103150000Y65900000D02*
X103150000Y66100000D01*
X103150000Y72100000D02*
X103150000Y71900000D01*
X109850000Y72100000D02*
X109850000Y71900000D01*
X109850000Y65900000D02*
X109850000Y66100000D01*
X141150000Y72100000D02*
X147850000Y72100000D01*
X147850000Y65900000D02*
X141150000Y65900000D01*
X147850000Y67800000D02*
X147850000Y70200000D01*
X141150000Y67800000D02*
X141150000Y70200000D01*
X141150000Y65900000D02*
X141150000Y66100000D01*
X141150000Y72100000D02*
X141150000Y71900000D01*
X147850000Y72100000D02*
X147850000Y71900000D01*
X147850000Y65900000D02*
X147850000Y66100000D01*
X93650000Y53100000D02*
X100350000Y53100000D01*
X100350000Y46900000D02*
X93650000Y46900000D01*
X100350000Y48800000D02*
X100350000Y51200000D01*
X93650000Y48800000D02*
X93650000Y51200000D01*
X93650000Y46900000D02*
X93650000Y47100000D01*
X93650000Y53100000D02*
X93650000Y52900000D01*
X100350000Y53100000D02*
X100350000Y52900000D01*
X100350000Y46900000D02*
X100350000Y47100000D01*
X231650000Y15100000D02*
X238350000Y15100000D01*
X238350000Y8900000D02*
X231650000Y8900000D01*
X238350000Y10800000D02*
X238350000Y13200000D01*
X231650000Y10800000D02*
X231650000Y13200000D01*
X231650000Y8900000D02*
X231650000Y9100000D01*
X231650000Y15100000D02*
X231650000Y14900000D01*
X238350000Y15100000D02*
X238350000Y14900000D01*
X238350000Y8900000D02*
X238350000Y9100000D01*
X98650000Y15100000D02*
X105350000Y15100000D01*
X105350000Y8900000D02*
X98650000Y8900000D01*
X105350000Y10800000D02*
X105350000Y13200000D01*
X98650000Y10800000D02*
X98650000Y13200000D01*
X98650000Y8900000D02*
X98650000Y9100000D01*
X98650000Y15100000D02*
X98650000Y14900000D01*
X105350000Y15100000D02*
X105350000Y14900000D01*
X105350000Y8900000D02*
X105350000Y9100000D01*
X241150000Y34100000D02*
X247850000Y34100000D01*
X247850000Y27900000D02*
X241150000Y27900000D01*
X247850000Y29800000D02*
X247850000Y32200000D01*
X241150000Y29800000D02*
X241150000Y32200000D01*
X241150000Y27900000D02*
X241150000Y28100000D01*
X241150000Y34100000D02*
X241150000Y33900000D01*
X247850000Y34100000D02*
X247850000Y33900000D01*
X247850000Y27900000D02*
X247850000Y28100000D01*
X146150000Y34100000D02*
X152850000Y34100000D01*
X152850000Y27900000D02*
X146150000Y27900000D01*
X152850000Y29800000D02*
X152850000Y32200000D01*
X146150000Y29800000D02*
X146150000Y32200000D01*
X146150000Y27900000D02*
X146150000Y28100000D01*
X146150000Y34100000D02*
X146150000Y33900000D01*
X152850000Y34100000D02*
X152850000Y33900000D01*
X152850000Y27900000D02*
X152850000Y28100000D01*
X160150000Y72100000D02*
X166850000Y72100000D01*
X166850000Y65900000D02*
X160150000Y65900000D01*
X166850000Y67800000D02*
X166850000Y70200000D01*
X160150000Y67800000D02*
X160150000Y70200000D01*
X160150000Y65900000D02*
X160150000Y66100000D01*
X160150000Y72100000D02*
X160150000Y71900000D01*
X166850000Y72100000D02*
X166850000Y71900000D01*
X166850000Y65900000D02*
X166850000Y66100000D01*
X70150000Y34100000D02*
X76850000Y34100000D01*
X76850000Y27900000D02*
X70150000Y27900000D01*
X76850000Y29800000D02*
X76850000Y32200000D01*
X70150000Y29800000D02*
X70150000Y32200000D01*
X70150000Y27900000D02*
X70150000Y28100000D01*
X70150000Y34100000D02*
X70150000Y33900000D01*
X76850000Y34100000D02*
X76850000Y33900000D01*
X76850000Y27900000D02*
X76850000Y28100000D01*
X179150000Y72100000D02*
X185850000Y72100000D01*
X185850000Y65900000D02*
X179150000Y65900000D01*
X185850000Y67800000D02*
X185850000Y70200000D01*
X179150000Y67800000D02*
X179150000Y70200000D01*
X179150000Y65900000D02*
X179150000Y66100000D01*
X179150000Y72100000D02*
X179150000Y71900000D01*
X185850000Y72100000D02*
X185850000Y71900000D01*
X185850000Y65900000D02*
X185850000Y66100000D01*
X79650000Y15100000D02*
X86350000Y15100000D01*
X86350000Y8900000D02*
X79650000Y8900000D01*
X86350000Y10800000D02*
X86350000Y13200000D01*
X79650000Y10800000D02*
X79650000Y13200000D01*
X79650000Y8900000D02*
X79650000Y9100000D01*
X79650000Y15100000D02*
X79650000Y14900000D01*
X86350000Y15100000D02*
X86350000Y14900000D01*
X86350000Y8900000D02*
X86350000Y9100000D01*
X17650000Y53100000D02*
X24350000Y53100000D01*
X24350000Y46900000D02*
X17650000Y46900000D01*
X24350000Y48800000D02*
X24350000Y51200000D01*
X17650000Y48800000D02*
X17650000Y51200000D01*
X17650000Y46900000D02*
X17650000Y47100000D01*
X17650000Y53100000D02*
X17650000Y52900000D01*
X24350000Y53100000D02*
X24350000Y52900000D01*
X24350000Y46900000D02*
X24350000Y47100000D01*
X108150000Y34100000D02*
X114850000Y34100000D01*
X114850000Y27900000D02*
X108150000Y27900000D01*
X114850000Y29800000D02*
X114850000Y32200000D01*
X108150000Y29800000D02*
X108150000Y32200000D01*
X108150000Y27900000D02*
X108150000Y28100000D01*
X108150000Y34100000D02*
X108150000Y33900000D01*
X114850000Y34100000D02*
X114850000Y33900000D01*
X114850000Y27900000D02*
X114850000Y28100000D01*
X188650000Y53100000D02*
X195350000Y53100000D01*
X195350000Y46900000D02*
X188650000Y46900000D01*
X195350000Y48800000D02*
X195350000Y51200000D01*
X188650000Y48800000D02*
X188650000Y51200000D01*
X188650000Y46900000D02*
X188650000Y47100000D01*
X188650000Y53100000D02*
X188650000Y52900000D01*
X195350000Y53100000D02*
X195350000Y52900000D01*
X195350000Y46900000D02*
X195350000Y47100000D01*
X74650000Y53100000D02*
X81350000Y53100000D01*
X81350000Y46900000D02*
X74650000Y46900000D01*
X81350000Y48800000D02*
X81350000Y51200000D01*
X74650000Y48800000D02*
X74650000Y51200000D01*
X74650000Y46900000D02*
X74650000Y47100000D01*
X74650000Y53100000D02*
X74650000Y52900000D01*
X81350000Y53100000D02*
X81350000Y52900000D01*
X81350000Y46900000D02*
X81350000Y47100000D01*
X207650000Y53100000D02*
X214350000Y53100000D01*
X214350000Y46900000D02*
X207650000Y46900000D01*
X214350000Y48800000D02*
X214350000Y51200000D01*
X207650000Y48800000D02*
X207650000Y51200000D01*
X207650000Y46900000D02*
X207650000Y47100000D01*
X207650000Y53100000D02*
X207650000Y52900000D01*
X214350000Y53100000D02*
X214350000Y52900000D01*
X214350000Y46900000D02*
X214350000Y47100000D01*
X60650000Y15100000D02*
X67350000Y15100000D01*
X67350000Y8900000D02*
X60650000Y8900000D01*
X67350000Y10800000D02*
X67350000Y13200000D01*
X60650000Y10800000D02*
X60650000Y13200000D01*
X60650000Y8900000D02*
X60650000Y9100000D01*
X60650000Y15100000D02*
X60650000Y14900000D01*
X67350000Y15100000D02*
X67350000Y14900000D01*
X67350000Y8900000D02*
X67350000Y9100000D01*
X13150000Y34100000D02*
X19850000Y34100000D01*
X19850000Y27900000D02*
X13150000Y27900000D01*
X19850000Y29800000D02*
X19850000Y32200000D01*
X13150000Y29800000D02*
X13150000Y32200000D01*
X13150000Y27900000D02*
X13150000Y28100000D01*
X13150000Y34100000D02*
X13150000Y33900000D01*
X19850000Y34100000D02*
X19850000Y33900000D01*
X19850000Y27900000D02*
X19850000Y28100000D01*
X55650000Y53100000D02*
X62350000Y53100000D01*
X62350000Y46900000D02*
X55650000Y46900000D01*
X62350000Y48800000D02*
X62350000Y51200000D01*
X55650000Y48800000D02*
X55650000Y51200000D01*
X55650000Y46900000D02*
X55650000Y47100000D01*
X55650000Y53100000D02*
X55650000Y52900000D01*
X62350000Y53100000D02*
X62350000Y52900000D01*
X62350000Y46900000D02*
X62350000Y47100000D01*
X169650000Y53100000D02*
X176350000Y53100000D01*
X176350000Y46900000D02*
X169650000Y46900000D01*
X176350000Y48800000D02*
X176350000Y51200000D01*
X169650000Y48800000D02*
X169650000Y51200000D01*
X169650000Y46900000D02*
X169650000Y47100000D01*
X169650000Y53100000D02*
X169650000Y52900000D01*
X176350000Y53100000D02*
X176350000Y52900000D01*
X176350000Y46900000D02*
X176350000Y47100000D01*
X84150000Y72100000D02*
X90850000Y72100000D01*
X90850000Y65900000D02*
X84150000Y65900000D01*
X90850000Y67800000D02*
X90850000Y70200000D01*
X84150000Y67800000D02*
X84150000Y70200000D01*
X84150000Y65900000D02*
X84150000Y66100000D01*
X84150000Y72100000D02*
X84150000Y71900000D01*
X90850000Y72100000D02*
X90850000Y71900000D01*
X90850000Y65900000D02*
X90850000Y66100000D01*
X250650000Y15100000D02*
X257350000Y15100000D01*
X257350000Y8900000D02*
X250650000Y8900000D01*
X257350000Y10800000D02*
X257350000Y13200000D01*
X250650000Y10800000D02*
X250650000Y13200000D01*
X250650000Y8900000D02*
X250650000Y9100000D01*
X250650000Y15100000D02*
X250650000Y14900000D01*
X257350000Y15100000D02*
X257350000Y14900000D01*
X257350000Y8900000D02*
X257350000Y9100000D01*
X212650000Y15100000D02*
X219350000Y15100000D01*
X219350000Y8900000D02*
X212650000Y8900000D01*
X219350000Y10800000D02*
X219350000Y13200000D01*
X212650000Y10800000D02*
X212650000Y13200000D01*
X212650000Y8900000D02*
X212650000Y9100000D01*
X212650000Y15100000D02*
X212650000Y14900000D01*
X219350000Y15100000D02*
X219350000Y14900000D01*
X219350000Y8900000D02*
X219350000Y9100000D01*
X41650000Y15100000D02*
X48350000Y15100000D01*
X48350000Y8900000D02*
X41650000Y8900000D01*
X48350000Y10800000D02*
X48350000Y13200000D01*
X41650000Y10800000D02*
X41650000Y13200000D01*
X41650000Y8900000D02*
X41650000Y9100000D01*
X41650000Y15100000D02*
X41650000Y14900000D01*
X48350000Y15100000D02*
X48350000Y14900000D01*
X48350000Y8900000D02*
X48350000Y9100000D01*
X46150000Y72100000D02*
X52850000Y72100000D01*
X52850000Y65900000D02*
X46150000Y65900000D01*
X52850000Y67800000D02*
X52850000Y70200000D01*
X46150000Y67800000D02*
X46150000Y70200000D01*
X46150000Y65900000D02*
X46150000Y66100000D01*
X46150000Y72100000D02*
X46150000Y71900000D01*
X52850000Y72100000D02*
X52850000Y71900000D01*
X52850000Y65900000D02*
X52850000Y66100000D01*
X89150000Y34100000D02*
X95850000Y34100000D01*
X95850000Y27900000D02*
X89150000Y27900000D01*
X95850000Y29800000D02*
X95850000Y32200000D01*
X89150000Y29800000D02*
X89150000Y32200000D01*
X89150000Y27900000D02*
X89150000Y28100000D01*
X89150000Y34100000D02*
X89150000Y33900000D01*
X95850000Y34100000D02*
X95850000Y33900000D01*
X95850000Y27900000D02*
X95850000Y28100000D01*
X150650000Y53100000D02*
X157350000Y53100000D01*
X157350000Y46900000D02*
X150650000Y46900000D01*
X157350000Y48800000D02*
X157350000Y51200000D01*
X150650000Y48800000D02*
X150650000Y51200000D01*
X150650000Y46900000D02*
X150650000Y47100000D01*
X150650000Y53100000D02*
X150650000Y52900000D01*
X157350000Y53100000D02*
X157350000Y52900000D01*
X157350000Y46900000D02*
X157350000Y47100000D01*
X122150000Y72100000D02*
X128850000Y72100000D01*
X128850000Y65900000D02*
X122150000Y65900000D01*
X128850000Y67800000D02*
X128850000Y70200000D01*
X122150000Y67800000D02*
X122150000Y70200000D01*
X122150000Y65900000D02*
X122150000Y66100000D01*
X122150000Y72100000D02*
X122150000Y71900000D01*
X128850000Y72100000D02*
X128850000Y71900000D01*
X128850000Y65900000D02*
X128850000Y66100000D01*
X264650000Y53100000D02*
X271350000Y53100000D01*
X271350000Y46900000D02*
X264650000Y46900000D01*
X271350000Y48800000D02*
X271350000Y51200000D01*
X264650000Y48800000D02*
X264650000Y51200000D01*
X264650000Y46900000D02*
X264650000Y47100000D01*
X264650000Y53100000D02*
X264650000Y52900000D01*
X271350000Y53100000D02*
X271350000Y52900000D01*
X271350000Y46900000D02*
X271350000Y47100000D01*
X174650000Y15100000D02*
X181350000Y15100000D01*
X181350000Y8900000D02*
X174650000Y8900000D01*
X181350000Y10800000D02*
X181350000Y13200000D01*
X174650000Y10800000D02*
X174650000Y13200000D01*
X174650000Y8900000D02*
X174650000Y9100000D01*
X174650000Y15100000D02*
X174650000Y14900000D01*
X181350000Y15100000D02*
X181350000Y14900000D01*
X181350000Y8900000D02*
X181350000Y9100000D01*
X22650000Y15100000D02*
X29350000Y15100000D01*
X29350000Y8900000D02*
X22650000Y8900000D01*
X29350000Y10800000D02*
X29350000Y13200000D01*
X22650000Y10800000D02*
X22650000Y13200000D01*
X22650000Y8900000D02*
X22650000Y9100000D01*
X22650000Y15100000D02*
X22650000Y14900000D01*
X29350000Y15100000D02*
X29350000Y14900000D01*
X29350000Y8900000D02*
X29350000Y9100000D01*
X127150000Y34100000D02*
X133850000Y34100000D01*
X133850000Y27900000D02*
X127150000Y27900000D01*
X133850000Y29800000D02*
X133850000Y32200000D01*
X127150000Y29800000D02*
X127150000Y32200000D01*
X127150000Y27900000D02*
X127150000Y28100000D01*
X127150000Y34100000D02*
X127150000Y33900000D01*
X133850000Y34100000D02*
X133850000Y33900000D01*
X133850000Y27900000D02*
X133850000Y28100000D01*
X32150000Y34100000D02*
X38850000Y34100000D01*
X38850000Y27900000D02*
X32150000Y27900000D01*
X38850000Y29800000D02*
X38850000Y32200000D01*
X32150000Y29800000D02*
X32150000Y32200000D01*
X32150000Y27900000D02*
X32150000Y28100000D01*
X32150000Y34100000D02*
X32150000Y33900000D01*
X38850000Y34100000D02*
X38850000Y33900000D01*
X38850000Y27900000D02*
X38850000Y28100000D01*
X165150000Y34100000D02*
X171850000Y34100000D01*
X171850000Y27900000D02*
X165150000Y27900000D01*
X171850000Y29800000D02*
X171850000Y32200000D01*
X165150000Y29800000D02*
X165150000Y32200000D01*
X165150000Y27900000D02*
X165150000Y28100000D01*
X165150000Y34100000D02*
X165150000Y33900000D01*
X171850000Y34100000D02*
X171850000Y33900000D01*
X171850000Y27900000D02*
X171850000Y28100000D01*
X36650000Y53100000D02*
X43350000Y53100000D01*
X43350000Y46900000D02*
X36650000Y46900000D01*
X43350000Y48800000D02*
X43350000Y51200000D01*
X36650000Y48800000D02*
X36650000Y51200000D01*
X36650000Y46900000D02*
X36650000Y47100000D01*
X36650000Y53100000D02*
X36650000Y52900000D01*
X43350000Y53100000D02*
X43350000Y52900000D01*
X43350000Y46900000D02*
X43350000Y47100000D01*
X236150000Y53100000D02*
X242850000Y53100000D01*
X242850000Y46900000D02*
X236150000Y46900000D01*
X242850000Y48800000D02*
X242850000Y51200000D01*
X236150000Y48800000D02*
X236150000Y51200000D01*
X236150000Y46900000D02*
X236150000Y47100000D01*
X236150000Y53100000D02*
X236150000Y52900000D01*
X242850000Y53100000D02*
X242850000Y52900000D01*
X242850000Y46900000D02*
X242850000Y47100000D01*
X155650000Y15100000D02*
X162350000Y15100000D01*
X162350000Y8900000D02*
X155650000Y8900000D01*
X162350000Y10800000D02*
X162350000Y13200000D01*
X155650000Y10800000D02*
X155650000Y13200000D01*
X155650000Y8900000D02*
X155650000Y9100000D01*
X155650000Y15100000D02*
X155650000Y14900000D01*
X162350000Y15100000D02*
X162350000Y14900000D01*
X162350000Y8900000D02*
X162350000Y9100000D01*
X193650000Y15100000D02*
X200350000Y15100000D01*
X200350000Y8900000D02*
X193650000Y8900000D01*
X200350000Y10800000D02*
X200350000Y13200000D01*
X193650000Y10800000D02*
X193650000Y13200000D01*
X193650000Y8900000D02*
X193650000Y9100000D01*
X193650000Y15100000D02*
X193650000Y14900000D01*
X200350000Y15100000D02*
X200350000Y14900000D01*
X200350000Y8900000D02*
X200350000Y9100000D01*
X65150000Y72100000D02*
X71850000Y72100000D01*
X71850000Y65900000D02*
X65150000Y65900000D01*
X71850000Y67800000D02*
X71850000Y70200000D01*
X65150000Y67800000D02*
X65150000Y70200000D01*
X65150000Y65900000D02*
X65150000Y66100000D01*
X65150000Y72100000D02*
X65150000Y71900000D01*
X71850000Y72100000D02*
X71850000Y71900000D01*
X71850000Y65900000D02*
X71850000Y66100000D01*
X203150000Y34100000D02*
X209850000Y34100000D01*
X209850000Y27900000D02*
X203150000Y27900000D01*
X209850000Y29800000D02*
X209850000Y32200000D01*
X203150000Y29800000D02*
X203150000Y32200000D01*
X203150000Y27900000D02*
X203150000Y28100000D01*
X203150000Y34100000D02*
X203150000Y33900000D01*
X209850000Y34100000D02*
X209850000Y33900000D01*
X209850000Y27900000D02*
X209850000Y28100000D01*
X131650000Y53100000D02*
X138350000Y53100000D01*
X138350000Y46900000D02*
X131650000Y46900000D01*
X138350000Y48800000D02*
X138350000Y51200000D01*
X131650000Y48800000D02*
X131650000Y51200000D01*
X131650000Y46900000D02*
X131650000Y47100000D01*
X131650000Y53100000D02*
X131650000Y52900000D01*
X138350000Y53100000D02*
X138350000Y52900000D01*
X138350000Y46900000D02*
X138350000Y47100000D01*
X222150000Y34100000D02*
X228850000Y34100000D01*
X228850000Y27900000D02*
X222150000Y27900000D01*
X228850000Y29800000D02*
X228850000Y32200000D01*
X222150000Y29800000D02*
X222150000Y32200000D01*
X222150000Y27900000D02*
X222150000Y28100000D01*
X222150000Y34100000D02*
X222150000Y33900000D01*
X228850000Y34100000D02*
X228850000Y33900000D01*
X228850000Y27900000D02*
X228850000Y28100000D01*
D11*
X245538095Y64645238D02*
X245395238Y64597619D01*
X245157142Y64597619D01*
X245061904Y64645238D01*
X245014285Y64692857D01*
X244966666Y64788095D01*
X244966666Y64883333D01*
X245014285Y64978571D01*
X245061904Y65026190D01*
X245157142Y65073809D01*
X245347619Y65121428D01*
X245442857Y65169047D01*
X245490476Y65216666D01*
X245538095Y65311904D01*
X245538095Y65407142D01*
X245490476Y65502380D01*
X245442857Y65550000D01*
X245347619Y65597619D01*
X245109523Y65597619D01*
X244966666Y65550000D01*
X244061904Y65597619D02*
X244538095Y65597619D01*
X244585714Y65121428D01*
X244538095Y65169047D01*
X244442857Y65216666D01*
X244204761Y65216666D01*
X244109523Y65169047D01*
X244061904Y65121428D01*
X244014285Y65026190D01*
X244014285Y64788095D01*
X244061904Y64692857D01*
X244109523Y64645238D01*
X244204761Y64597619D01*
X244442857Y64597619D01*
X244538095Y64645238D01*
X244585714Y64692857D01*
X243680952Y65597619D02*
X243014285Y65597619D01*
X243442857Y64597619D01*
X245988095Y72797619D02*
X246321428Y73273809D01*
X246559523Y72797619D02*
X246559523Y73797619D01*
X246178571Y73797619D01*
X246083333Y73750000D01*
X246035714Y73702380D01*
X245988095Y73607142D01*
X245988095Y73464285D01*
X246035714Y73369047D01*
X246083333Y73321428D01*
X246178571Y73273809D01*
X246559523Y73273809D01*
X245607142Y72845238D02*
X245464285Y72797619D01*
X245226190Y72797619D01*
X245130952Y72845238D01*
X245083333Y72892857D01*
X245035714Y72988095D01*
X245035714Y73083333D01*
X245083333Y73178571D01*
X245130952Y73226190D01*
X245226190Y73273809D01*
X245416666Y73321428D01*
X245511904Y73369047D01*
X245559523Y73416666D01*
X245607142Y73511904D01*
X245607142Y73607142D01*
X245559523Y73702380D01*
X245511904Y73750000D01*
X245416666Y73797619D01*
X245178571Y73797619D01*
X245035714Y73750000D01*
X244607142Y72797619D02*
X244607142Y73797619D01*
X244607142Y73321428D02*
X244035714Y73321428D01*
X244035714Y72797619D02*
X244035714Y73797619D01*
X243559523Y72797619D02*
X243559523Y73797619D01*
X242750000Y73321428D02*
X243083333Y73321428D01*
X243083333Y72797619D02*
X243083333Y73797619D01*
X242607142Y73797619D01*
X242369047Y73797619D02*
X241797619Y73797619D01*
X242083333Y72797619D02*
X242083333Y73797619D01*
X27038095Y64645238D02*
X26895238Y64597619D01*
X26657142Y64597619D01*
X26561904Y64645238D01*
X26514285Y64692857D01*
X26466666Y64788095D01*
X26466666Y64883333D01*
X26514285Y64978571D01*
X26561904Y65026190D01*
X26657142Y65073809D01*
X26847619Y65121428D01*
X26942857Y65169047D01*
X26990476Y65216666D01*
X27038095Y65311904D01*
X27038095Y65407142D01*
X26990476Y65502380D01*
X26942857Y65550000D01*
X26847619Y65597619D01*
X26609523Y65597619D01*
X26466666Y65550000D01*
X25561904Y65597619D02*
X26038095Y65597619D01*
X26085714Y65121428D01*
X26038095Y65169047D01*
X25942857Y65216666D01*
X25704761Y65216666D01*
X25609523Y65169047D01*
X25561904Y65121428D01*
X25514285Y65026190D01*
X25514285Y64788095D01*
X25561904Y64692857D01*
X25609523Y64645238D01*
X25704761Y64597619D01*
X25942857Y64597619D01*
X26038095Y64645238D01*
X26085714Y64692857D01*
X24657142Y65597619D02*
X24847619Y65597619D01*
X24942857Y65550000D01*
X24990476Y65502380D01*
X25085714Y65359523D01*
X25133333Y65169047D01*
X25133333Y64788095D01*
X25085714Y64692857D01*
X25038095Y64645238D01*
X24942857Y64597619D01*
X24752380Y64597619D01*
X24657142Y64645238D01*
X24609523Y64692857D01*
X24561904Y64788095D01*
X24561904Y65026190D01*
X24609523Y65121428D01*
X24657142Y65169047D01*
X24752380Y65216666D01*
X24942857Y65216666D01*
X25038095Y65169047D01*
X25085714Y65121428D01*
X25133333Y65026190D01*
X27488095Y72797619D02*
X27964285Y72797619D01*
X27964285Y73797619D01*
X27202380Y72845238D02*
X27059523Y72797619D01*
X26821428Y72797619D01*
X26726190Y72845238D01*
X26678571Y72892857D01*
X26630952Y72988095D01*
X26630952Y73083333D01*
X26678571Y73178571D01*
X26726190Y73226190D01*
X26821428Y73273809D01*
X27011904Y73321428D01*
X27107142Y73369047D01*
X27154761Y73416666D01*
X27202380Y73511904D01*
X27202380Y73607142D01*
X27154761Y73702380D01*
X27107142Y73750000D01*
X27011904Y73797619D01*
X26773809Y73797619D01*
X26630952Y73750000D01*
X26202380Y72797619D02*
X26202380Y73797619D01*
X26202380Y73321428D02*
X25630952Y73321428D01*
X25630952Y72797619D02*
X25630952Y73797619D01*
X25154761Y72797619D02*
X25154761Y73797619D01*
X24345238Y73321428D02*
X24678571Y73321428D01*
X24678571Y72797619D02*
X24678571Y73797619D01*
X24202380Y73797619D01*
X23964285Y73797619D02*
X23392857Y73797619D01*
X23678571Y72797619D02*
X23678571Y73797619D01*
X221788095Y64645238D02*
X221645238Y64597619D01*
X221407142Y64597619D01*
X221311904Y64645238D01*
X221264285Y64692857D01*
X221216666Y64788095D01*
X221216666Y64883333D01*
X221264285Y64978571D01*
X221311904Y65026190D01*
X221407142Y65073809D01*
X221597619Y65121428D01*
X221692857Y65169047D01*
X221740476Y65216666D01*
X221788095Y65311904D01*
X221788095Y65407142D01*
X221740476Y65502380D01*
X221692857Y65550000D01*
X221597619Y65597619D01*
X221359523Y65597619D01*
X221216666Y65550000D01*
X220311904Y65597619D02*
X220788095Y65597619D01*
X220835714Y65121428D01*
X220788095Y65169047D01*
X220692857Y65216666D01*
X220454761Y65216666D01*
X220359523Y65169047D01*
X220311904Y65121428D01*
X220264285Y65026190D01*
X220264285Y64788095D01*
X220311904Y64692857D01*
X220359523Y64645238D01*
X220454761Y64597619D01*
X220692857Y64597619D01*
X220788095Y64645238D01*
X220835714Y64692857D01*
X219359523Y65597619D02*
X219835714Y65597619D01*
X219883333Y65121428D01*
X219835714Y65169047D01*
X219740476Y65216666D01*
X219502380Y65216666D01*
X219407142Y65169047D01*
X219359523Y65121428D01*
X219311904Y65026190D01*
X219311904Y64788095D01*
X219359523Y64692857D01*
X219407142Y64645238D01*
X219502380Y64597619D01*
X219740476Y64597619D01*
X219835714Y64645238D01*
X219883333Y64692857D01*
X222619047Y72845238D02*
X222476190Y72797619D01*
X222238095Y72797619D01*
X222142857Y72845238D01*
X222095238Y72892857D01*
X222047619Y72988095D01*
X222047619Y73083333D01*
X222095238Y73178571D01*
X222142857Y73226190D01*
X222238095Y73273809D01*
X222428571Y73321428D01*
X222523809Y73369047D01*
X222571428Y73416666D01*
X222619047Y73511904D01*
X222619047Y73607142D01*
X222571428Y73702380D01*
X222523809Y73750000D01*
X222428571Y73797619D01*
X222190476Y73797619D01*
X222047619Y73750000D01*
X221142857Y72797619D02*
X221619047Y72797619D01*
X221619047Y73797619D01*
X220857142Y73083333D02*
X220380952Y73083333D01*
X220952380Y72797619D02*
X220619047Y73797619D01*
X220285714Y72797619D01*
X220000000Y72845238D02*
X219857142Y72797619D01*
X219619047Y72797619D01*
X219523809Y72845238D01*
X219476190Y72892857D01*
X219428571Y72988095D01*
X219428571Y73083333D01*
X219476190Y73178571D01*
X219523809Y73226190D01*
X219619047Y73273809D01*
X219809523Y73321428D01*
X219904761Y73369047D01*
X219952380Y73416666D01*
X220000000Y73511904D01*
X220000000Y73607142D01*
X219952380Y73702380D01*
X219904761Y73750000D01*
X219809523Y73797619D01*
X219571428Y73797619D01*
X219428571Y73750000D01*
X219000000Y72797619D02*
X219000000Y73797619D01*
X219000000Y73321428D02*
X218428571Y73321428D01*
X218428571Y72797619D02*
X218428571Y73797619D01*
X141288095Y7645238D02*
X141145238Y7597619D01*
X140907142Y7597619D01*
X140811904Y7645238D01*
X140764285Y7692857D01*
X140716666Y7788095D01*
X140716666Y7883333D01*
X140764285Y7978571D01*
X140811904Y8026190D01*
X140907142Y8073809D01*
X141097619Y8121428D01*
X141192857Y8169047D01*
X141240476Y8216666D01*
X141288095Y8311904D01*
X141288095Y8407142D01*
X141240476Y8502380D01*
X141192857Y8550000D01*
X141097619Y8597619D01*
X140859523Y8597619D01*
X140716666Y8550000D01*
X139811904Y8597619D02*
X140288095Y8597619D01*
X140335714Y8121428D01*
X140288095Y8169047D01*
X140192857Y8216666D01*
X139954761Y8216666D01*
X139859523Y8169047D01*
X139811904Y8121428D01*
X139764285Y8026190D01*
X139764285Y7788095D01*
X139811904Y7692857D01*
X139859523Y7645238D01*
X139954761Y7597619D01*
X140192857Y7597619D01*
X140288095Y7645238D01*
X140335714Y7692857D01*
X138907142Y8264285D02*
X138907142Y7597619D01*
X139145238Y8645238D02*
X139383333Y7930952D01*
X138764285Y7930952D01*
X140333333Y16797619D02*
X139666666Y16797619D01*
X140095238Y15797619D01*
X141288095Y83645238D02*
X141145238Y83597619D01*
X140907142Y83597619D01*
X140811904Y83645238D01*
X140764285Y83692857D01*
X140716666Y83788095D01*
X140716666Y83883333D01*
X140764285Y83978571D01*
X140811904Y84026190D01*
X140907142Y84073809D01*
X141097619Y84121428D01*
X141192857Y84169047D01*
X141240476Y84216666D01*
X141288095Y84311904D01*
X141288095Y84407142D01*
X141240476Y84502380D01*
X141192857Y84550000D01*
X141097619Y84597619D01*
X140859523Y84597619D01*
X140716666Y84550000D01*
X139811904Y84597619D02*
X140288095Y84597619D01*
X140335714Y84121428D01*
X140288095Y84169047D01*
X140192857Y84216666D01*
X139954761Y84216666D01*
X139859523Y84169047D01*
X139811904Y84121428D01*
X139764285Y84026190D01*
X139764285Y83788095D01*
X139811904Y83692857D01*
X139859523Y83645238D01*
X139954761Y83597619D01*
X140192857Y83597619D01*
X140288095Y83645238D01*
X140335714Y83692857D01*
X139430952Y84597619D02*
X138811904Y84597619D01*
X139145238Y84216666D01*
X139002380Y84216666D01*
X138907142Y84169047D01*
X138859523Y84121428D01*
X138811904Y84026190D01*
X138811904Y83788095D01*
X138859523Y83692857D01*
X138907142Y83645238D01*
X139002380Y83597619D01*
X139288095Y83597619D01*
X139383333Y83645238D01*
X139430952Y83692857D01*
X142166666Y91845238D02*
X142023809Y91797619D01*
X141785714Y91797619D01*
X141690476Y91845238D01*
X141642857Y91892857D01*
X141595238Y91988095D01*
X141595238Y92083333D01*
X141642857Y92178571D01*
X141690476Y92226190D01*
X141785714Y92273809D01*
X141976190Y92321428D01*
X142071428Y92369047D01*
X142119047Y92416666D01*
X142166666Y92511904D01*
X142166666Y92607142D01*
X142119047Y92702380D01*
X142071428Y92750000D01*
X141976190Y92797619D01*
X141738095Y92797619D01*
X141595238Y92750000D01*
X141166666Y91797619D02*
X141166666Y92797619D01*
X140785714Y92797619D01*
X140690476Y92750000D01*
X140642857Y92702380D01*
X140595238Y92607142D01*
X140595238Y92464285D01*
X140642857Y92369047D01*
X140690476Y92321428D01*
X140785714Y92273809D01*
X141166666Y92273809D01*
X140214285Y92083333D02*
X139738095Y92083333D01*
X140309523Y91797619D02*
X139976190Y92797619D01*
X139642857Y91797619D01*
X138738095Y91892857D02*
X138785714Y91845238D01*
X138928571Y91797619D01*
X139023809Y91797619D01*
X139166666Y91845238D01*
X139261904Y91940476D01*
X139309523Y92035714D01*
X139357142Y92226190D01*
X139357142Y92369047D01*
X139309523Y92559523D01*
X139261904Y92654761D01*
X139166666Y92750000D01*
X139023809Y92797619D01*
X138928571Y92797619D01*
X138785714Y92750000D01*
X138738095Y92702380D01*
X138309523Y92321428D02*
X137976190Y92321428D01*
X137833333Y91797619D02*
X138309523Y91797619D01*
X138309523Y92797619D01*
X137833333Y92797619D01*
X55788095Y26645238D02*
X55645238Y26597619D01*
X55407142Y26597619D01*
X55311904Y26645238D01*
X55264285Y26692857D01*
X55216666Y26788095D01*
X55216666Y26883333D01*
X55264285Y26978571D01*
X55311904Y27026190D01*
X55407142Y27073809D01*
X55597619Y27121428D01*
X55692857Y27169047D01*
X55740476Y27216666D01*
X55788095Y27311904D01*
X55788095Y27407142D01*
X55740476Y27502380D01*
X55692857Y27550000D01*
X55597619Y27597619D01*
X55359523Y27597619D01*
X55216666Y27550000D01*
X54311904Y27597619D02*
X54788095Y27597619D01*
X54835714Y27121428D01*
X54788095Y27169047D01*
X54692857Y27216666D01*
X54454761Y27216666D01*
X54359523Y27169047D01*
X54311904Y27121428D01*
X54264285Y27026190D01*
X54264285Y26788095D01*
X54311904Y26692857D01*
X54359523Y26645238D01*
X54454761Y26597619D01*
X54692857Y26597619D01*
X54788095Y26645238D01*
X54835714Y26692857D01*
X53883333Y27502380D02*
X53835714Y27550000D01*
X53740476Y27597619D01*
X53502380Y27597619D01*
X53407142Y27550000D01*
X53359523Y27502380D01*
X53311904Y27407142D01*
X53311904Y27311904D01*
X53359523Y27169047D01*
X53930952Y26597619D01*
X53311904Y26597619D01*
X54928571Y35797619D02*
X54690476Y34797619D01*
X54500000Y35511904D01*
X54309523Y34797619D01*
X54071428Y35797619D01*
X188788095Y26645238D02*
X188645238Y26597619D01*
X188407142Y26597619D01*
X188311904Y26645238D01*
X188264285Y26692857D01*
X188216666Y26788095D01*
X188216666Y26883333D01*
X188264285Y26978571D01*
X188311904Y27026190D01*
X188407142Y27073809D01*
X188597619Y27121428D01*
X188692857Y27169047D01*
X188740476Y27216666D01*
X188788095Y27311904D01*
X188788095Y27407142D01*
X188740476Y27502380D01*
X188692857Y27550000D01*
X188597619Y27597619D01*
X188359523Y27597619D01*
X188216666Y27550000D01*
X187311904Y27597619D02*
X187788095Y27597619D01*
X187835714Y27121428D01*
X187788095Y27169047D01*
X187692857Y27216666D01*
X187454761Y27216666D01*
X187359523Y27169047D01*
X187311904Y27121428D01*
X187264285Y27026190D01*
X187264285Y26788095D01*
X187311904Y26692857D01*
X187359523Y26645238D01*
X187454761Y26597619D01*
X187692857Y26597619D01*
X187788095Y26645238D01*
X187835714Y26692857D01*
X186311904Y26597619D02*
X186883333Y26597619D01*
X186597619Y26597619D02*
X186597619Y27597619D01*
X186692857Y27454761D01*
X186788095Y27359523D01*
X186883333Y27311904D01*
X187595238Y35797619D02*
X187404761Y35797619D01*
X187309523Y35750000D01*
X187214285Y35654761D01*
X187166666Y35464285D01*
X187166666Y35130952D01*
X187214285Y34940476D01*
X187309523Y34845238D01*
X187404761Y34797619D01*
X187595238Y34797619D01*
X187690476Y34845238D01*
X187785714Y34940476D01*
X187833333Y35130952D01*
X187833333Y35464285D01*
X187785714Y35654761D01*
X187690476Y35750000D01*
X187595238Y35797619D01*
X117288095Y45645238D02*
X117145238Y45597619D01*
X116907142Y45597619D01*
X116811904Y45645238D01*
X116764285Y45692857D01*
X116716666Y45788095D01*
X116716666Y45883333D01*
X116764285Y45978571D01*
X116811904Y46026190D01*
X116907142Y46073809D01*
X117097619Y46121428D01*
X117192857Y46169047D01*
X117240476Y46216666D01*
X117288095Y46311904D01*
X117288095Y46407142D01*
X117240476Y46502380D01*
X117192857Y46550000D01*
X117097619Y46597619D01*
X116859523Y46597619D01*
X116716666Y46550000D01*
X115811904Y46597619D02*
X116288095Y46597619D01*
X116335714Y46121428D01*
X116288095Y46169047D01*
X116192857Y46216666D01*
X115954761Y46216666D01*
X115859523Y46169047D01*
X115811904Y46121428D01*
X115764285Y46026190D01*
X115764285Y45788095D01*
X115811904Y45692857D01*
X115859523Y45645238D01*
X115954761Y45597619D01*
X116192857Y45597619D01*
X116288095Y45645238D01*
X116335714Y45692857D01*
X115145238Y46597619D02*
X115050000Y46597619D01*
X114954761Y46550000D01*
X114907142Y46502380D01*
X114859523Y46407142D01*
X114811904Y46216666D01*
X114811904Y45978571D01*
X114859523Y45788095D01*
X114907142Y45692857D01*
X114954761Y45645238D01*
X115050000Y45597619D01*
X115145238Y45597619D01*
X115240476Y45645238D01*
X115288095Y45692857D01*
X115335714Y45788095D01*
X115383333Y45978571D01*
X115383333Y46216666D01*
X115335714Y46407142D01*
X115288095Y46502380D01*
X115240476Y46550000D01*
X115145238Y46597619D01*
X115738095Y54750000D02*
X115833333Y54797619D01*
X115976190Y54797619D01*
X116119047Y54750000D01*
X116214285Y54654761D01*
X116261904Y54559523D01*
X116309523Y54369047D01*
X116309523Y54226190D01*
X116261904Y54035714D01*
X116214285Y53940476D01*
X116119047Y53845238D01*
X115976190Y53797619D01*
X115880952Y53797619D01*
X115738095Y53845238D01*
X115690476Y53892857D01*
X115690476Y54226190D01*
X115880952Y54226190D01*
X202788095Y64645238D02*
X202645238Y64597619D01*
X202407142Y64597619D01*
X202311904Y64645238D01*
X202264285Y64692857D01*
X202216666Y64788095D01*
X202216666Y64883333D01*
X202264285Y64978571D01*
X202311904Y65026190D01*
X202407142Y65073809D01*
X202597619Y65121428D01*
X202692857Y65169047D01*
X202740476Y65216666D01*
X202788095Y65311904D01*
X202788095Y65407142D01*
X202740476Y65502380D01*
X202692857Y65550000D01*
X202597619Y65597619D01*
X202359523Y65597619D01*
X202216666Y65550000D01*
X201359523Y65264285D02*
X201359523Y64597619D01*
X201597619Y65645238D02*
X201835714Y64930952D01*
X201216666Y64930952D01*
X200692857Y65169047D02*
X200788095Y65216666D01*
X200835714Y65264285D01*
X200883333Y65359523D01*
X200883333Y65407142D01*
X200835714Y65502380D01*
X200788095Y65550000D01*
X200692857Y65597619D01*
X200502380Y65597619D01*
X200407142Y65550000D01*
X200359523Y65502380D01*
X200311904Y65407142D01*
X200311904Y65359523D01*
X200359523Y65264285D01*
X200407142Y65216666D01*
X200502380Y65169047D01*
X200692857Y65169047D01*
X200788095Y65121428D01*
X200835714Y65073809D01*
X200883333Y64978571D01*
X200883333Y64788095D01*
X200835714Y64692857D01*
X200788095Y64645238D01*
X200692857Y64597619D01*
X200502380Y64597619D01*
X200407142Y64645238D01*
X200359523Y64692857D01*
X200311904Y64788095D01*
X200311904Y64978571D01*
X200359523Y65073809D01*
X200407142Y65121428D01*
X200502380Y65169047D01*
X203976190Y72797619D02*
X203976190Y73797619D01*
X203595238Y73797619D01*
X203500000Y73750000D01*
X203452380Y73702380D01*
X203404761Y73607142D01*
X203404761Y73464285D01*
X203452380Y73369047D01*
X203500000Y73321428D01*
X203595238Y73273809D01*
X203976190Y73273809D01*
X202976190Y73321428D02*
X202642857Y73321428D01*
X202500000Y72797619D02*
X202976190Y72797619D01*
X202976190Y73797619D01*
X202500000Y73797619D01*
X201500000Y72797619D02*
X201833333Y73273809D01*
X202071428Y72797619D02*
X202071428Y73797619D01*
X201690476Y73797619D01*
X201595238Y73750000D01*
X201547619Y73702380D01*
X201500000Y73607142D01*
X201500000Y73464285D01*
X201547619Y73369047D01*
X201595238Y73321428D01*
X201690476Y73273809D01*
X202071428Y73273809D01*
X201071428Y72797619D02*
X201071428Y73797619D01*
X200404761Y73797619D02*
X200214285Y73797619D01*
X200119047Y73750000D01*
X200023809Y73654761D01*
X199976190Y73464285D01*
X199976190Y73130952D01*
X200023809Y72940476D01*
X200119047Y72845238D01*
X200214285Y72797619D01*
X200404761Y72797619D01*
X200500000Y72845238D01*
X200595238Y72940476D01*
X200642857Y73130952D01*
X200642857Y73464285D01*
X200595238Y73654761D01*
X200500000Y73750000D01*
X200404761Y73797619D01*
X199547619Y72797619D02*
X199547619Y73797619D01*
X199309523Y73797619D01*
X199166666Y73750000D01*
X199071428Y73654761D01*
X199023809Y73559523D01*
X198976190Y73369047D01*
X198976190Y73226190D01*
X199023809Y73035714D01*
X199071428Y72940476D01*
X199166666Y72845238D01*
X199309523Y72797619D01*
X199547619Y72797619D01*
X122288095Y7645238D02*
X122145238Y7597619D01*
X121907142Y7597619D01*
X121811904Y7645238D01*
X121764285Y7692857D01*
X121716666Y7788095D01*
X121716666Y7883333D01*
X121764285Y7978571D01*
X121811904Y8026190D01*
X121907142Y8073809D01*
X122097619Y8121428D01*
X122192857Y8169047D01*
X122240476Y8216666D01*
X122288095Y8311904D01*
X122288095Y8407142D01*
X122240476Y8502380D01*
X122192857Y8550000D01*
X122097619Y8597619D01*
X121859523Y8597619D01*
X121716666Y8550000D01*
X120859523Y8264285D02*
X120859523Y7597619D01*
X121097619Y8645238D02*
X121335714Y7930952D01*
X120716666Y7930952D01*
X120430952Y8597619D02*
X119764285Y8597619D01*
X120192857Y7597619D01*
X120809523Y16797619D02*
X121000000Y16797619D01*
X121095238Y16750000D01*
X121142857Y16702380D01*
X121238095Y16559523D01*
X121285714Y16369047D01*
X121285714Y15988095D01*
X121238095Y15892857D01*
X121190476Y15845238D01*
X121095238Y15797619D01*
X120904761Y15797619D01*
X120809523Y15845238D01*
X120761904Y15892857D01*
X120714285Y15988095D01*
X120714285Y16226190D01*
X120761904Y16321428D01*
X120809523Y16369047D01*
X120904761Y16416666D01*
X121095238Y16416666D01*
X121190476Y16369047D01*
X121238095Y16321428D01*
X121285714Y16226190D01*
X264788095Y26645238D02*
X264645238Y26597619D01*
X264407142Y26597619D01*
X264311904Y26645238D01*
X264264285Y26692857D01*
X264216666Y26788095D01*
X264216666Y26883333D01*
X264264285Y26978571D01*
X264311904Y27026190D01*
X264407142Y27073809D01*
X264597619Y27121428D01*
X264692857Y27169047D01*
X264740476Y27216666D01*
X264788095Y27311904D01*
X264788095Y27407142D01*
X264740476Y27502380D01*
X264692857Y27550000D01*
X264597619Y27597619D01*
X264359523Y27597619D01*
X264216666Y27550000D01*
X263359523Y27264285D02*
X263359523Y26597619D01*
X263597619Y27645238D02*
X263835714Y26930952D01*
X263216666Y26930952D01*
X262407142Y27597619D02*
X262597619Y27597619D01*
X262692857Y27550000D01*
X262740476Y27502380D01*
X262835714Y27359523D01*
X262883333Y27169047D01*
X262883333Y26788095D01*
X262835714Y26692857D01*
X262788095Y26645238D01*
X262692857Y26597619D01*
X262502380Y26597619D01*
X262407142Y26645238D01*
X262359523Y26692857D01*
X262311904Y26788095D01*
X262311904Y27026190D01*
X262359523Y27121428D01*
X262407142Y27169047D01*
X262502380Y27216666D01*
X262692857Y27216666D01*
X262788095Y27169047D01*
X262835714Y27121428D01*
X262883333Y27026190D01*
X264833333Y34797619D02*
X265166666Y35273809D01*
X265404761Y34797619D02*
X265404761Y35797619D01*
X265023809Y35797619D01*
X264928571Y35750000D01*
X264880952Y35702380D01*
X264833333Y35607142D01*
X264833333Y35464285D01*
X264880952Y35369047D01*
X264928571Y35321428D01*
X265023809Y35273809D01*
X265404761Y35273809D01*
X264404761Y34797619D02*
X264404761Y35797619D01*
X263404761Y35750000D02*
X263500000Y35797619D01*
X263642857Y35797619D01*
X263785714Y35750000D01*
X263880952Y35654761D01*
X263928571Y35559523D01*
X263976190Y35369047D01*
X263976190Y35226190D01*
X263928571Y35035714D01*
X263880952Y34940476D01*
X263785714Y34845238D01*
X263642857Y34797619D01*
X263547619Y34797619D01*
X263404761Y34845238D01*
X263357142Y34892857D01*
X263357142Y35226190D01*
X263547619Y35226190D01*
X262928571Y34797619D02*
X262928571Y35797619D01*
X262928571Y35321428D02*
X262357142Y35321428D01*
X262357142Y34797619D02*
X262357142Y35797619D01*
X262023809Y35797619D02*
X261452380Y35797619D01*
X261738095Y34797619D02*
X261738095Y35797619D01*
X107788095Y64645238D02*
X107645238Y64597619D01*
X107407142Y64597619D01*
X107311904Y64645238D01*
X107264285Y64692857D01*
X107216666Y64788095D01*
X107216666Y64883333D01*
X107264285Y64978571D01*
X107311904Y65026190D01*
X107407142Y65073809D01*
X107597619Y65121428D01*
X107692857Y65169047D01*
X107740476Y65216666D01*
X107788095Y65311904D01*
X107788095Y65407142D01*
X107740476Y65502380D01*
X107692857Y65550000D01*
X107597619Y65597619D01*
X107359523Y65597619D01*
X107216666Y65550000D01*
X106359523Y65264285D02*
X106359523Y64597619D01*
X106597619Y65645238D02*
X106835714Y64930952D01*
X106216666Y64930952D01*
X105359523Y65597619D02*
X105835714Y65597619D01*
X105883333Y65121428D01*
X105835714Y65169047D01*
X105740476Y65216666D01*
X105502380Y65216666D01*
X105407142Y65169047D01*
X105359523Y65121428D01*
X105311904Y65026190D01*
X105311904Y64788095D01*
X105359523Y64692857D01*
X105407142Y64645238D01*
X105502380Y64597619D01*
X105740476Y64597619D01*
X105835714Y64645238D01*
X105883333Y64692857D01*
X106833333Y73797619D02*
X106500000Y72797619D01*
X106166666Y73797619D01*
X145788095Y64645238D02*
X145645238Y64597619D01*
X145407142Y64597619D01*
X145311904Y64645238D01*
X145264285Y64692857D01*
X145216666Y64788095D01*
X145216666Y64883333D01*
X145264285Y64978571D01*
X145311904Y65026190D01*
X145407142Y65073809D01*
X145597619Y65121428D01*
X145692857Y65169047D01*
X145740476Y65216666D01*
X145788095Y65311904D01*
X145788095Y65407142D01*
X145740476Y65502380D01*
X145692857Y65550000D01*
X145597619Y65597619D01*
X145359523Y65597619D01*
X145216666Y65550000D01*
X144359523Y65264285D02*
X144359523Y64597619D01*
X144597619Y65645238D02*
X144835714Y64930952D01*
X144216666Y64930952D01*
X143407142Y65264285D02*
X143407142Y64597619D01*
X143645238Y65645238D02*
X143883333Y64930952D01*
X143264285Y64930952D01*
X144785714Y72797619D02*
X144785714Y73797619D01*
X144214285Y72797619D01*
X144214285Y73797619D01*
X98288095Y45645238D02*
X98145238Y45597619D01*
X97907142Y45597619D01*
X97811904Y45645238D01*
X97764285Y45692857D01*
X97716666Y45788095D01*
X97716666Y45883333D01*
X97764285Y45978571D01*
X97811904Y46026190D01*
X97907142Y46073809D01*
X98097619Y46121428D01*
X98192857Y46169047D01*
X98240476Y46216666D01*
X98288095Y46311904D01*
X98288095Y46407142D01*
X98240476Y46502380D01*
X98192857Y46550000D01*
X98097619Y46597619D01*
X97859523Y46597619D01*
X97716666Y46550000D01*
X96859523Y46264285D02*
X96859523Y45597619D01*
X97097619Y46645238D02*
X97335714Y45930952D01*
X96716666Y45930952D01*
X96430952Y46597619D02*
X95811904Y46597619D01*
X96145238Y46216666D01*
X96002380Y46216666D01*
X95907142Y46169047D01*
X95859523Y46121428D01*
X95811904Y46026190D01*
X95811904Y45788095D01*
X95859523Y45692857D01*
X95907142Y45645238D01*
X96002380Y45597619D01*
X96288095Y45597619D01*
X96383333Y45645238D01*
X96430952Y45692857D01*
X96857142Y54321428D02*
X97190476Y54321428D01*
X97190476Y53797619D02*
X97190476Y54797619D01*
X96714285Y54797619D01*
X236288095Y7645238D02*
X236145238Y7597619D01*
X235907142Y7597619D01*
X235811904Y7645238D01*
X235764285Y7692857D01*
X235716666Y7788095D01*
X235716666Y7883333D01*
X235764285Y7978571D01*
X235811904Y8026190D01*
X235907142Y8073809D01*
X236097619Y8121428D01*
X236192857Y8169047D01*
X236240476Y8216666D01*
X236288095Y8311904D01*
X236288095Y8407142D01*
X236240476Y8502380D01*
X236192857Y8550000D01*
X236097619Y8597619D01*
X235859523Y8597619D01*
X235716666Y8550000D01*
X234859523Y8264285D02*
X234859523Y7597619D01*
X235097619Y8645238D02*
X235335714Y7930952D01*
X234716666Y7930952D01*
X233811904Y7597619D02*
X234383333Y7597619D01*
X234097619Y7597619D02*
X234097619Y8597619D01*
X234192857Y8454761D01*
X234288095Y8359523D01*
X234383333Y8311904D01*
X237095238Y15797619D02*
X237095238Y16797619D01*
X236761904Y16083333D01*
X236428571Y16797619D01*
X236428571Y15797619D01*
X235952380Y15797619D02*
X235952380Y16797619D01*
X235476190Y15797619D02*
X235476190Y16797619D01*
X234904761Y15797619D01*
X234904761Y16797619D01*
X234428571Y16797619D02*
X234428571Y15988095D01*
X234380952Y15892857D01*
X234333333Y15845238D01*
X234238095Y15797619D01*
X234047619Y15797619D01*
X233952380Y15845238D01*
X233904761Y15892857D01*
X233857142Y15988095D01*
X233857142Y16797619D01*
X233428571Y15845238D02*
X233285714Y15797619D01*
X233047619Y15797619D01*
X232952380Y15845238D01*
X232904761Y15892857D01*
X232857142Y15988095D01*
X232857142Y16083333D01*
X232904761Y16178571D01*
X232952380Y16226190D01*
X233047619Y16273809D01*
X233238095Y16321428D01*
X233333333Y16369047D01*
X233380952Y16416666D01*
X233428571Y16511904D01*
X233428571Y16607142D01*
X233380952Y16702380D01*
X233333333Y16750000D01*
X233238095Y16797619D01*
X233000000Y16797619D01*
X232857142Y16750000D01*
X103288095Y7645238D02*
X103145238Y7597619D01*
X102907142Y7597619D01*
X102811904Y7645238D01*
X102764285Y7692857D01*
X102716666Y7788095D01*
X102716666Y7883333D01*
X102764285Y7978571D01*
X102811904Y8026190D01*
X102907142Y8073809D01*
X103097619Y8121428D01*
X103192857Y8169047D01*
X103240476Y8216666D01*
X103288095Y8311904D01*
X103288095Y8407142D01*
X103240476Y8502380D01*
X103192857Y8550000D01*
X103097619Y8597619D01*
X102859523Y8597619D01*
X102716666Y8550000D01*
X101859523Y8264285D02*
X101859523Y7597619D01*
X102097619Y8645238D02*
X102335714Y7930952D01*
X101716666Y7930952D01*
X101145238Y8597619D02*
X101050000Y8597619D01*
X100954761Y8550000D01*
X100907142Y8502380D01*
X100859523Y8407142D01*
X100811904Y8216666D01*
X100811904Y7978571D01*
X100859523Y7788095D01*
X100907142Y7692857D01*
X100954761Y7645238D01*
X101050000Y7597619D01*
X101145238Y7597619D01*
X101240476Y7645238D01*
X101288095Y7692857D01*
X101335714Y7788095D01*
X101383333Y7978571D01*
X101383333Y8216666D01*
X101335714Y8407142D01*
X101288095Y8502380D01*
X101240476Y8550000D01*
X101145238Y8597619D01*
X101761904Y16797619D02*
X102238095Y16797619D01*
X102285714Y16321428D01*
X102238095Y16369047D01*
X102142857Y16416666D01*
X101904761Y16416666D01*
X101809523Y16369047D01*
X101761904Y16321428D01*
X101714285Y16226190D01*
X101714285Y15988095D01*
X101761904Y15892857D01*
X101809523Y15845238D01*
X101904761Y15797619D01*
X102142857Y15797619D01*
X102238095Y15845238D01*
X102285714Y15892857D01*
X245788095Y26645238D02*
X245645238Y26597619D01*
X245407142Y26597619D01*
X245311904Y26645238D01*
X245264285Y26692857D01*
X245216666Y26788095D01*
X245216666Y26883333D01*
X245264285Y26978571D01*
X245311904Y27026190D01*
X245407142Y27073809D01*
X245597619Y27121428D01*
X245692857Y27169047D01*
X245740476Y27216666D01*
X245788095Y27311904D01*
X245788095Y27407142D01*
X245740476Y27502380D01*
X245692857Y27550000D01*
X245597619Y27597619D01*
X245359523Y27597619D01*
X245216666Y27550000D01*
X244883333Y27597619D02*
X244264285Y27597619D01*
X244597619Y27216666D01*
X244454761Y27216666D01*
X244359523Y27169047D01*
X244311904Y27121428D01*
X244264285Y27026190D01*
X244264285Y26788095D01*
X244311904Y26692857D01*
X244359523Y26645238D01*
X244454761Y26597619D01*
X244740476Y26597619D01*
X244835714Y26645238D01*
X244883333Y26692857D01*
X243788095Y26597619D02*
X243597619Y26597619D01*
X243502380Y26645238D01*
X243454761Y26692857D01*
X243359523Y26835714D01*
X243311904Y27026190D01*
X243311904Y27407142D01*
X243359523Y27502380D01*
X243407142Y27550000D01*
X243502380Y27597619D01*
X243692857Y27597619D01*
X243788095Y27550000D01*
X243835714Y27502380D01*
X243883333Y27407142D01*
X243883333Y27169047D01*
X243835714Y27073809D01*
X243788095Y27026190D01*
X243692857Y26978571D01*
X243502380Y26978571D01*
X243407142Y27026190D01*
X243359523Y27073809D01*
X243311904Y27169047D01*
X245452380Y34797619D02*
X245928571Y34797619D01*
X245928571Y35797619D01*
X245119047Y35321428D02*
X244785714Y35321428D01*
X244642857Y34797619D02*
X245119047Y34797619D01*
X245119047Y35797619D01*
X244642857Y35797619D01*
X243880952Y35321428D02*
X244214285Y35321428D01*
X244214285Y34797619D02*
X244214285Y35797619D01*
X243738095Y35797619D01*
X243500000Y35797619D02*
X242928571Y35797619D01*
X243214285Y34797619D02*
X243214285Y35797619D01*
X150788095Y26645238D02*
X150645238Y26597619D01*
X150407142Y26597619D01*
X150311904Y26645238D01*
X150264285Y26692857D01*
X150216666Y26788095D01*
X150216666Y26883333D01*
X150264285Y26978571D01*
X150311904Y27026190D01*
X150407142Y27073809D01*
X150597619Y27121428D01*
X150692857Y27169047D01*
X150740476Y27216666D01*
X150788095Y27311904D01*
X150788095Y27407142D01*
X150740476Y27502380D01*
X150692857Y27550000D01*
X150597619Y27597619D01*
X150359523Y27597619D01*
X150216666Y27550000D01*
X149883333Y27597619D02*
X149264285Y27597619D01*
X149597619Y27216666D01*
X149454761Y27216666D01*
X149359523Y27169047D01*
X149311904Y27121428D01*
X149264285Y27026190D01*
X149264285Y26788095D01*
X149311904Y26692857D01*
X149359523Y26645238D01*
X149454761Y26597619D01*
X149740476Y26597619D01*
X149835714Y26645238D01*
X149883333Y26692857D01*
X148692857Y27169047D02*
X148788095Y27216666D01*
X148835714Y27264285D01*
X148883333Y27359523D01*
X148883333Y27407142D01*
X148835714Y27502380D01*
X148788095Y27550000D01*
X148692857Y27597619D01*
X148502380Y27597619D01*
X148407142Y27550000D01*
X148359523Y27502380D01*
X148311904Y27407142D01*
X148311904Y27359523D01*
X148359523Y27264285D01*
X148407142Y27216666D01*
X148502380Y27169047D01*
X148692857Y27169047D01*
X148788095Y27121428D01*
X148835714Y27073809D01*
X148883333Y26978571D01*
X148883333Y26788095D01*
X148835714Y26692857D01*
X148788095Y26645238D01*
X148692857Y26597619D01*
X148502380Y26597619D01*
X148407142Y26645238D01*
X148359523Y26692857D01*
X148311904Y26788095D01*
X148311904Y26978571D01*
X148359523Y27073809D01*
X148407142Y27121428D01*
X148502380Y27169047D01*
X149785714Y35797619D02*
X149785714Y34988095D01*
X149738095Y34892857D01*
X149690476Y34845238D01*
X149595238Y34797619D01*
X149404761Y34797619D01*
X149309523Y34845238D01*
X149261904Y34892857D01*
X149214285Y34988095D01*
X149214285Y35797619D01*
X164788095Y64645238D02*
X164645238Y64597619D01*
X164407142Y64597619D01*
X164311904Y64645238D01*
X164264285Y64692857D01*
X164216666Y64788095D01*
X164216666Y64883333D01*
X164264285Y64978571D01*
X164311904Y65026190D01*
X164407142Y65073809D01*
X164597619Y65121428D01*
X164692857Y65169047D01*
X164740476Y65216666D01*
X164788095Y65311904D01*
X164788095Y65407142D01*
X164740476Y65502380D01*
X164692857Y65550000D01*
X164597619Y65597619D01*
X164359523Y65597619D01*
X164216666Y65550000D01*
X163883333Y65597619D02*
X163264285Y65597619D01*
X163597619Y65216666D01*
X163454761Y65216666D01*
X163359523Y65169047D01*
X163311904Y65121428D01*
X163264285Y65026190D01*
X163264285Y64788095D01*
X163311904Y64692857D01*
X163359523Y64645238D01*
X163454761Y64597619D01*
X163740476Y64597619D01*
X163835714Y64645238D01*
X163883333Y64692857D01*
X162930952Y65597619D02*
X162264285Y65597619D01*
X162692857Y64597619D01*
X163833333Y72797619D02*
X163833333Y73797619D01*
X163500000Y73083333D01*
X163166666Y73797619D01*
X163166666Y72797619D01*
X74788095Y26645238D02*
X74645238Y26597619D01*
X74407142Y26597619D01*
X74311904Y26645238D01*
X74264285Y26692857D01*
X74216666Y26788095D01*
X74216666Y26883333D01*
X74264285Y26978571D01*
X74311904Y27026190D01*
X74407142Y27073809D01*
X74597619Y27121428D01*
X74692857Y27169047D01*
X74740476Y27216666D01*
X74788095Y27311904D01*
X74788095Y27407142D01*
X74740476Y27502380D01*
X74692857Y27550000D01*
X74597619Y27597619D01*
X74359523Y27597619D01*
X74216666Y27550000D01*
X73883333Y27597619D02*
X73264285Y27597619D01*
X73597619Y27216666D01*
X73454761Y27216666D01*
X73359523Y27169047D01*
X73311904Y27121428D01*
X73264285Y27026190D01*
X73264285Y26788095D01*
X73311904Y26692857D01*
X73359523Y26645238D01*
X73454761Y26597619D01*
X73740476Y26597619D01*
X73835714Y26645238D01*
X73883333Y26692857D01*
X72407142Y27597619D02*
X72597619Y27597619D01*
X72692857Y27550000D01*
X72740476Y27502380D01*
X72835714Y27359523D01*
X72883333Y27169047D01*
X72883333Y26788095D01*
X72835714Y26692857D01*
X72788095Y26645238D01*
X72692857Y26597619D01*
X72502380Y26597619D01*
X72407142Y26645238D01*
X72359523Y26692857D01*
X72311904Y26788095D01*
X72311904Y27026190D01*
X72359523Y27121428D01*
X72407142Y27169047D01*
X72502380Y27216666D01*
X72692857Y27216666D01*
X72788095Y27169047D01*
X72835714Y27121428D01*
X72883333Y27026190D01*
X73714285Y35321428D02*
X73380952Y35321428D01*
X73238095Y34797619D02*
X73714285Y34797619D01*
X73714285Y35797619D01*
X73238095Y35797619D01*
X183788095Y64645238D02*
X183645238Y64597619D01*
X183407142Y64597619D01*
X183311904Y64645238D01*
X183264285Y64692857D01*
X183216666Y64788095D01*
X183216666Y64883333D01*
X183264285Y64978571D01*
X183311904Y65026190D01*
X183407142Y65073809D01*
X183597619Y65121428D01*
X183692857Y65169047D01*
X183740476Y65216666D01*
X183788095Y65311904D01*
X183788095Y65407142D01*
X183740476Y65502380D01*
X183692857Y65550000D01*
X183597619Y65597619D01*
X183359523Y65597619D01*
X183216666Y65550000D01*
X182883333Y65597619D02*
X182264285Y65597619D01*
X182597619Y65216666D01*
X182454761Y65216666D01*
X182359523Y65169047D01*
X182311904Y65121428D01*
X182264285Y65026190D01*
X182264285Y64788095D01*
X182311904Y64692857D01*
X182359523Y64645238D01*
X182454761Y64597619D01*
X182740476Y64597619D01*
X182835714Y64645238D01*
X182883333Y64692857D01*
X181407142Y65264285D02*
X181407142Y64597619D01*
X181645238Y65645238D02*
X181883333Y64930952D01*
X181264285Y64930952D01*
X184285714Y72892857D02*
X184333333Y72845238D01*
X184476190Y72797619D01*
X184571428Y72797619D01*
X184714285Y72845238D01*
X184809523Y72940476D01*
X184857142Y73035714D01*
X184904761Y73226190D01*
X184904761Y73369047D01*
X184857142Y73559523D01*
X184809523Y73654761D01*
X184714285Y73750000D01*
X184571428Y73797619D01*
X184476190Y73797619D01*
X184333333Y73750000D01*
X184285714Y73702380D01*
X183666666Y73797619D02*
X183476190Y73797619D01*
X183380952Y73750000D01*
X183285714Y73654761D01*
X183238095Y73464285D01*
X183238095Y73130952D01*
X183285714Y72940476D01*
X183380952Y72845238D01*
X183476190Y72797619D01*
X183666666Y72797619D01*
X183761904Y72845238D01*
X183857142Y72940476D01*
X183904761Y73130952D01*
X183904761Y73464285D01*
X183857142Y73654761D01*
X183761904Y73750000D01*
X183666666Y73797619D01*
X182809523Y72797619D02*
X182809523Y73797619D01*
X182476190Y73083333D01*
X182142857Y73797619D01*
X182142857Y72797619D01*
X181666666Y72797619D02*
X181666666Y73797619D01*
X181333333Y73083333D01*
X181000000Y73797619D01*
X181000000Y72797619D01*
X180571428Y73083333D02*
X180095238Y73083333D01*
X180666666Y72797619D02*
X180333333Y73797619D01*
X180000000Y72797619D01*
X84288095Y7645238D02*
X84145238Y7597619D01*
X83907142Y7597619D01*
X83811904Y7645238D01*
X83764285Y7692857D01*
X83716666Y7788095D01*
X83716666Y7883333D01*
X83764285Y7978571D01*
X83811904Y8026190D01*
X83907142Y8073809D01*
X84097619Y8121428D01*
X84192857Y8169047D01*
X84240476Y8216666D01*
X84288095Y8311904D01*
X84288095Y8407142D01*
X84240476Y8502380D01*
X84192857Y8550000D01*
X84097619Y8597619D01*
X83859523Y8597619D01*
X83716666Y8550000D01*
X83383333Y8597619D02*
X82764285Y8597619D01*
X83097619Y8216666D01*
X82954761Y8216666D01*
X82859523Y8169047D01*
X82811904Y8121428D01*
X82764285Y8026190D01*
X82764285Y7788095D01*
X82811904Y7692857D01*
X82859523Y7645238D01*
X82954761Y7597619D01*
X83240476Y7597619D01*
X83335714Y7645238D01*
X83383333Y7692857D01*
X82430952Y8597619D02*
X81811904Y8597619D01*
X82145238Y8216666D01*
X82002380Y8216666D01*
X81907142Y8169047D01*
X81859523Y8121428D01*
X81811904Y8026190D01*
X81811904Y7788095D01*
X81859523Y7692857D01*
X81907142Y7645238D01*
X82002380Y7597619D01*
X82288095Y7597619D01*
X82383333Y7645238D01*
X82430952Y7692857D01*
X82809523Y16464285D02*
X82809523Y15797619D01*
X83047619Y16845238D02*
X83285714Y16130952D01*
X82666666Y16130952D01*
X22288095Y45645238D02*
X22145238Y45597619D01*
X21907142Y45597619D01*
X21811904Y45645238D01*
X21764285Y45692857D01*
X21716666Y45788095D01*
X21716666Y45883333D01*
X21764285Y45978571D01*
X21811904Y46026190D01*
X21907142Y46073809D01*
X22097619Y46121428D01*
X22192857Y46169047D01*
X22240476Y46216666D01*
X22288095Y46311904D01*
X22288095Y46407142D01*
X22240476Y46502380D01*
X22192857Y46550000D01*
X22097619Y46597619D01*
X21859523Y46597619D01*
X21716666Y46550000D01*
X21383333Y46597619D02*
X20764285Y46597619D01*
X21097619Y46216666D01*
X20954761Y46216666D01*
X20859523Y46169047D01*
X20811904Y46121428D01*
X20764285Y46026190D01*
X20764285Y45788095D01*
X20811904Y45692857D01*
X20859523Y45645238D01*
X20954761Y45597619D01*
X21240476Y45597619D01*
X21335714Y45645238D01*
X21383333Y45692857D01*
X20383333Y46502380D02*
X20335714Y46550000D01*
X20240476Y46597619D01*
X20002380Y46597619D01*
X19907142Y46550000D01*
X19859523Y46502380D01*
X19811904Y46407142D01*
X19811904Y46311904D01*
X19859523Y46169047D01*
X20430952Y45597619D01*
X19811904Y45597619D01*
X22880952Y53797619D02*
X22880952Y54797619D01*
X22642857Y54797619D01*
X22500000Y54750000D01*
X22404761Y54654761D01*
X22357142Y54559523D01*
X22309523Y54369047D01*
X22309523Y54226190D01*
X22357142Y54035714D01*
X22404761Y53940476D01*
X22500000Y53845238D01*
X22642857Y53797619D01*
X22880952Y53797619D01*
X21690476Y54797619D02*
X21500000Y54797619D01*
X21404761Y54750000D01*
X21309523Y54654761D01*
X21261904Y54464285D01*
X21261904Y54130952D01*
X21309523Y53940476D01*
X21404761Y53845238D01*
X21500000Y53797619D01*
X21690476Y53797619D01*
X21785714Y53845238D01*
X21880952Y53940476D01*
X21928571Y54130952D01*
X21928571Y54464285D01*
X21880952Y54654761D01*
X21785714Y54750000D01*
X21690476Y54797619D01*
X20928571Y54797619D02*
X20690476Y53797619D01*
X20500000Y54511904D01*
X20309523Y53797619D01*
X20071428Y54797619D01*
X19690476Y53797619D02*
X19690476Y54797619D01*
X19119047Y53797619D01*
X19119047Y54797619D01*
X112788095Y26645238D02*
X112645238Y26597619D01*
X112407142Y26597619D01*
X112311904Y26645238D01*
X112264285Y26692857D01*
X112216666Y26788095D01*
X112216666Y26883333D01*
X112264285Y26978571D01*
X112311904Y27026190D01*
X112407142Y27073809D01*
X112597619Y27121428D01*
X112692857Y27169047D01*
X112740476Y27216666D01*
X112788095Y27311904D01*
X112788095Y27407142D01*
X112740476Y27502380D01*
X112692857Y27550000D01*
X112597619Y27597619D01*
X112359523Y27597619D01*
X112216666Y27550000D01*
X111883333Y27597619D02*
X111264285Y27597619D01*
X111597619Y27216666D01*
X111454761Y27216666D01*
X111359523Y27169047D01*
X111311904Y27121428D01*
X111264285Y27026190D01*
X111264285Y26788095D01*
X111311904Y26692857D01*
X111359523Y26645238D01*
X111454761Y26597619D01*
X111740476Y26597619D01*
X111835714Y26645238D01*
X111883333Y26692857D01*
X110311904Y26597619D02*
X110883333Y26597619D01*
X110597619Y26597619D02*
X110597619Y27597619D01*
X110692857Y27454761D01*
X110788095Y27359523D01*
X110883333Y27311904D01*
X111785714Y35797619D02*
X111214285Y35797619D01*
X111500000Y34797619D02*
X111500000Y35797619D01*
X193288095Y45645238D02*
X193145238Y45597619D01*
X192907142Y45597619D01*
X192811904Y45645238D01*
X192764285Y45692857D01*
X192716666Y45788095D01*
X192716666Y45883333D01*
X192764285Y45978571D01*
X192811904Y46026190D01*
X192907142Y46073809D01*
X193097619Y46121428D01*
X193192857Y46169047D01*
X193240476Y46216666D01*
X193288095Y46311904D01*
X193288095Y46407142D01*
X193240476Y46502380D01*
X193192857Y46550000D01*
X193097619Y46597619D01*
X192859523Y46597619D01*
X192716666Y46550000D01*
X192383333Y46597619D02*
X191764285Y46597619D01*
X192097619Y46216666D01*
X191954761Y46216666D01*
X191859523Y46169047D01*
X191811904Y46121428D01*
X191764285Y46026190D01*
X191764285Y45788095D01*
X191811904Y45692857D01*
X191859523Y45645238D01*
X191954761Y45597619D01*
X192240476Y45597619D01*
X192335714Y45645238D01*
X192383333Y45692857D01*
X191145238Y46597619D02*
X191050000Y46597619D01*
X190954761Y46550000D01*
X190907142Y46502380D01*
X190859523Y46407142D01*
X190811904Y46216666D01*
X190811904Y45978571D01*
X190859523Y45788095D01*
X190907142Y45692857D01*
X190954761Y45645238D01*
X191050000Y45597619D01*
X191145238Y45597619D01*
X191240476Y45645238D01*
X191288095Y45692857D01*
X191335714Y45788095D01*
X191383333Y45978571D01*
X191383333Y46216666D01*
X191335714Y46407142D01*
X191288095Y46502380D01*
X191240476Y46550000D01*
X191145238Y46597619D01*
X191690476Y53797619D02*
X192166666Y53797619D01*
X192166666Y54797619D01*
X79288095Y45645238D02*
X79145238Y45597619D01*
X78907142Y45597619D01*
X78811904Y45645238D01*
X78764285Y45692857D01*
X78716666Y45788095D01*
X78716666Y45883333D01*
X78764285Y45978571D01*
X78811904Y46026190D01*
X78907142Y46073809D01*
X79097619Y46121428D01*
X79192857Y46169047D01*
X79240476Y46216666D01*
X79288095Y46311904D01*
X79288095Y46407142D01*
X79240476Y46502380D01*
X79192857Y46550000D01*
X79097619Y46597619D01*
X78859523Y46597619D01*
X78716666Y46550000D01*
X78335714Y46502380D02*
X78288095Y46550000D01*
X78192857Y46597619D01*
X77954761Y46597619D01*
X77859523Y46550000D01*
X77811904Y46502380D01*
X77764285Y46407142D01*
X77764285Y46311904D01*
X77811904Y46169047D01*
X78383333Y45597619D01*
X77764285Y45597619D01*
X77288095Y45597619D02*
X77097619Y45597619D01*
X77002380Y45645238D01*
X76954761Y45692857D01*
X76859523Y45835714D01*
X76811904Y46026190D01*
X76811904Y46407142D01*
X76859523Y46502380D01*
X76907142Y46550000D01*
X77002380Y46597619D01*
X77192857Y46597619D01*
X77288095Y46550000D01*
X77335714Y46502380D01*
X77383333Y46407142D01*
X77383333Y46169047D01*
X77335714Y46073809D01*
X77288095Y46026190D01*
X77192857Y45978571D01*
X77002380Y45978571D01*
X76907142Y46026190D01*
X76859523Y46073809D01*
X76811904Y46169047D01*
X78261904Y53797619D02*
X78261904Y54797619D01*
X78023809Y54797619D01*
X77880952Y54750000D01*
X77785714Y54654761D01*
X77738095Y54559523D01*
X77690476Y54369047D01*
X77690476Y54226190D01*
X77738095Y54035714D01*
X77785714Y53940476D01*
X77880952Y53845238D01*
X78023809Y53797619D01*
X78261904Y53797619D01*
X212288095Y45645238D02*
X212145238Y45597619D01*
X211907142Y45597619D01*
X211811904Y45645238D01*
X211764285Y45692857D01*
X211716666Y45788095D01*
X211716666Y45883333D01*
X211764285Y45978571D01*
X211811904Y46026190D01*
X211907142Y46073809D01*
X212097619Y46121428D01*
X212192857Y46169047D01*
X212240476Y46216666D01*
X212288095Y46311904D01*
X212288095Y46407142D01*
X212240476Y46502380D01*
X212192857Y46550000D01*
X212097619Y46597619D01*
X211859523Y46597619D01*
X211716666Y46550000D01*
X211335714Y46502380D02*
X211288095Y46550000D01*
X211192857Y46597619D01*
X210954761Y46597619D01*
X210859523Y46550000D01*
X210811904Y46502380D01*
X210764285Y46407142D01*
X210764285Y46311904D01*
X210811904Y46169047D01*
X211383333Y45597619D01*
X210764285Y45597619D01*
X210430952Y46597619D02*
X209764285Y46597619D01*
X210192857Y45597619D01*
X215023809Y53845238D02*
X214880952Y53797619D01*
X214642857Y53797619D01*
X214547619Y53845238D01*
X214500000Y53892857D01*
X214452380Y53988095D01*
X214452380Y54083333D01*
X214500000Y54178571D01*
X214547619Y54226190D01*
X214642857Y54273809D01*
X214833333Y54321428D01*
X214928571Y54369047D01*
X214976190Y54416666D01*
X215023809Y54511904D01*
X215023809Y54607142D01*
X214976190Y54702380D01*
X214928571Y54750000D01*
X214833333Y54797619D01*
X214595238Y54797619D01*
X214452380Y54750000D01*
X214023809Y54321428D02*
X213690476Y54321428D01*
X213547619Y53797619D02*
X214023809Y53797619D01*
X214023809Y54797619D01*
X213547619Y54797619D01*
X213119047Y53797619D02*
X213119047Y54797619D01*
X212785714Y54083333D01*
X212452380Y54797619D01*
X212452380Y53797619D01*
X211976190Y53797619D02*
X211976190Y54797619D01*
X210928571Y53892857D02*
X210976190Y53845238D01*
X211119047Y53797619D01*
X211214285Y53797619D01*
X211357142Y53845238D01*
X211452380Y53940476D01*
X211500000Y54035714D01*
X211547619Y54226190D01*
X211547619Y54369047D01*
X211500000Y54559523D01*
X211452380Y54654761D01*
X211357142Y54750000D01*
X211214285Y54797619D01*
X211119047Y54797619D01*
X210976190Y54750000D01*
X210928571Y54702380D01*
X210309523Y54797619D02*
X210119047Y54797619D01*
X210023809Y54750000D01*
X209928571Y54654761D01*
X209880952Y54464285D01*
X209880952Y54130952D01*
X209928571Y53940476D01*
X210023809Y53845238D01*
X210119047Y53797619D01*
X210309523Y53797619D01*
X210404761Y53845238D01*
X210500000Y53940476D01*
X210547619Y54130952D01*
X210547619Y54464285D01*
X210500000Y54654761D01*
X210404761Y54750000D01*
X210309523Y54797619D01*
X208976190Y53797619D02*
X209452380Y53797619D01*
X209452380Y54797619D01*
X208452380Y54797619D02*
X208261904Y54797619D01*
X208166666Y54750000D01*
X208071428Y54654761D01*
X208023809Y54464285D01*
X208023809Y54130952D01*
X208071428Y53940476D01*
X208166666Y53845238D01*
X208261904Y53797619D01*
X208452380Y53797619D01*
X208547619Y53845238D01*
X208642857Y53940476D01*
X208690476Y54130952D01*
X208690476Y54464285D01*
X208642857Y54654761D01*
X208547619Y54750000D01*
X208452380Y54797619D01*
X207595238Y53797619D02*
X207595238Y54797619D01*
X207023809Y53797619D01*
X207023809Y54797619D01*
X65288095Y7645238D02*
X65145238Y7597619D01*
X64907142Y7597619D01*
X64811904Y7645238D01*
X64764285Y7692857D01*
X64716666Y7788095D01*
X64716666Y7883333D01*
X64764285Y7978571D01*
X64811904Y8026190D01*
X64907142Y8073809D01*
X65097619Y8121428D01*
X65192857Y8169047D01*
X65240476Y8216666D01*
X65288095Y8311904D01*
X65288095Y8407142D01*
X65240476Y8502380D01*
X65192857Y8550000D01*
X65097619Y8597619D01*
X64859523Y8597619D01*
X64716666Y8550000D01*
X64335714Y8502380D02*
X64288095Y8550000D01*
X64192857Y8597619D01*
X63954761Y8597619D01*
X63859523Y8550000D01*
X63811904Y8502380D01*
X63764285Y8407142D01*
X63764285Y8311904D01*
X63811904Y8169047D01*
X64383333Y7597619D01*
X63764285Y7597619D01*
X62907142Y8597619D02*
X63097619Y8597619D01*
X63192857Y8550000D01*
X63240476Y8502380D01*
X63335714Y8359523D01*
X63383333Y8169047D01*
X63383333Y7788095D01*
X63335714Y7692857D01*
X63288095Y7645238D01*
X63192857Y7597619D01*
X63002380Y7597619D01*
X62907142Y7645238D01*
X62859523Y7692857D01*
X62811904Y7788095D01*
X62811904Y8026190D01*
X62859523Y8121428D01*
X62907142Y8169047D01*
X63002380Y8216666D01*
X63192857Y8216666D01*
X63288095Y8169047D01*
X63335714Y8121428D01*
X63383333Y8026190D01*
X64333333Y16797619D02*
X63714285Y16797619D01*
X64047619Y16416666D01*
X63904761Y16416666D01*
X63809523Y16369047D01*
X63761904Y16321428D01*
X63714285Y16226190D01*
X63714285Y15988095D01*
X63761904Y15892857D01*
X63809523Y15845238D01*
X63904761Y15797619D01*
X64190476Y15797619D01*
X64285714Y15845238D01*
X64333333Y15892857D01*
X17788095Y26645238D02*
X17645238Y26597619D01*
X17407142Y26597619D01*
X17311904Y26645238D01*
X17264285Y26692857D01*
X17216666Y26788095D01*
X17216666Y26883333D01*
X17264285Y26978571D01*
X17311904Y27026190D01*
X17407142Y27073809D01*
X17597619Y27121428D01*
X17692857Y27169047D01*
X17740476Y27216666D01*
X17788095Y27311904D01*
X17788095Y27407142D01*
X17740476Y27502380D01*
X17692857Y27550000D01*
X17597619Y27597619D01*
X17359523Y27597619D01*
X17216666Y27550000D01*
X16835714Y27502380D02*
X16788095Y27550000D01*
X16692857Y27597619D01*
X16454761Y27597619D01*
X16359523Y27550000D01*
X16311904Y27502380D01*
X16264285Y27407142D01*
X16264285Y27311904D01*
X16311904Y27169047D01*
X16883333Y26597619D01*
X16264285Y26597619D01*
X15359523Y27597619D02*
X15835714Y27597619D01*
X15883333Y27121428D01*
X15835714Y27169047D01*
X15740476Y27216666D01*
X15502380Y27216666D01*
X15407142Y27169047D01*
X15359523Y27121428D01*
X15311904Y27026190D01*
X15311904Y26788095D01*
X15359523Y26692857D01*
X15407142Y26645238D01*
X15502380Y26597619D01*
X15740476Y26597619D01*
X15835714Y26645238D01*
X15883333Y26692857D01*
X17285714Y35797619D02*
X17285714Y34988095D01*
X17238095Y34892857D01*
X17190476Y34845238D01*
X17095238Y34797619D01*
X16904761Y34797619D01*
X16809523Y34845238D01*
X16761904Y34892857D01*
X16714285Y34988095D01*
X16714285Y35797619D01*
X16238095Y34797619D02*
X16238095Y35797619D01*
X15857142Y35797619D01*
X15761904Y35750000D01*
X15714285Y35702380D01*
X15666666Y35607142D01*
X15666666Y35464285D01*
X15714285Y35369047D01*
X15761904Y35321428D01*
X15857142Y35273809D01*
X16238095Y35273809D01*
X60288095Y45645238D02*
X60145238Y45597619D01*
X59907142Y45597619D01*
X59811904Y45645238D01*
X59764285Y45692857D01*
X59716666Y45788095D01*
X59716666Y45883333D01*
X59764285Y45978571D01*
X59811904Y46026190D01*
X59907142Y46073809D01*
X60097619Y46121428D01*
X60192857Y46169047D01*
X60240476Y46216666D01*
X60288095Y46311904D01*
X60288095Y46407142D01*
X60240476Y46502380D01*
X60192857Y46550000D01*
X60097619Y46597619D01*
X59859523Y46597619D01*
X59716666Y46550000D01*
X59335714Y46502380D02*
X59288095Y46550000D01*
X59192857Y46597619D01*
X58954761Y46597619D01*
X58859523Y46550000D01*
X58811904Y46502380D01*
X58764285Y46407142D01*
X58764285Y46311904D01*
X58811904Y46169047D01*
X59383333Y45597619D01*
X58764285Y45597619D01*
X57907142Y46264285D02*
X57907142Y45597619D01*
X58145238Y46645238D02*
X58383333Y45930952D01*
X57764285Y45930952D01*
X59285714Y53845238D02*
X59142857Y53797619D01*
X58904761Y53797619D01*
X58809523Y53845238D01*
X58761904Y53892857D01*
X58714285Y53988095D01*
X58714285Y54083333D01*
X58761904Y54178571D01*
X58809523Y54226190D01*
X58904761Y54273809D01*
X59095238Y54321428D01*
X59190476Y54369047D01*
X59238095Y54416666D01*
X59285714Y54511904D01*
X59285714Y54607142D01*
X59238095Y54702380D01*
X59190476Y54750000D01*
X59095238Y54797619D01*
X58857142Y54797619D01*
X58714285Y54750000D01*
X174288095Y45645238D02*
X174145238Y45597619D01*
X173907142Y45597619D01*
X173811904Y45645238D01*
X173764285Y45692857D01*
X173716666Y45788095D01*
X173716666Y45883333D01*
X173764285Y45978571D01*
X173811904Y46026190D01*
X173907142Y46073809D01*
X174097619Y46121428D01*
X174192857Y46169047D01*
X174240476Y46216666D01*
X174288095Y46311904D01*
X174288095Y46407142D01*
X174240476Y46502380D01*
X174192857Y46550000D01*
X174097619Y46597619D01*
X173859523Y46597619D01*
X173716666Y46550000D01*
X173335714Y46502380D02*
X173288095Y46550000D01*
X173192857Y46597619D01*
X172954761Y46597619D01*
X172859523Y46550000D01*
X172811904Y46502380D01*
X172764285Y46407142D01*
X172764285Y46311904D01*
X172811904Y46169047D01*
X173383333Y45597619D01*
X172764285Y45597619D01*
X172430952Y46597619D02*
X171811904Y46597619D01*
X172145238Y46216666D01*
X172002380Y46216666D01*
X171907142Y46169047D01*
X171859523Y46121428D01*
X171811904Y46026190D01*
X171811904Y45788095D01*
X171859523Y45692857D01*
X171907142Y45645238D01*
X172002380Y45597619D01*
X172288095Y45597619D01*
X172383333Y45645238D01*
X172430952Y45692857D01*
X173261904Y53797619D02*
X173261904Y54797619D01*
X172690476Y53797619D02*
X173119047Y54369047D01*
X172690476Y54797619D02*
X173261904Y54226190D01*
X88788095Y64645238D02*
X88645238Y64597619D01*
X88407142Y64597619D01*
X88311904Y64645238D01*
X88264285Y64692857D01*
X88216666Y64788095D01*
X88216666Y64883333D01*
X88264285Y64978571D01*
X88311904Y65026190D01*
X88407142Y65073809D01*
X88597619Y65121428D01*
X88692857Y65169047D01*
X88740476Y65216666D01*
X88788095Y65311904D01*
X88788095Y65407142D01*
X88740476Y65502380D01*
X88692857Y65550000D01*
X88597619Y65597619D01*
X88359523Y65597619D01*
X88216666Y65550000D01*
X87835714Y65502380D02*
X87788095Y65550000D01*
X87692857Y65597619D01*
X87454761Y65597619D01*
X87359523Y65550000D01*
X87311904Y65502380D01*
X87264285Y65407142D01*
X87264285Y65311904D01*
X87311904Y65169047D01*
X87883333Y64597619D01*
X87264285Y64597619D01*
X86883333Y65502380D02*
X86835714Y65550000D01*
X86740476Y65597619D01*
X86502380Y65597619D01*
X86407142Y65550000D01*
X86359523Y65502380D01*
X86311904Y65407142D01*
X86311904Y65311904D01*
X86359523Y65169047D01*
X86930952Y64597619D01*
X86311904Y64597619D01*
X87190476Y72892857D02*
X87238095Y72845238D01*
X87380952Y72797619D01*
X87476190Y72797619D01*
X87619047Y72845238D01*
X87714285Y72940476D01*
X87761904Y73035714D01*
X87809523Y73226190D01*
X87809523Y73369047D01*
X87761904Y73559523D01*
X87714285Y73654761D01*
X87619047Y73750000D01*
X87476190Y73797619D01*
X87380952Y73797619D01*
X87238095Y73750000D01*
X87190476Y73702380D01*
X255288095Y7645238D02*
X255145238Y7597619D01*
X254907142Y7597619D01*
X254811904Y7645238D01*
X254764285Y7692857D01*
X254716666Y7788095D01*
X254716666Y7883333D01*
X254764285Y7978571D01*
X254811904Y8026190D01*
X254907142Y8073809D01*
X255097619Y8121428D01*
X255192857Y8169047D01*
X255240476Y8216666D01*
X255288095Y8311904D01*
X255288095Y8407142D01*
X255240476Y8502380D01*
X255192857Y8550000D01*
X255097619Y8597619D01*
X254859523Y8597619D01*
X254716666Y8550000D01*
X254335714Y8502380D02*
X254288095Y8550000D01*
X254192857Y8597619D01*
X253954761Y8597619D01*
X253859523Y8550000D01*
X253811904Y8502380D01*
X253764285Y8407142D01*
X253764285Y8311904D01*
X253811904Y8169047D01*
X254383333Y7597619D01*
X253764285Y7597619D01*
X252811904Y7597619D02*
X253383333Y7597619D01*
X253097619Y7597619D02*
X253097619Y8597619D01*
X253192857Y8454761D01*
X253288095Y8359523D01*
X253383333Y8311904D01*
X255809523Y16321428D02*
X255666666Y16273809D01*
X255619047Y16226190D01*
X255571428Y16130952D01*
X255571428Y15988095D01*
X255619047Y15892857D01*
X255666666Y15845238D01*
X255761904Y15797619D01*
X256142857Y15797619D01*
X256142857Y16797619D01*
X255809523Y16797619D01*
X255714285Y16750000D01*
X255666666Y16702380D01*
X255619047Y16607142D01*
X255619047Y16511904D01*
X255666666Y16416666D01*
X255714285Y16369047D01*
X255809523Y16321428D01*
X256142857Y16321428D01*
X254571428Y15797619D02*
X254904761Y16273809D01*
X255142857Y15797619D02*
X255142857Y16797619D01*
X254761904Y16797619D01*
X254666666Y16750000D01*
X254619047Y16702380D01*
X254571428Y16607142D01*
X254571428Y16464285D01*
X254619047Y16369047D01*
X254666666Y16321428D01*
X254761904Y16273809D01*
X255142857Y16273809D01*
X254142857Y16321428D02*
X253809523Y16321428D01*
X253666666Y15797619D02*
X254142857Y15797619D01*
X254142857Y16797619D01*
X253666666Y16797619D01*
X253285714Y16083333D02*
X252809523Y16083333D01*
X253380952Y15797619D02*
X253047619Y16797619D01*
X252714285Y15797619D01*
X252380952Y15797619D02*
X252380952Y16797619D01*
X251809523Y15797619D02*
X252238095Y16369047D01*
X251809523Y16797619D02*
X252380952Y16226190D01*
X217288095Y7645238D02*
X217145238Y7597619D01*
X216907142Y7597619D01*
X216811904Y7645238D01*
X216764285Y7692857D01*
X216716666Y7788095D01*
X216716666Y7883333D01*
X216764285Y7978571D01*
X216811904Y8026190D01*
X216907142Y8073809D01*
X217097619Y8121428D01*
X217192857Y8169047D01*
X217240476Y8216666D01*
X217288095Y8311904D01*
X217288095Y8407142D01*
X217240476Y8502380D01*
X217192857Y8550000D01*
X217097619Y8597619D01*
X216859523Y8597619D01*
X216716666Y8550000D01*
X216335714Y8502380D02*
X216288095Y8550000D01*
X216192857Y8597619D01*
X215954761Y8597619D01*
X215859523Y8550000D01*
X215811904Y8502380D01*
X215764285Y8407142D01*
X215764285Y8311904D01*
X215811904Y8169047D01*
X216383333Y7597619D01*
X215764285Y7597619D01*
X215145238Y8597619D02*
X215050000Y8597619D01*
X214954761Y8550000D01*
X214907142Y8502380D01*
X214859523Y8407142D01*
X214811904Y8216666D01*
X214811904Y7978571D01*
X214859523Y7788095D01*
X214907142Y7692857D01*
X214954761Y7645238D01*
X215050000Y7597619D01*
X215145238Y7597619D01*
X215240476Y7645238D01*
X215288095Y7692857D01*
X215335714Y7788095D01*
X215383333Y7978571D01*
X215383333Y8216666D01*
X215335714Y8407142D01*
X215288095Y8502380D01*
X215240476Y8550000D01*
X215145238Y8597619D01*
X217666666Y15892857D02*
X217714285Y15845238D01*
X217857142Y15797619D01*
X217952380Y15797619D01*
X218095238Y15845238D01*
X218190476Y15940476D01*
X218238095Y16035714D01*
X218285714Y16226190D01*
X218285714Y16369047D01*
X218238095Y16559523D01*
X218190476Y16654761D01*
X218095238Y16750000D01*
X217952380Y16797619D01*
X217857142Y16797619D01*
X217714285Y16750000D01*
X217666666Y16702380D01*
X217047619Y16797619D02*
X216857142Y16797619D01*
X216761904Y16750000D01*
X216666666Y16654761D01*
X216619047Y16464285D01*
X216619047Y16130952D01*
X216666666Y15940476D01*
X216761904Y15845238D01*
X216857142Y15797619D01*
X217047619Y15797619D01*
X217142857Y15845238D01*
X217238095Y15940476D01*
X217285714Y16130952D01*
X217285714Y16464285D01*
X217238095Y16654761D01*
X217142857Y16750000D01*
X217047619Y16797619D01*
X215714285Y15797619D02*
X216190476Y15797619D01*
X216190476Y16797619D01*
X215190476Y16797619D02*
X215000000Y16797619D01*
X214904761Y16750000D01*
X214809523Y16654761D01*
X214761904Y16464285D01*
X214761904Y16130952D01*
X214809523Y15940476D01*
X214904761Y15845238D01*
X215000000Y15797619D01*
X215190476Y15797619D01*
X215285714Y15845238D01*
X215380952Y15940476D01*
X215428571Y16130952D01*
X215428571Y16464285D01*
X215380952Y16654761D01*
X215285714Y16750000D01*
X215190476Y16797619D01*
X214333333Y15797619D02*
X214333333Y16797619D01*
X213761904Y15797619D01*
X213761904Y16797619D01*
X46288095Y7645238D02*
X46145238Y7597619D01*
X45907142Y7597619D01*
X45811904Y7645238D01*
X45764285Y7692857D01*
X45716666Y7788095D01*
X45716666Y7883333D01*
X45764285Y7978571D01*
X45811904Y8026190D01*
X45907142Y8073809D01*
X46097619Y8121428D01*
X46192857Y8169047D01*
X46240476Y8216666D01*
X46288095Y8311904D01*
X46288095Y8407142D01*
X46240476Y8502380D01*
X46192857Y8550000D01*
X46097619Y8597619D01*
X45859523Y8597619D01*
X45716666Y8550000D01*
X44764285Y7597619D02*
X45335714Y7597619D01*
X45050000Y7597619D02*
X45050000Y8597619D01*
X45145238Y8454761D01*
X45240476Y8359523D01*
X45335714Y8311904D01*
X44288095Y7597619D02*
X44097619Y7597619D01*
X44002380Y7645238D01*
X43954761Y7692857D01*
X43859523Y7835714D01*
X43811904Y8026190D01*
X43811904Y8407142D01*
X43859523Y8502380D01*
X43907142Y8550000D01*
X44002380Y8597619D01*
X44192857Y8597619D01*
X44288095Y8550000D01*
X44335714Y8502380D01*
X44383333Y8407142D01*
X44383333Y8169047D01*
X44335714Y8073809D01*
X44288095Y8026190D01*
X44192857Y7978571D01*
X44002380Y7978571D01*
X43907142Y8026190D01*
X43859523Y8073809D01*
X43811904Y8169047D01*
X45285714Y16702380D02*
X45238095Y16750000D01*
X45142857Y16797619D01*
X44904761Y16797619D01*
X44809523Y16750000D01*
X44761904Y16702380D01*
X44714285Y16607142D01*
X44714285Y16511904D01*
X44761904Y16369047D01*
X45333333Y15797619D01*
X44714285Y15797619D01*
X50788095Y64645238D02*
X50645238Y64597619D01*
X50407142Y64597619D01*
X50311904Y64645238D01*
X50264285Y64692857D01*
X50216666Y64788095D01*
X50216666Y64883333D01*
X50264285Y64978571D01*
X50311904Y65026190D01*
X50407142Y65073809D01*
X50597619Y65121428D01*
X50692857Y65169047D01*
X50740476Y65216666D01*
X50788095Y65311904D01*
X50788095Y65407142D01*
X50740476Y65502380D01*
X50692857Y65550000D01*
X50597619Y65597619D01*
X50359523Y65597619D01*
X50216666Y65550000D01*
X49264285Y64597619D02*
X49835714Y64597619D01*
X49550000Y64597619D02*
X49550000Y65597619D01*
X49645238Y65454761D01*
X49740476Y65359523D01*
X49835714Y65311904D01*
X48692857Y65169047D02*
X48788095Y65216666D01*
X48835714Y65264285D01*
X48883333Y65359523D01*
X48883333Y65407142D01*
X48835714Y65502380D01*
X48788095Y65550000D01*
X48692857Y65597619D01*
X48502380Y65597619D01*
X48407142Y65550000D01*
X48359523Y65502380D01*
X48311904Y65407142D01*
X48311904Y65359523D01*
X48359523Y65264285D01*
X48407142Y65216666D01*
X48502380Y65169047D01*
X48692857Y65169047D01*
X48788095Y65121428D01*
X48835714Y65073809D01*
X48883333Y64978571D01*
X48883333Y64788095D01*
X48835714Y64692857D01*
X48788095Y64645238D01*
X48692857Y64597619D01*
X48502380Y64597619D01*
X48407142Y64645238D01*
X48359523Y64692857D01*
X48311904Y64788095D01*
X48311904Y64978571D01*
X48359523Y65073809D01*
X48407142Y65121428D01*
X48502380Y65169047D01*
X49833333Y73797619D02*
X49166666Y73797619D01*
X49833333Y72797619D01*
X49166666Y72797619D01*
X93788095Y26645238D02*
X93645238Y26597619D01*
X93407142Y26597619D01*
X93311904Y26645238D01*
X93264285Y26692857D01*
X93216666Y26788095D01*
X93216666Y26883333D01*
X93264285Y26978571D01*
X93311904Y27026190D01*
X93407142Y27073809D01*
X93597619Y27121428D01*
X93692857Y27169047D01*
X93740476Y27216666D01*
X93788095Y27311904D01*
X93788095Y27407142D01*
X93740476Y27502380D01*
X93692857Y27550000D01*
X93597619Y27597619D01*
X93359523Y27597619D01*
X93216666Y27550000D01*
X92264285Y26597619D02*
X92835714Y26597619D01*
X92550000Y26597619D02*
X92550000Y27597619D01*
X92645238Y27454761D01*
X92740476Y27359523D01*
X92835714Y27311904D01*
X91930952Y27597619D02*
X91264285Y27597619D01*
X91692857Y26597619D01*
X92190476Y34797619D02*
X92523809Y35273809D01*
X92761904Y34797619D02*
X92761904Y35797619D01*
X92380952Y35797619D01*
X92285714Y35750000D01*
X92238095Y35702380D01*
X92190476Y35607142D01*
X92190476Y35464285D01*
X92238095Y35369047D01*
X92285714Y35321428D01*
X92380952Y35273809D01*
X92761904Y35273809D01*
X155288095Y45645238D02*
X155145238Y45597619D01*
X154907142Y45597619D01*
X154811904Y45645238D01*
X154764285Y45692857D01*
X154716666Y45788095D01*
X154716666Y45883333D01*
X154764285Y45978571D01*
X154811904Y46026190D01*
X154907142Y46073809D01*
X155097619Y46121428D01*
X155192857Y46169047D01*
X155240476Y46216666D01*
X155288095Y46311904D01*
X155288095Y46407142D01*
X155240476Y46502380D01*
X155192857Y46550000D01*
X155097619Y46597619D01*
X154859523Y46597619D01*
X154716666Y46550000D01*
X153764285Y45597619D02*
X154335714Y45597619D01*
X154050000Y45597619D02*
X154050000Y46597619D01*
X154145238Y46454761D01*
X154240476Y46359523D01*
X154335714Y46311904D01*
X152907142Y46597619D02*
X153097619Y46597619D01*
X153192857Y46550000D01*
X153240476Y46502380D01*
X153335714Y46359523D01*
X153383333Y46169047D01*
X153383333Y45788095D01*
X153335714Y45692857D01*
X153288095Y45645238D01*
X153192857Y45597619D01*
X153002380Y45597619D01*
X152907142Y45645238D01*
X152859523Y45692857D01*
X152811904Y45788095D01*
X152811904Y46026190D01*
X152859523Y46121428D01*
X152907142Y46169047D01*
X153002380Y46216666D01*
X153192857Y46216666D01*
X153288095Y46169047D01*
X153335714Y46121428D01*
X153383333Y46026190D01*
X153857142Y54797619D02*
X153857142Y54083333D01*
X153904761Y53940476D01*
X154000000Y53845238D01*
X154142857Y53797619D01*
X154238095Y53797619D01*
X126788095Y64595238D02*
X126645238Y64547619D01*
X126407142Y64547619D01*
X126311904Y64595238D01*
X126264285Y64642857D01*
X126216666Y64738095D01*
X126216666Y64833333D01*
X126264285Y64928571D01*
X126311904Y64976190D01*
X126407142Y65023809D01*
X126597619Y65071428D01*
X126692857Y65119047D01*
X126740476Y65166666D01*
X126788095Y65261904D01*
X126788095Y65357142D01*
X126740476Y65452380D01*
X126692857Y65500000D01*
X126597619Y65547619D01*
X126359523Y65547619D01*
X126216666Y65500000D01*
X125264285Y64547619D02*
X125835714Y64547619D01*
X125550000Y64547619D02*
X125550000Y65547619D01*
X125645238Y65404761D01*
X125740476Y65309523D01*
X125835714Y65261904D01*
X124359523Y65547619D02*
X124835714Y65547619D01*
X124883333Y65071428D01*
X124835714Y65119047D01*
X124740476Y65166666D01*
X124502380Y65166666D01*
X124407142Y65119047D01*
X124359523Y65071428D01*
X124311904Y64976190D01*
X124311904Y64738095D01*
X124359523Y64642857D01*
X124407142Y64595238D01*
X124502380Y64547619D01*
X124740476Y64547619D01*
X124835714Y64595238D01*
X124883333Y64642857D01*
X125428571Y73321428D02*
X125285714Y73273809D01*
X125238095Y73226190D01*
X125190476Y73130952D01*
X125190476Y72988095D01*
X125238095Y72892857D01*
X125285714Y72845238D01*
X125380952Y72797619D01*
X125761904Y72797619D01*
X125761904Y73797619D01*
X125428571Y73797619D01*
X125333333Y73750000D01*
X125285714Y73702380D01*
X125238095Y73607142D01*
X125238095Y73511904D01*
X125285714Y73416666D01*
X125333333Y73369047D01*
X125428571Y73321428D01*
X125761904Y73321428D01*
X269288095Y45645238D02*
X269145238Y45597619D01*
X268907142Y45597619D01*
X268811904Y45645238D01*
X268764285Y45692857D01*
X268716666Y45788095D01*
X268716666Y45883333D01*
X268764285Y45978571D01*
X268811904Y46026190D01*
X268907142Y46073809D01*
X269097619Y46121428D01*
X269192857Y46169047D01*
X269240476Y46216666D01*
X269288095Y46311904D01*
X269288095Y46407142D01*
X269240476Y46502380D01*
X269192857Y46550000D01*
X269097619Y46597619D01*
X268859523Y46597619D01*
X268716666Y46550000D01*
X267764285Y45597619D02*
X268335714Y45597619D01*
X268050000Y45597619D02*
X268050000Y46597619D01*
X268145238Y46454761D01*
X268240476Y46359523D01*
X268335714Y46311904D01*
X266907142Y46264285D02*
X266907142Y45597619D01*
X267145238Y46645238D02*
X267383333Y45930952D01*
X266764285Y45930952D01*
X269476190Y53892857D02*
X269523809Y53845238D01*
X269666666Y53797619D01*
X269761904Y53797619D01*
X269904761Y53845238D01*
X270000000Y53940476D01*
X270047619Y54035714D01*
X270095238Y54226190D01*
X270095238Y54369047D01*
X270047619Y54559523D01*
X270000000Y54654761D01*
X269904761Y54750000D01*
X269761904Y54797619D01*
X269666666Y54797619D01*
X269523809Y54750000D01*
X269476190Y54702380D01*
X268571428Y53797619D02*
X269047619Y53797619D01*
X269047619Y54797619D01*
X268238095Y54321428D02*
X267904761Y54321428D01*
X267761904Y53797619D02*
X268238095Y53797619D01*
X268238095Y54797619D01*
X267761904Y54797619D01*
X267380952Y54083333D02*
X266904761Y54083333D01*
X267476190Y53797619D02*
X267142857Y54797619D01*
X266809523Y53797619D01*
X265904761Y53797619D02*
X266238095Y54273809D01*
X266476190Y53797619D02*
X266476190Y54797619D01*
X266095238Y54797619D01*
X266000000Y54750000D01*
X265952380Y54702380D01*
X265904761Y54607142D01*
X265904761Y54464285D01*
X265952380Y54369047D01*
X266000000Y54321428D01*
X266095238Y54273809D01*
X266476190Y54273809D01*
X179288095Y7645238D02*
X179145238Y7597619D01*
X178907142Y7597619D01*
X178811904Y7645238D01*
X178764285Y7692857D01*
X178716666Y7788095D01*
X178716666Y7883333D01*
X178764285Y7978571D01*
X178811904Y8026190D01*
X178907142Y8073809D01*
X179097619Y8121428D01*
X179192857Y8169047D01*
X179240476Y8216666D01*
X179288095Y8311904D01*
X179288095Y8407142D01*
X179240476Y8502380D01*
X179192857Y8550000D01*
X179097619Y8597619D01*
X178859523Y8597619D01*
X178716666Y8550000D01*
X177764285Y7597619D02*
X178335714Y7597619D01*
X178050000Y7597619D02*
X178050000Y8597619D01*
X178145238Y8454761D01*
X178240476Y8359523D01*
X178335714Y8311904D01*
X177430952Y8597619D02*
X176811904Y8597619D01*
X177145238Y8216666D01*
X177002380Y8216666D01*
X176907142Y8169047D01*
X176859523Y8121428D01*
X176811904Y8026190D01*
X176811904Y7788095D01*
X176859523Y7692857D01*
X176907142Y7645238D01*
X177002380Y7597619D01*
X177288095Y7597619D01*
X177383333Y7645238D01*
X177430952Y7692857D01*
X178190476Y15797619D02*
X178000000Y15797619D01*
X177904761Y15845238D01*
X177857142Y15892857D01*
X177761904Y16035714D01*
X177714285Y16226190D01*
X177714285Y16607142D01*
X177761904Y16702380D01*
X177809523Y16750000D01*
X177904761Y16797619D01*
X178095238Y16797619D01*
X178190476Y16750000D01*
X178238095Y16702380D01*
X178285714Y16607142D01*
X178285714Y16369047D01*
X178238095Y16273809D01*
X178190476Y16226190D01*
X178095238Y16178571D01*
X177904761Y16178571D01*
X177809523Y16226190D01*
X177761904Y16273809D01*
X177714285Y16369047D01*
X27288095Y7645238D02*
X27145238Y7597619D01*
X26907142Y7597619D01*
X26811904Y7645238D01*
X26764285Y7692857D01*
X26716666Y7788095D01*
X26716666Y7883333D01*
X26764285Y7978571D01*
X26811904Y8026190D01*
X26907142Y8073809D01*
X27097619Y8121428D01*
X27192857Y8169047D01*
X27240476Y8216666D01*
X27288095Y8311904D01*
X27288095Y8407142D01*
X27240476Y8502380D01*
X27192857Y8550000D01*
X27097619Y8597619D01*
X26859523Y8597619D01*
X26716666Y8550000D01*
X25764285Y7597619D02*
X26335714Y7597619D01*
X26050000Y7597619D02*
X26050000Y8597619D01*
X26145238Y8454761D01*
X26240476Y8359523D01*
X26335714Y8311904D01*
X25383333Y8502380D02*
X25335714Y8550000D01*
X25240476Y8597619D01*
X25002380Y8597619D01*
X24907142Y8550000D01*
X24859523Y8502380D01*
X24811904Y8407142D01*
X24811904Y8311904D01*
X24859523Y8169047D01*
X25430952Y7597619D01*
X24811904Y7597619D01*
X25714285Y15797619D02*
X26285714Y15797619D01*
X26000000Y15797619D02*
X26000000Y16797619D01*
X26095238Y16654761D01*
X26190476Y16559523D01*
X26285714Y16511904D01*
X131788095Y26645238D02*
X131645238Y26597619D01*
X131407142Y26597619D01*
X131311904Y26645238D01*
X131264285Y26692857D01*
X131216666Y26788095D01*
X131216666Y26883333D01*
X131264285Y26978571D01*
X131311904Y27026190D01*
X131407142Y27073809D01*
X131597619Y27121428D01*
X131692857Y27169047D01*
X131740476Y27216666D01*
X131788095Y27311904D01*
X131788095Y27407142D01*
X131740476Y27502380D01*
X131692857Y27550000D01*
X131597619Y27597619D01*
X131359523Y27597619D01*
X131216666Y27550000D01*
X130264285Y26597619D02*
X130835714Y26597619D01*
X130550000Y26597619D02*
X130550000Y27597619D01*
X130645238Y27454761D01*
X130740476Y27359523D01*
X130835714Y27311904D01*
X129311904Y26597619D02*
X129883333Y26597619D01*
X129597619Y26597619D02*
X129597619Y27597619D01*
X129692857Y27454761D01*
X129788095Y27359523D01*
X129883333Y27311904D01*
X130500000Y35273809D02*
X130500000Y34797619D01*
X130833333Y35797619D02*
X130500000Y35273809D01*
X130166666Y35797619D01*
X36788095Y26645238D02*
X36645238Y26597619D01*
X36407142Y26597619D01*
X36311904Y26645238D01*
X36264285Y26692857D01*
X36216666Y26788095D01*
X36216666Y26883333D01*
X36264285Y26978571D01*
X36311904Y27026190D01*
X36407142Y27073809D01*
X36597619Y27121428D01*
X36692857Y27169047D01*
X36740476Y27216666D01*
X36788095Y27311904D01*
X36788095Y27407142D01*
X36740476Y27502380D01*
X36692857Y27550000D01*
X36597619Y27597619D01*
X36359523Y27597619D01*
X36216666Y27550000D01*
X35264285Y26597619D02*
X35835714Y26597619D01*
X35550000Y26597619D02*
X35550000Y27597619D01*
X35645238Y27454761D01*
X35740476Y27359523D01*
X35835714Y27311904D01*
X34645238Y27597619D02*
X34550000Y27597619D01*
X34454761Y27550000D01*
X34407142Y27502380D01*
X34359523Y27407142D01*
X34311904Y27216666D01*
X34311904Y26978571D01*
X34359523Y26788095D01*
X34407142Y26692857D01*
X34454761Y26645238D01*
X34550000Y26597619D01*
X34645238Y26597619D01*
X34740476Y26645238D01*
X34788095Y26692857D01*
X34835714Y26788095D01*
X34883333Y26978571D01*
X34883333Y27216666D01*
X34835714Y27407142D01*
X34788095Y27502380D01*
X34740476Y27550000D01*
X34645238Y27597619D01*
X35119047Y34702380D02*
X35214285Y34750000D01*
X35309523Y34845238D01*
X35452380Y34988095D01*
X35547619Y35035714D01*
X35642857Y35035714D01*
X35595238Y34797619D02*
X35690476Y34845238D01*
X35785714Y34940476D01*
X35833333Y35130952D01*
X35833333Y35464285D01*
X35785714Y35654761D01*
X35690476Y35750000D01*
X35595238Y35797619D01*
X35404761Y35797619D01*
X35309523Y35750000D01*
X35214285Y35654761D01*
X35166666Y35464285D01*
X35166666Y35130952D01*
X35214285Y34940476D01*
X35309523Y34845238D01*
X35404761Y34797619D01*
X35595238Y34797619D01*
X169311904Y26645238D02*
X169169047Y26597619D01*
X168930952Y26597619D01*
X168835714Y26645238D01*
X168788095Y26692857D01*
X168740476Y26788095D01*
X168740476Y26883333D01*
X168788095Y26978571D01*
X168835714Y27026190D01*
X168930952Y27073809D01*
X169121428Y27121428D01*
X169216666Y27169047D01*
X169264285Y27216666D01*
X169311904Y27311904D01*
X169311904Y27407142D01*
X169264285Y27502380D01*
X169216666Y27550000D01*
X169121428Y27597619D01*
X168883333Y27597619D01*
X168740476Y27550000D01*
X168264285Y26597619D02*
X168073809Y26597619D01*
X167978571Y26645238D01*
X167930952Y26692857D01*
X167835714Y26835714D01*
X167788095Y27026190D01*
X167788095Y27407142D01*
X167835714Y27502380D01*
X167883333Y27550000D01*
X167978571Y27597619D01*
X168169047Y27597619D01*
X168264285Y27550000D01*
X168311904Y27502380D01*
X168359523Y27407142D01*
X168359523Y27169047D01*
X168311904Y27073809D01*
X168264285Y27026190D01*
X168169047Y26978571D01*
X167978571Y26978571D01*
X167883333Y27026190D01*
X167835714Y27073809D01*
X167788095Y27169047D01*
X168500000Y34797619D02*
X168500000Y35797619D01*
X40811904Y45645238D02*
X40669047Y45597619D01*
X40430952Y45597619D01*
X40335714Y45645238D01*
X40288095Y45692857D01*
X40240476Y45788095D01*
X40240476Y45883333D01*
X40288095Y45978571D01*
X40335714Y46026190D01*
X40430952Y46073809D01*
X40621428Y46121428D01*
X40716666Y46169047D01*
X40764285Y46216666D01*
X40811904Y46311904D01*
X40811904Y46407142D01*
X40764285Y46502380D01*
X40716666Y46550000D01*
X40621428Y46597619D01*
X40383333Y46597619D01*
X40240476Y46550000D01*
X39669047Y46169047D02*
X39764285Y46216666D01*
X39811904Y46264285D01*
X39859523Y46359523D01*
X39859523Y46407142D01*
X39811904Y46502380D01*
X39764285Y46550000D01*
X39669047Y46597619D01*
X39478571Y46597619D01*
X39383333Y46550000D01*
X39335714Y46502380D01*
X39288095Y46407142D01*
X39288095Y46359523D01*
X39335714Y46264285D01*
X39383333Y46216666D01*
X39478571Y46169047D01*
X39669047Y46169047D01*
X39764285Y46121428D01*
X39811904Y46073809D01*
X39859523Y45978571D01*
X39859523Y45788095D01*
X39811904Y45692857D01*
X39764285Y45645238D01*
X39669047Y45597619D01*
X39478571Y45597619D01*
X39383333Y45645238D01*
X39335714Y45692857D01*
X39288095Y45788095D01*
X39288095Y45978571D01*
X39335714Y46073809D01*
X39383333Y46121428D01*
X39478571Y46169047D01*
X40238095Y54083333D02*
X39761904Y54083333D01*
X40333333Y53797619D02*
X40000000Y54797619D01*
X39666666Y53797619D01*
X240311904Y45645238D02*
X240169047Y45597619D01*
X239930952Y45597619D01*
X239835714Y45645238D01*
X239788095Y45692857D01*
X239740476Y45788095D01*
X239740476Y45883333D01*
X239788095Y45978571D01*
X239835714Y46026190D01*
X239930952Y46073809D01*
X240121428Y46121428D01*
X240216666Y46169047D01*
X240264285Y46216666D01*
X240311904Y46311904D01*
X240311904Y46407142D01*
X240264285Y46502380D01*
X240216666Y46550000D01*
X240121428Y46597619D01*
X239883333Y46597619D01*
X239740476Y46550000D01*
X239407142Y46597619D02*
X238740476Y46597619D01*
X239169047Y45597619D01*
X241571428Y54321428D02*
X241238095Y54321428D01*
X241095238Y53797619D02*
X241571428Y53797619D01*
X241571428Y54797619D01*
X241095238Y54797619D01*
X240666666Y53797619D02*
X240666666Y54797619D01*
X240095238Y53797619D01*
X240095238Y54797619D01*
X239761904Y54797619D02*
X239190476Y54797619D01*
X239476190Y53797619D02*
X239476190Y54797619D01*
X238857142Y54321428D02*
X238523809Y54321428D01*
X238380952Y53797619D02*
X238857142Y53797619D01*
X238857142Y54797619D01*
X238380952Y54797619D01*
X237380952Y53797619D02*
X237714285Y54273809D01*
X237952380Y53797619D02*
X237952380Y54797619D01*
X237571428Y54797619D01*
X237476190Y54750000D01*
X237428571Y54702380D01*
X237380952Y54607142D01*
X237380952Y54464285D01*
X237428571Y54369047D01*
X237476190Y54321428D01*
X237571428Y54273809D01*
X237952380Y54273809D01*
X159811904Y7645238D02*
X159669047Y7597619D01*
X159430952Y7597619D01*
X159335714Y7645238D01*
X159288095Y7692857D01*
X159240476Y7788095D01*
X159240476Y7883333D01*
X159288095Y7978571D01*
X159335714Y8026190D01*
X159430952Y8073809D01*
X159621428Y8121428D01*
X159716666Y8169047D01*
X159764285Y8216666D01*
X159811904Y8311904D01*
X159811904Y8407142D01*
X159764285Y8502380D01*
X159716666Y8550000D01*
X159621428Y8597619D01*
X159383333Y8597619D01*
X159240476Y8550000D01*
X158383333Y8597619D02*
X158573809Y8597619D01*
X158669047Y8550000D01*
X158716666Y8502380D01*
X158811904Y8359523D01*
X158859523Y8169047D01*
X158859523Y7788095D01*
X158811904Y7692857D01*
X158764285Y7645238D01*
X158669047Y7597619D01*
X158478571Y7597619D01*
X158383333Y7645238D01*
X158335714Y7692857D01*
X158288095Y7788095D01*
X158288095Y8026190D01*
X158335714Y8121428D01*
X158383333Y8169047D01*
X158478571Y8216666D01*
X158669047Y8216666D01*
X158764285Y8169047D01*
X158811904Y8121428D01*
X158859523Y8026190D01*
X159095238Y16369047D02*
X159190476Y16416666D01*
X159238095Y16464285D01*
X159285714Y16559523D01*
X159285714Y16607142D01*
X159238095Y16702380D01*
X159190476Y16750000D01*
X159095238Y16797619D01*
X158904761Y16797619D01*
X158809523Y16750000D01*
X158761904Y16702380D01*
X158714285Y16607142D01*
X158714285Y16559523D01*
X158761904Y16464285D01*
X158809523Y16416666D01*
X158904761Y16369047D01*
X159095238Y16369047D01*
X159190476Y16321428D01*
X159238095Y16273809D01*
X159285714Y16178571D01*
X159285714Y15988095D01*
X159238095Y15892857D01*
X159190476Y15845238D01*
X159095238Y15797619D01*
X158904761Y15797619D01*
X158809523Y15845238D01*
X158761904Y15892857D01*
X158714285Y15988095D01*
X158714285Y16178571D01*
X158761904Y16273809D01*
X158809523Y16321428D01*
X158904761Y16369047D01*
X197811904Y7645238D02*
X197669047Y7597619D01*
X197430952Y7597619D01*
X197335714Y7645238D01*
X197288095Y7692857D01*
X197240476Y7788095D01*
X197240476Y7883333D01*
X197288095Y7978571D01*
X197335714Y8026190D01*
X197430952Y8073809D01*
X197621428Y8121428D01*
X197716666Y8169047D01*
X197764285Y8216666D01*
X197811904Y8311904D01*
X197811904Y8407142D01*
X197764285Y8502380D01*
X197716666Y8550000D01*
X197621428Y8597619D01*
X197383333Y8597619D01*
X197240476Y8550000D01*
X196335714Y8597619D02*
X196811904Y8597619D01*
X196859523Y8121428D01*
X196811904Y8169047D01*
X196716666Y8216666D01*
X196478571Y8216666D01*
X196383333Y8169047D01*
X196335714Y8121428D01*
X196288095Y8026190D01*
X196288095Y7788095D01*
X196335714Y7692857D01*
X196383333Y7645238D01*
X196478571Y7597619D01*
X196716666Y7597619D01*
X196811904Y7645238D01*
X196859523Y7692857D01*
X197047619Y16797619D02*
X196952380Y16797619D01*
X196857142Y16750000D01*
X196809523Y16702380D01*
X196761904Y16607142D01*
X196714285Y16416666D01*
X196714285Y16178571D01*
X196761904Y15988095D01*
X196809523Y15892857D01*
X196857142Y15845238D01*
X196952380Y15797619D01*
X197047619Y15797619D01*
X197142857Y15845238D01*
X197190476Y15892857D01*
X197238095Y15988095D01*
X197285714Y16178571D01*
X197285714Y16416666D01*
X197238095Y16607142D01*
X197190476Y16702380D01*
X197142857Y16750000D01*
X197047619Y16797619D01*
X69311904Y64645238D02*
X69169047Y64597619D01*
X68930952Y64597619D01*
X68835714Y64645238D01*
X68788095Y64692857D01*
X68740476Y64788095D01*
X68740476Y64883333D01*
X68788095Y64978571D01*
X68835714Y65026190D01*
X68930952Y65073809D01*
X69121428Y65121428D01*
X69216666Y65169047D01*
X69264285Y65216666D01*
X69311904Y65311904D01*
X69311904Y65407142D01*
X69264285Y65502380D01*
X69216666Y65550000D01*
X69121428Y65597619D01*
X68883333Y65597619D01*
X68740476Y65550000D01*
X67883333Y65264285D02*
X67883333Y64597619D01*
X68121428Y65645238D02*
X68359523Y64930952D01*
X67740476Y64930952D01*
X68833333Y73797619D02*
X68166666Y72797619D01*
X68166666Y73797619D02*
X68833333Y72797619D01*
X207311904Y26645238D02*
X207169047Y26597619D01*
X206930952Y26597619D01*
X206835714Y26645238D01*
X206788095Y26692857D01*
X206740476Y26788095D01*
X206740476Y26883333D01*
X206788095Y26978571D01*
X206835714Y27026190D01*
X206930952Y27073809D01*
X207121428Y27121428D01*
X207216666Y27169047D01*
X207264285Y27216666D01*
X207311904Y27311904D01*
X207311904Y27407142D01*
X207264285Y27502380D01*
X207216666Y27550000D01*
X207121428Y27597619D01*
X206883333Y27597619D01*
X206740476Y27550000D01*
X206407142Y27597619D02*
X205788095Y27597619D01*
X206121428Y27216666D01*
X205978571Y27216666D01*
X205883333Y27169047D01*
X205835714Y27121428D01*
X205788095Y27026190D01*
X205788095Y26788095D01*
X205835714Y26692857D01*
X205883333Y26645238D01*
X205978571Y26597619D01*
X206264285Y26597619D01*
X206359523Y26645238D01*
X206407142Y26692857D01*
X206761904Y34797619D02*
X206761904Y35797619D01*
X206380952Y35797619D01*
X206285714Y35750000D01*
X206238095Y35702380D01*
X206190476Y35607142D01*
X206190476Y35464285D01*
X206238095Y35369047D01*
X206285714Y35321428D01*
X206380952Y35273809D01*
X206761904Y35273809D01*
X135811904Y45645238D02*
X135669047Y45597619D01*
X135430952Y45597619D01*
X135335714Y45645238D01*
X135288095Y45692857D01*
X135240476Y45788095D01*
X135240476Y45883333D01*
X135288095Y45978571D01*
X135335714Y46026190D01*
X135430952Y46073809D01*
X135621428Y46121428D01*
X135716666Y46169047D01*
X135764285Y46216666D01*
X135811904Y46311904D01*
X135811904Y46407142D01*
X135764285Y46502380D01*
X135716666Y46550000D01*
X135621428Y46597619D01*
X135383333Y46597619D01*
X135240476Y46550000D01*
X134859523Y46502380D02*
X134811904Y46550000D01*
X134716666Y46597619D01*
X134478571Y46597619D01*
X134383333Y46550000D01*
X134335714Y46502380D01*
X134288095Y46407142D01*
X134288095Y46311904D01*
X134335714Y46169047D01*
X134907142Y45597619D01*
X134288095Y45597619D01*
X135285714Y53797619D02*
X135285714Y54797619D01*
X135285714Y54321428D02*
X134714285Y54321428D01*
X134714285Y53797619D02*
X134714285Y54797619D01*
X226311904Y26645238D02*
X226169047Y26597619D01*
X225930952Y26597619D01*
X225835714Y26645238D01*
X225788095Y26692857D01*
X225740476Y26788095D01*
X225740476Y26883333D01*
X225788095Y26978571D01*
X225835714Y27026190D01*
X225930952Y27073809D01*
X226121428Y27121428D01*
X226216666Y27169047D01*
X226264285Y27216666D01*
X226311904Y27311904D01*
X226311904Y27407142D01*
X226264285Y27502380D01*
X226216666Y27550000D01*
X226121428Y27597619D01*
X225883333Y27597619D01*
X225740476Y27550000D01*
X224788095Y26597619D02*
X225359523Y26597619D01*
X225073809Y26597619D02*
X225073809Y27597619D01*
X225169047Y27454761D01*
X225264285Y27359523D01*
X225359523Y27311904D01*
X225285714Y35273809D02*
X225333333Y35321428D01*
X225428571Y35369047D01*
X225523809Y35369047D01*
X225619047Y35321428D01*
X225666666Y35273809D01*
X225714285Y35178571D01*
X225714285Y35083333D01*
X225666666Y34988095D01*
X225619047Y34940476D01*
X225523809Y34892857D01*
X225428571Y34892857D01*
X225333333Y34940476D01*
X225285714Y34988095D01*
X225285714Y35369047D02*
X225285714Y34988095D01*
X225238095Y34940476D01*
X225190476Y34940476D01*
X225095238Y34988095D01*
X225047619Y35083333D01*
X225047619Y35321428D01*
X225142857Y35464285D01*
X225285714Y35559523D01*
X225476190Y35607142D01*
X225666666Y35559523D01*
X225809523Y35464285D01*
X225904761Y35321428D01*
X225952380Y35130952D01*
X225904761Y34940476D01*
X225809523Y34797619D01*
X225666666Y34702380D01*
X225476190Y34654761D01*
X225285714Y34702380D01*
X225142857Y34797619D01*
M02*
