G04 #@! TF.GenerationSoftware,KiCad,Pcbnew,(5.1.10)-1*
G04 #@! TF.CreationDate,2022-01-19T11:14:15-05:00*
G04 #@! TF.ProjectId,CoCo1SwitchBoard,436f436f-3153-4776-9974-6368426f6172,1.0*
G04 #@! TF.SameCoordinates,Original*
G04 #@! TF.FileFunction,Profile,NP*
%FSLAX46Y46*%
G04 Gerber Fmt 4.6, Leading zero omitted, Abs format (unit mm)*
G04 Created by KiCad (PCBNEW (5.1.10)-1) date 2022-01-19 11:14:15*
%MOMM*%
%LPD*%
G01*
G04 APERTURE LIST*
G04 #@! TA.AperFunction,Profile*
%ADD10C,0.150000*%
G04 #@! TD*
G04 #@! TA.AperFunction,Profile*
%ADD11C,0.050000*%
G04 #@! TD*
G04 APERTURE END LIST*
D10*
X146750000Y41000000D02*
G75*
G03*
X146750000Y41000000I-4250000J0D01*
G01*
X117650000Y76000000D02*
G75*
G03*
X117650000Y76000000I-1650000J0D01*
G01*
X155650000Y76000000D02*
G75*
G03*
X155650000Y76000000I-1650000J0D01*
G01*
X203150000Y57000000D02*
G75*
G03*
X203150000Y57000000I-1650000J0D01*
G01*
X51150000Y57000000D02*
G75*
G03*
X51150000Y57000000I-1650000J0D01*
G01*
X281500000Y69000000D02*
G75*
G03*
X281500000Y69000000I-1500000J0D01*
G01*
D11*
X-5000000Y103000000D02*
G75*
G02*
X-1000000Y107000000I4000000J0D01*
G01*
X281000000Y107000000D02*
G75*
G02*
X285000000Y103000000I0J-4000000D01*
G01*
X-1000000Y107000000D02*
X281000000Y107000000D01*
X-1000000Y-7000000D02*
G75*
G02*
X-5000000Y-3000000I0J4000000D01*
G01*
X285000000Y-3000000D02*
G75*
G02*
X281000000Y-7000000I-4000000J0D01*
G01*
X-1000000Y-7000000D02*
X281000000Y-7000000D01*
X281000000Y-7000000D02*
X281000000Y-7000000D01*
D10*
X84650000Y38000000D02*
G75*
G03*
X84650000Y38000000I-1650000J0D01*
G01*
X236650000Y38000000D02*
G75*
G03*
X236650000Y38000000I-1650000J0D01*
G01*
X201650000Y100000000D02*
G75*
G03*
X201650000Y100000000I-1650000J0D01*
G01*
X241650000Y100000000D02*
G75*
G03*
X241650000Y100000000I-1650000J0D01*
G01*
X281650000Y100000000D02*
G75*
G03*
X281650000Y100000000I-1650000J0D01*
G01*
X281650000Y50000000D02*
G75*
G03*
X281650000Y50000000I-1650000J0D01*
G01*
X281650000Y1000000D02*
G75*
G03*
X281650000Y1000000I-1650000J0D01*
G01*
X227150000Y5000000D02*
G75*
G03*
X227150000Y5000000I-1650000J0D01*
G01*
X170150000Y5000000D02*
G75*
G03*
X170150000Y5000000I-1650000J0D01*
G01*
X113150000Y5000000D02*
G75*
G03*
X113150000Y5000000I-1650000J0D01*
G01*
X56150000Y5000000D02*
G75*
G03*
X56150000Y5000000I-1650000J0D01*
G01*
X81650000Y100000000D02*
G75*
G03*
X81650000Y100000000I-1650000J0D01*
G01*
X41650000Y100000000D02*
G75*
G03*
X41650000Y100000000I-1650000J0D01*
G01*
X1650000Y100000000D02*
G75*
G03*
X1650000Y100000000I-1650000J0D01*
G01*
X6650000Y57000000D02*
G75*
G03*
X6650000Y57000000I-1650000J0D01*
G01*
X1650000Y1000000D02*
G75*
G03*
X1650000Y1000000I-1650000J0D01*
G01*
X6500000Y69000000D02*
G75*
G03*
X6500000Y69000000I-1500000J0D01*
G01*
D11*
X285000000Y-3000000D02*
X285000000Y103000000D01*
X-5000000Y103000000D02*
X-5000000Y-3000000D01*
M02*
