M48
INCH,TZ
T1C0.0157
T2C0.0256
%
G90
G05
T1
X13386Y27362
X19882Y16929
X21457Y27165
X21654Y9252
X23819Y6496
X24409Y22047
X25787Y11811
X27756Y10236
X29134Y-591
X30118Y27953
X30118Y17717
X31890Y12598
X32087Y21850
X33858Y9055
X35039Y6496
X35630Y34055
X36417Y29134
X37795Y6496
X37992Y-394
X39764Y12205
X40748Y1181
X41732Y14764
X41732Y6496
X41929Y23622
X41929Y13780
X42717Y19882
X43701Y5315
X44291Y5315
X45079Y8071
X45669Y9252
X45866Y25787
X46457Y17717
X47047Y14764
X48031Y9646
X49409Y19291
X49606Y30906
X50394Y10039
X50394Y5315
X50394Y984
X50591Y16142
X50984Y34734
X50984Y5906
X51181Y4528
X51181Y2756
X51575Y6102
X51772Y21850
X52756Y2559
X53543Y30906
X53543Y1378
X53740Y0
X54528Y12008
X54528Y1181
X55118Y21260
X55709Y30906
X55709Y18474
X55906Y11417
X55906Y10236
X56043Y21998
X58071Y24803
X58465Y3150
X58661Y1378
X59646Y5315
X59646Y-1378
X60236Y3150
X61417Y12205
X61417Y-1575
X61614Y13474
X62992Y10630
X62992Y-2165
X63307Y13386
X66339Y32283
X66929Y17667
X67717Y23228
X68307Y19970
X68701Y2953
X69094Y23228
X70079Y12598
X70276Y11703
X71260Y6496
X71654Y9449
X72244Y20472
X72244Y17913
X73031Y-787
X75000Y13780
X75394Y1181
X77953Y12992
X78740Y11417
X78740Y10236
X78740Y8465
X82480Y27756
X84843Y16732
X85039Y2362
X92717Y17126
X92913Y9646
X94882Y14370
X104134Y4134
X104331Y15551
T2
X53370Y-799
X53370Y-1299
X53870Y-799
X53870Y-1299
X54370Y-799
X54370Y-1299
X54870Y-799
X54870Y-1299
X55370Y-799
X55370Y-1299
X55870Y-799
X55870Y-1299
X56370Y-799
X56370Y-1299
X56870Y-799
X56870Y-1299
T0
M30
