G04 #@! TF.GenerationSoftware,KiCad,Pcbnew,(5.1.10)-1*
G04 #@! TF.CreationDate,2022-01-19T11:14:15-05:00*
G04 #@! TF.ProjectId,CoCo1SwitchBoard,436f436f-3153-4776-9974-6368426f6172,1.0*
G04 #@! TF.SameCoordinates,Original*
G04 #@! TF.FileFunction,Paste,Bot*
G04 #@! TF.FilePolarity,Positive*
%FSLAX46Y46*%
G04 Gerber Fmt 4.6, Leading zero omitted, Abs format (unit mm)*
G04 Created by KiCad (PCBNEW (5.1.10)-1) date 2022-01-19 11:14:15*
%MOMM*%
%LPD*%
G01*
G04 APERTURE LIST*
%ADD10R,3.200000X1.000000*%
G04 APERTURE END LIST*
D10*
X247650000Y71000000D03*
X240850000Y71000000D03*
X240850000Y67000000D03*
X247650000Y67000000D03*
X29150000Y71000000D03*
X22350000Y71000000D03*
X22350000Y67000000D03*
X29150000Y67000000D03*
X223900000Y71000000D03*
X217100000Y71000000D03*
X217100000Y67000000D03*
X223900000Y67000000D03*
X143400000Y14000000D03*
X136600000Y14000000D03*
X136600000Y10000000D03*
X143400000Y10000000D03*
X143400000Y90000000D03*
X136600000Y90000000D03*
X136600000Y86000000D03*
X143400000Y86000000D03*
X57900000Y33000000D03*
X51100000Y33000000D03*
X51100000Y29000000D03*
X57900000Y29000000D03*
X190900000Y33000000D03*
X184100000Y33000000D03*
X184100000Y29000000D03*
X190900000Y29000000D03*
X119400000Y52000000D03*
X112600000Y52000000D03*
X112600000Y48000000D03*
X119400000Y48000000D03*
X204900000Y71000000D03*
X198100000Y71000000D03*
X198100000Y67000000D03*
X204900000Y67000000D03*
X124400000Y14000000D03*
X117600000Y14000000D03*
X117600000Y10000000D03*
X124400000Y10000000D03*
X266900000Y33000000D03*
X260100000Y33000000D03*
X260100000Y29000000D03*
X266900000Y29000000D03*
X109900000Y71000000D03*
X103100000Y71000000D03*
X103100000Y67000000D03*
X109900000Y67000000D03*
X147900000Y71000000D03*
X141100000Y71000000D03*
X141100000Y67000000D03*
X147900000Y67000000D03*
X100400000Y52000000D03*
X93600000Y52000000D03*
X93600000Y48000000D03*
X100400000Y48000000D03*
X238400000Y14000000D03*
X231600000Y14000000D03*
X231600000Y10000000D03*
X238400000Y10000000D03*
X105400000Y14000000D03*
X98600000Y14000000D03*
X98600000Y10000000D03*
X105400000Y10000000D03*
X247900000Y33000000D03*
X241100000Y33000000D03*
X241100000Y29000000D03*
X247900000Y29000000D03*
X152900000Y33000000D03*
X146100000Y33000000D03*
X146100000Y29000000D03*
X152900000Y29000000D03*
X166900000Y71000000D03*
X160100000Y71000000D03*
X160100000Y67000000D03*
X166900000Y67000000D03*
X76900000Y33000000D03*
X70100000Y33000000D03*
X70100000Y29000000D03*
X76900000Y29000000D03*
X185900000Y71000000D03*
X179100000Y71000000D03*
X179100000Y67000000D03*
X185900000Y67000000D03*
X86400000Y14000000D03*
X79600000Y14000000D03*
X79600000Y10000000D03*
X86400000Y10000000D03*
X24400000Y52000000D03*
X17600000Y52000000D03*
X17600000Y48000000D03*
X24400000Y48000000D03*
X114900000Y33000000D03*
X108100000Y33000000D03*
X108100000Y29000000D03*
X114900000Y29000000D03*
X195400000Y52000000D03*
X188600000Y52000000D03*
X188600000Y48000000D03*
X195400000Y48000000D03*
X81400000Y52000000D03*
X74600000Y52000000D03*
X74600000Y48000000D03*
X81400000Y48000000D03*
X214400000Y52000000D03*
X207600000Y52000000D03*
X207600000Y48000000D03*
X214400000Y48000000D03*
X67400000Y14000000D03*
X60600000Y14000000D03*
X60600000Y10000000D03*
X67400000Y10000000D03*
X19900000Y33000000D03*
X13100000Y33000000D03*
X13100000Y29000000D03*
X19900000Y29000000D03*
X62400000Y52000000D03*
X55600000Y52000000D03*
X55600000Y48000000D03*
X62400000Y48000000D03*
X176400000Y52000000D03*
X169600000Y52000000D03*
X169600000Y48000000D03*
X176400000Y48000000D03*
X90900000Y71000000D03*
X84100000Y71000000D03*
X84100000Y67000000D03*
X90900000Y67000000D03*
X257400000Y14000000D03*
X250600000Y14000000D03*
X250600000Y10000000D03*
X257400000Y10000000D03*
X219400000Y14000000D03*
X212600000Y14000000D03*
X212600000Y10000000D03*
X219400000Y10000000D03*
X48400000Y14000000D03*
X41600000Y14000000D03*
X41600000Y10000000D03*
X48400000Y10000000D03*
X52900000Y71000000D03*
X46100000Y71000000D03*
X46100000Y67000000D03*
X52900000Y67000000D03*
X95900000Y33000000D03*
X89100000Y33000000D03*
X89100000Y29000000D03*
X95900000Y29000000D03*
X157400000Y52000000D03*
X150600000Y52000000D03*
X150600000Y48000000D03*
X157400000Y48000000D03*
X128900000Y71000000D03*
X122100000Y71000000D03*
X122100000Y67000000D03*
X128900000Y67000000D03*
X271400000Y52000000D03*
X264600000Y52000000D03*
X264600000Y48000000D03*
X271400000Y48000000D03*
X181400000Y14000000D03*
X174600000Y14000000D03*
X174600000Y10000000D03*
X181400000Y10000000D03*
X29400000Y14000000D03*
X22600000Y14000000D03*
X22600000Y10000000D03*
X29400000Y10000000D03*
X133900000Y33000000D03*
X127100000Y33000000D03*
X127100000Y29000000D03*
X133900000Y29000000D03*
X38900000Y33000000D03*
X32100000Y33000000D03*
X32100000Y29000000D03*
X38900000Y29000000D03*
X171900000Y33000000D03*
X165100000Y33000000D03*
X165100000Y29000000D03*
X171900000Y29000000D03*
X43400000Y52000000D03*
X36600000Y52000000D03*
X36600000Y48000000D03*
X43400000Y48000000D03*
X242900000Y52000000D03*
X236100000Y52000000D03*
X236100000Y48000000D03*
X242900000Y48000000D03*
X162400000Y14000000D03*
X155600000Y14000000D03*
X155600000Y10000000D03*
X162400000Y10000000D03*
X200400000Y14000000D03*
X193600000Y14000000D03*
X193600000Y10000000D03*
X200400000Y10000000D03*
X71900000Y71000000D03*
X65100000Y71000000D03*
X65100000Y67000000D03*
X71900000Y67000000D03*
X209900000Y33000000D03*
X203100000Y33000000D03*
X203100000Y29000000D03*
X209900000Y29000000D03*
X138400000Y52000000D03*
X131600000Y52000000D03*
X131600000Y48000000D03*
X138400000Y48000000D03*
X228900000Y33000000D03*
X222100000Y33000000D03*
X222100000Y29000000D03*
X228900000Y29000000D03*
M02*
