G04 #@! TF.GenerationSoftware,KiCad,Pcbnew,(5.1.10)-1*
G04 #@! TF.CreationDate,2022-01-19T11:14:15-05:00*
G04 #@! TF.ProjectId,CoCo1SwitchBoard,436f436f-3153-4776-9974-6368426f6172,1.0*
G04 #@! TF.SameCoordinates,Original*
G04 #@! TF.FileFunction,Copper,L2,Bot*
G04 #@! TF.FilePolarity,Positive*
%FSLAX46Y46*%
G04 Gerber Fmt 4.6, Leading zero omitted, Abs format (unit mm)*
G04 Created by KiCad (PCBNEW (5.1.10)-1) date 2022-01-19 11:14:15*
%MOMM*%
%LPD*%
G01*
G04 APERTURE LIST*
G04 #@! TA.AperFunction,ComponentPad*
%ADD10O,1.000000X1.000000*%
G04 #@! TD*
G04 #@! TA.AperFunction,ComponentPad*
%ADD11R,1.000000X1.000000*%
G04 #@! TD*
G04 #@! TA.AperFunction,SMDPad,CuDef*
%ADD12R,3.200000X1.000000*%
G04 #@! TD*
G04 #@! TA.AperFunction,ViaPad*
%ADD13C,0.800000*%
G04 #@! TD*
G04 #@! TA.AperFunction,Conductor*
%ADD14C,0.250000*%
G04 #@! TD*
G04 APERTURE END LIST*
D10*
X144449800Y-2030000D03*
X144449800Y-3300000D03*
X143179800Y-2030000D03*
X143179800Y-3300000D03*
X141909800Y-2030000D03*
X141909800Y-3300000D03*
X140639800Y-2030000D03*
X140639800Y-3300000D03*
X139369800Y-2030000D03*
X139369800Y-3300000D03*
X138099800Y-2030000D03*
X138099800Y-3300000D03*
X136829800Y-2030000D03*
X136829800Y-3300000D03*
X135559800Y-2030000D03*
D11*
X135559800Y-3300000D03*
D12*
X247650000Y71000000D03*
X240850000Y71000000D03*
X240850000Y67000000D03*
X247650000Y67000000D03*
X29150000Y71000000D03*
X22350000Y71000000D03*
X22350000Y67000000D03*
X29150000Y67000000D03*
X223900000Y71000000D03*
X217100000Y71000000D03*
X217100000Y67000000D03*
X223900000Y67000000D03*
X143400000Y14000000D03*
X136600000Y14000000D03*
X136600000Y10000000D03*
X143400000Y10000000D03*
X143400000Y90000000D03*
X136600000Y90000000D03*
X136600000Y86000000D03*
X143400000Y86000000D03*
X57900000Y33000000D03*
X51100000Y33000000D03*
X51100000Y29000000D03*
X57900000Y29000000D03*
X190900000Y33000000D03*
X184100000Y33000000D03*
X184100000Y29000000D03*
X190900000Y29000000D03*
X119400000Y52000000D03*
X112600000Y52000000D03*
X112600000Y48000000D03*
X119400000Y48000000D03*
X204900000Y71000000D03*
X198100000Y71000000D03*
X198100000Y67000000D03*
X204900000Y67000000D03*
X124400000Y14000000D03*
X117600000Y14000000D03*
X117600000Y10000000D03*
X124400000Y10000000D03*
X266900000Y33000000D03*
X260100000Y33000000D03*
X260100000Y29000000D03*
X266900000Y29000000D03*
X109900000Y71000000D03*
X103100000Y71000000D03*
X103100000Y67000000D03*
X109900000Y67000000D03*
X147900000Y71000000D03*
X141100000Y71000000D03*
X141100000Y67000000D03*
X147900000Y67000000D03*
X100400000Y52000000D03*
X93600000Y52000000D03*
X93600000Y48000000D03*
X100400000Y48000000D03*
X238400000Y14000000D03*
X231600000Y14000000D03*
X231600000Y10000000D03*
X238400000Y10000000D03*
X105400000Y14000000D03*
X98600000Y14000000D03*
X98600000Y10000000D03*
X105400000Y10000000D03*
X247900000Y33000000D03*
X241100000Y33000000D03*
X241100000Y29000000D03*
X247900000Y29000000D03*
X152900000Y33000000D03*
X146100000Y33000000D03*
X146100000Y29000000D03*
X152900000Y29000000D03*
X166900000Y71000000D03*
X160100000Y71000000D03*
X160100000Y67000000D03*
X166900000Y67000000D03*
X76900000Y33000000D03*
X70100000Y33000000D03*
X70100000Y29000000D03*
X76900000Y29000000D03*
X185900000Y71000000D03*
X179100000Y71000000D03*
X179100000Y67000000D03*
X185900000Y67000000D03*
X86400000Y14000000D03*
X79600000Y14000000D03*
X79600000Y10000000D03*
X86400000Y10000000D03*
X24400000Y52000000D03*
X17600000Y52000000D03*
X17600000Y48000000D03*
X24400000Y48000000D03*
X114900000Y33000000D03*
X108100000Y33000000D03*
X108100000Y29000000D03*
X114900000Y29000000D03*
X195400000Y52000000D03*
X188600000Y52000000D03*
X188600000Y48000000D03*
X195400000Y48000000D03*
X81400000Y52000000D03*
X74600000Y52000000D03*
X74600000Y48000000D03*
X81400000Y48000000D03*
X214400000Y52000000D03*
X207600000Y52000000D03*
X207600000Y48000000D03*
X214400000Y48000000D03*
X67400000Y14000000D03*
X60600000Y14000000D03*
X60600000Y10000000D03*
X67400000Y10000000D03*
X19900000Y33000000D03*
X13100000Y33000000D03*
X13100000Y29000000D03*
X19900000Y29000000D03*
X62400000Y52000000D03*
X55600000Y52000000D03*
X55600000Y48000000D03*
X62400000Y48000000D03*
X176400000Y52000000D03*
X169600000Y52000000D03*
X169600000Y48000000D03*
X176400000Y48000000D03*
X90900000Y71000000D03*
X84100000Y71000000D03*
X84100000Y67000000D03*
X90900000Y67000000D03*
X257400000Y14000000D03*
X250600000Y14000000D03*
X250600000Y10000000D03*
X257400000Y10000000D03*
X219400000Y14000000D03*
X212600000Y14000000D03*
X212600000Y10000000D03*
X219400000Y10000000D03*
X48400000Y14000000D03*
X41600000Y14000000D03*
X41600000Y10000000D03*
X48400000Y10000000D03*
X52900000Y71000000D03*
X46100000Y71000000D03*
X46100000Y67000000D03*
X52900000Y67000000D03*
X95900000Y33000000D03*
X89100000Y33000000D03*
X89100000Y29000000D03*
X95900000Y29000000D03*
X157400000Y52000000D03*
X150600000Y52000000D03*
X150600000Y48000000D03*
X157400000Y48000000D03*
X128900000Y71000000D03*
X122100000Y71000000D03*
X122100000Y67000000D03*
X128900000Y67000000D03*
X271400000Y52000000D03*
X264600000Y52000000D03*
X264600000Y48000000D03*
X271400000Y48000000D03*
X181400000Y14000000D03*
X174600000Y14000000D03*
X174600000Y10000000D03*
X181400000Y10000000D03*
X29400000Y14000000D03*
X22600000Y14000000D03*
X22600000Y10000000D03*
X29400000Y10000000D03*
X133900000Y33000000D03*
X127100000Y33000000D03*
X127100000Y29000000D03*
X133900000Y29000000D03*
X38900000Y33000000D03*
X32100000Y33000000D03*
X32100000Y29000000D03*
X38900000Y29000000D03*
X171900000Y33000000D03*
X165100000Y33000000D03*
X165100000Y29000000D03*
X171900000Y29000000D03*
X43400000Y52000000D03*
X36600000Y52000000D03*
X36600000Y48000000D03*
X43400000Y48000000D03*
X242900000Y52000000D03*
X236100000Y52000000D03*
X236100000Y48000000D03*
X242900000Y48000000D03*
X162400000Y14000000D03*
X155600000Y14000000D03*
X155600000Y10000000D03*
X162400000Y10000000D03*
X200400000Y14000000D03*
X193600000Y14000000D03*
X193600000Y10000000D03*
X200400000Y10000000D03*
X71900000Y71000000D03*
X65100000Y71000000D03*
X65100000Y67000000D03*
X71900000Y67000000D03*
X209900000Y33000000D03*
X203100000Y33000000D03*
X203100000Y29000000D03*
X209900000Y29000000D03*
X138400000Y52000000D03*
X131600000Y52000000D03*
X131600000Y48000000D03*
X138400000Y48000000D03*
X228900000Y33000000D03*
X222100000Y33000000D03*
X222100000Y29000000D03*
X228900000Y29000000D03*
D13*
X50500000Y43000000D03*
X34000000Y69500000D03*
X126000000Y78500000D03*
X125500000Y49000000D03*
X131000000Y15500000D03*
X129500000Y88225010D03*
X149000000Y3500000D03*
X191500000Y3000000D03*
X190500000Y35000000D03*
X235500000Y43500000D03*
X209500000Y70500000D03*
X108500000Y50500000D03*
X112500000Y13500000D03*
X128000000Y13500000D03*
X168500000Y82000000D03*
X141500000Y78500000D03*
X172000000Y59000000D03*
X178000000Y32000000D03*
X81000000Y32000000D03*
X96000000Y16500000D03*
X106000000Y16500000D03*
X236000000Y24500000D03*
X241000000Y36500000D03*
X111000000Y13500000D03*
X156500000Y34224979D03*
X175500000Y59000000D03*
X183500000Y52000000D03*
X81500000Y55500000D03*
X106500000Y35000000D03*
X119500000Y37500000D03*
X128500000Y41000000D03*
X183500000Y45500000D03*
X89000000Y16500000D03*
X62000000Y56000000D03*
X60500000Y16500000D03*
X90500000Y86500000D03*
X92500000Y74000000D03*
X114500000Y20500000D03*
X129500000Y15000000D03*
X130000000Y11500000D03*
X130000000Y7000000D03*
X136000000Y3500000D03*
X134000000Y6500000D03*
X55000000Y23500000D03*
X54500000Y69000000D03*
X101000000Y31000000D03*
X116500000Y65500000D03*
X182000000Y24000000D03*
X185500000Y-2000000D03*
X173500000Y50725010D03*
X138500000Y3000000D03*
X174500000Y7500000D03*
X181000000Y16500000D03*
X178500000Y29725000D03*
X76500000Y71000000D03*
X131500000Y55500000D03*
X200000000Y21500000D03*
X198000000Y33000000D03*
X140000000Y54000000D03*
X151500000Y13500000D03*
X151500000Y-3500000D03*
X265000000Y39500000D03*
X264500000Y10500000D03*
X156000000Y-4000000D03*
X153000000Y8000000D03*
X215500000Y42500000D03*
X216000000Y6000000D03*
X136500000Y0D03*
X103500000Y3000000D03*
X136000000Y78500000D03*
X138500000Y30500000D03*
X160000000Y-5500000D03*
X156000000Y31000000D03*
X160000000Y27000000D03*
X106500000Y60000000D03*
X106000000Y37500000D03*
X96500000Y-1000000D03*
X86000000Y23000000D03*
X200000000Y29000000D03*
X200000000Y26000000D03*
X142000000Y26000000D03*
X142000000Y29000000D03*
X116000000Y23500000D03*
X128000000Y25500000D03*
X147500000Y63000000D03*
X128000000Y2500000D03*
X148500000Y8000000D03*
X142349845Y55875165D03*
X170000000Y44874990D03*
X141500000Y46925010D03*
X160800000Y34000000D03*
X76500000Y45000000D03*
X65500000Y30000000D03*
X74000000Y-1500000D03*
X70500000Y26000000D03*
X122000000Y24500000D03*
X118000000Y45000000D03*
D14*
X142900000Y90000000D02*
X136100000Y90000000D01*
X51100000Y33000000D02*
X57900000Y33000000D01*
X28900000Y71000000D02*
X22100000Y71000000D01*
X112600000Y52000000D02*
X119400000Y52000000D01*
X143400000Y14000000D02*
X136600000Y14000000D01*
X184100000Y33000000D02*
X190900000Y33000000D01*
X51100000Y42400000D02*
X50500000Y43000000D01*
X51100000Y33000000D02*
X51100000Y42400000D01*
X30400000Y69500000D02*
X28900000Y71000000D01*
X34000000Y69500000D02*
X30400000Y69500000D01*
X198100000Y90000000D02*
X217100000Y71000000D01*
X142900000Y90000000D02*
X198100000Y90000000D01*
X217500000Y40000000D02*
X233000000Y55500000D01*
X233000000Y55500000D02*
X233000000Y71000000D01*
X197900000Y40000000D02*
X217500000Y40000000D01*
X190900000Y33000000D02*
X197900000Y40000000D01*
X233000000Y71000000D02*
X217100000Y71000000D01*
X247400000Y71000000D02*
X233000000Y71000000D01*
X54500000Y90000000D02*
X34000000Y69500000D01*
X136100000Y90000000D02*
X54500000Y90000000D01*
X112600000Y65100000D02*
X126000000Y78500000D01*
X112600000Y52000000D02*
X112600000Y65100000D01*
X122500000Y52000000D02*
X125500000Y49000000D01*
X119400000Y52000000D02*
X122500000Y52000000D01*
X135100000Y15500000D02*
X136600000Y14000000D01*
X131000000Y15500000D02*
X135100000Y15500000D01*
X136100000Y90000000D02*
X131274990Y90000000D01*
X131274990Y90000000D02*
X129500000Y88225010D01*
X191445411Y2945411D02*
X191500000Y3000000D01*
X149554589Y2945411D02*
X191445411Y2945411D01*
X149000000Y3500000D02*
X149554589Y2945411D01*
X190500000Y33400000D02*
X190900000Y33000000D01*
X190500000Y35000000D02*
X190500000Y33400000D01*
X266900000Y33000000D02*
X260100000Y33000000D01*
X204900000Y71000000D02*
X198100000Y71000000D01*
X147900000Y71000000D02*
X141100000Y71000000D01*
X100400000Y52000000D02*
X93600000Y52000000D01*
X117600000Y14000000D02*
X124400000Y14000000D01*
X103100000Y71000000D02*
X109900000Y71000000D01*
X250350000Y43500000D02*
X235500000Y43500000D01*
X260100000Y33750000D02*
X250350000Y43500000D01*
X260100000Y33000000D02*
X260100000Y33750000D01*
X209000000Y71000000D02*
X204900000Y71000000D01*
X209500000Y70500000D02*
X209000000Y71000000D01*
X93600000Y61500000D02*
X93600000Y52000000D01*
X103100000Y71000000D02*
X93600000Y61500000D01*
X113600000Y81500000D02*
X103100000Y71000000D01*
X130600000Y81500000D02*
X113600000Y81500000D01*
X141100000Y71000000D02*
X130600000Y81500000D01*
X107000000Y52000000D02*
X108500000Y50500000D01*
X100400000Y52000000D02*
X107000000Y52000000D01*
X117100000Y13500000D02*
X117600000Y14000000D01*
X112500000Y13500000D02*
X117100000Y13500000D01*
X127500000Y14000000D02*
X128000000Y13500000D01*
X124400000Y14000000D02*
X127500000Y14000000D01*
X187100000Y82000000D02*
X168500000Y82000000D01*
X198100000Y71000000D02*
X187100000Y82000000D01*
X141100000Y78100000D02*
X141100000Y71000000D01*
X141500000Y78500000D02*
X141100000Y78100000D01*
X70100000Y33000000D02*
X76900000Y33000000D01*
X166900000Y71000000D02*
X160100000Y71000000D01*
X247900000Y33000000D02*
X241100000Y33000000D01*
X238400000Y14000000D02*
X231600000Y14000000D01*
X98600000Y14000000D02*
X105400000Y14000000D01*
X152900000Y33000000D02*
X146100000Y33000000D01*
X178500000Y31500000D02*
X178000000Y32000000D01*
X239600000Y31500000D02*
X178500000Y31500000D01*
X241100000Y33000000D02*
X239600000Y31500000D01*
X80000000Y33000000D02*
X81000000Y32000000D01*
X76900000Y33000000D02*
X80000000Y33000000D01*
X98500000Y14000000D02*
X98600000Y14000000D01*
X96000000Y16500000D02*
X98500000Y14000000D01*
X172000000Y70500000D02*
X172000000Y59000000D01*
X166900000Y71000000D02*
X171500000Y71000000D01*
X171500000Y71000000D02*
X172000000Y70500000D01*
X105400000Y15900000D02*
X106000000Y16500000D01*
X105400000Y14000000D02*
X105400000Y15900000D01*
X238400000Y22100000D02*
X236000000Y24500000D01*
X238400000Y14000000D02*
X238400000Y22100000D01*
X241000000Y33100000D02*
X241100000Y33000000D01*
X241000000Y36500000D02*
X241000000Y33100000D01*
X121151999Y23651999D02*
X111000000Y13500000D01*
X180578997Y23651999D02*
X121151999Y23651999D01*
X220874999Y24725001D02*
X181651999Y24725001D01*
X181651999Y24725001D02*
X180578997Y23651999D01*
X231600000Y14000000D02*
X220874999Y24725001D01*
X152900000Y33000000D02*
X155275021Y33000000D01*
X155275021Y33000000D02*
X156500000Y34224979D01*
X179100000Y71000000D02*
X185900000Y71000000D01*
X24400000Y52000000D02*
X17600000Y52000000D01*
X74600000Y52000000D02*
X81400000Y52000000D01*
X108100000Y33000000D02*
X114900000Y33000000D01*
X195400000Y52000000D02*
X188600000Y52000000D01*
X79600000Y14000000D02*
X86400000Y14000000D01*
X17600000Y52000000D02*
X8500000Y42900000D01*
X8500000Y42900000D02*
X8500000Y19863589D01*
X8500000Y19863589D02*
X16813600Y11549989D01*
X16813600Y11549989D02*
X77899989Y11549989D01*
X77899989Y11549989D02*
X79600000Y13250000D01*
X79600000Y13250000D02*
X79600000Y14000000D01*
X175500000Y67400000D02*
X175500000Y59000000D01*
X179100000Y71000000D02*
X175500000Y67400000D01*
X183500000Y52000000D02*
X188600000Y52000000D01*
X81400000Y55400000D02*
X81500000Y55500000D01*
X81400000Y52000000D02*
X81400000Y55400000D01*
X108100000Y33400000D02*
X108100000Y33000000D01*
X106500000Y35000000D02*
X108100000Y33400000D01*
X115000000Y33000000D02*
X119500000Y37500000D01*
X114900000Y33000000D02*
X115000000Y33000000D01*
X118500000Y22500000D02*
X118500000Y29400000D01*
X118500000Y29400000D02*
X114900000Y33000000D01*
X108000000Y12000000D02*
X118500000Y22500000D01*
X88400000Y12000000D02*
X108000000Y12000000D01*
X86400000Y14000000D02*
X88400000Y12000000D01*
X86500000Y14000000D02*
X89000000Y16500000D01*
X86400000Y14000000D02*
X86500000Y14000000D01*
X134100000Y35400000D02*
X159490585Y35400000D01*
X183100001Y45100001D02*
X183500000Y45500000D01*
X159490585Y35400000D02*
X164265597Y40175012D01*
X164265597Y40175012D02*
X178175012Y40175012D01*
X178175012Y40175012D02*
X183100001Y45100001D01*
X128500000Y41000000D02*
X134100000Y35400000D01*
X67400000Y14000000D02*
X60600000Y14000000D01*
X62400000Y52000000D02*
X55600000Y52000000D01*
X19900000Y33000000D02*
X13100000Y33000000D01*
X84100000Y71000000D02*
X90900000Y71000000D01*
X214400000Y52000000D02*
X207600000Y52000000D01*
X176400000Y52000000D02*
X169600000Y52000000D01*
X58600000Y12000000D02*
X60600000Y14000000D01*
X17000000Y12000000D02*
X58600000Y12000000D01*
X9000000Y20000000D02*
X17000000Y12000000D01*
X9000000Y28900000D02*
X9000000Y20000000D01*
X13100000Y33000000D02*
X9000000Y28900000D01*
X65100000Y52000000D02*
X84100000Y71000000D01*
X62400000Y52000000D02*
X65100000Y52000000D01*
X177900000Y53500000D02*
X176400000Y52000000D01*
X206100000Y53500000D02*
X177900000Y53500000D01*
X207600000Y52000000D02*
X206100000Y53500000D01*
X62400000Y55600000D02*
X62000000Y56000000D01*
X62400000Y52000000D02*
X62400000Y55600000D01*
X60500000Y14100000D02*
X60600000Y14000000D01*
X60500000Y16500000D02*
X60500000Y14100000D01*
X92500000Y72600000D02*
X90900000Y71000000D01*
X92500000Y74000000D02*
X92500000Y72600000D01*
X91500000Y87500000D02*
X90500000Y86500000D01*
X156500000Y87500000D02*
X91500000Y87500000D01*
X171686400Y72313600D02*
X156500000Y87500000D01*
X174774999Y68361412D02*
X171686400Y71450011D01*
X174774999Y53625001D02*
X174774999Y68361412D01*
X171686400Y71450011D02*
X171686400Y72313600D01*
X176400000Y52000000D02*
X174774999Y53625001D01*
X73900000Y20500000D02*
X114500000Y20500000D01*
X67400000Y14000000D02*
X73900000Y20500000D01*
X130000000Y14500000D02*
X130000000Y11500000D01*
X129500000Y15000000D02*
X130000000Y14500000D01*
X134000000Y5500000D02*
X134000000Y6500000D01*
X136000000Y3500000D02*
X134000000Y5500000D01*
X122100000Y71000000D02*
X128900000Y71000000D01*
X52900000Y71000000D02*
X46100000Y71000000D01*
X89100000Y33000000D02*
X95900000Y33000000D01*
X48400000Y14000000D02*
X41600000Y14000000D01*
X157400000Y52000000D02*
X150600000Y52000000D01*
X257400000Y14000000D02*
X250600000Y14000000D01*
X219400000Y14000000D02*
X212600000Y14000000D01*
X48400000Y14000000D02*
X48400000Y15400000D01*
X48400000Y15400000D02*
X55000000Y22000000D01*
X55000000Y22000000D02*
X75000000Y22000000D01*
X86000000Y33000000D02*
X89100000Y33000000D01*
X75000000Y22000000D02*
X86000000Y33000000D01*
X55000000Y22000000D02*
X55000000Y23500000D01*
X52900000Y70600000D02*
X52900000Y71000000D01*
X54500000Y69000000D02*
X52900000Y70600000D01*
X131600000Y71000000D02*
X150600000Y52000000D01*
X128900000Y71000000D02*
X131600000Y71000000D01*
X99000000Y33000000D02*
X101000000Y31000000D01*
X95900000Y33000000D02*
X99000000Y33000000D01*
X122000000Y71000000D02*
X122100000Y71000000D01*
X116500000Y65500000D02*
X122000000Y71000000D01*
X202600000Y24000000D02*
X182000000Y24000000D01*
X212600000Y14000000D02*
X202600000Y24000000D01*
X151500000Y-2000000D02*
X185500000Y-2000000D01*
X142500000Y-4500000D02*
X149000000Y-4500000D01*
X141909800Y-3909800D02*
X142500000Y-4500000D01*
X149000000Y-4500000D02*
X151500000Y-2000000D01*
X141909800Y-3300000D02*
X141909800Y-3909800D01*
X221400000Y12000000D02*
X219400000Y14000000D01*
X248600000Y12000000D02*
X221400000Y12000000D01*
X250600000Y14000000D02*
X248600000Y12000000D01*
X157400000Y52000000D02*
X157400000Y51250000D01*
X157400000Y51250000D02*
X157924990Y50725010D01*
X157924990Y50725010D02*
X173500000Y50725010D01*
X38900000Y33000000D02*
X32100000Y33000000D01*
X29400000Y14000000D02*
X22600000Y14000000D01*
X36600000Y52000000D02*
X43400000Y52000000D01*
X264600000Y52000000D02*
X271400000Y52000000D01*
X181400000Y14000000D02*
X174600000Y14000000D01*
X171900000Y33000000D02*
X165100000Y33000000D01*
X133900000Y33000000D02*
X127100000Y33000000D01*
X29400000Y30300000D02*
X32100000Y33000000D01*
X29400000Y14000000D02*
X29400000Y30300000D01*
X117600000Y42500000D02*
X127100000Y33000000D01*
X75000000Y42500000D02*
X117600000Y42500000D01*
X52000000Y49500000D02*
X68000000Y49500000D01*
X38900000Y36400000D02*
X52000000Y49500000D01*
X68000000Y49500000D02*
X75000000Y42500000D01*
X38900000Y33000000D02*
X38900000Y36400000D01*
X32500000Y47900000D02*
X36600000Y52000000D01*
X32500000Y42500000D02*
X32500000Y47900000D01*
X38900000Y36100000D02*
X32500000Y42500000D01*
X38900000Y33000000D02*
X38900000Y36100000D01*
X174274999Y7274999D02*
X174500000Y7500000D01*
X142774999Y7274999D02*
X174274999Y7274999D01*
X138500000Y3000000D02*
X142774999Y7274999D01*
X181000000Y14400000D02*
X181400000Y14000000D01*
X181000000Y16500000D02*
X181000000Y14400000D01*
X174400000Y30500000D02*
X171900000Y33000000D01*
X275500000Y37000000D02*
X269000000Y30500000D01*
X275500000Y47900000D02*
X275500000Y37000000D01*
X271400000Y52000000D02*
X275500000Y47900000D01*
X178500000Y30500000D02*
X178500000Y29725000D01*
X269000000Y30500000D02*
X178500000Y30500000D01*
X178500000Y30500000D02*
X174400000Y30500000D01*
X171900000Y33750000D02*
X171900000Y33000000D01*
X159676985Y34949989D02*
X164251998Y39525002D01*
X135849989Y34949989D02*
X159676985Y34949989D01*
X164251998Y39525002D02*
X166124998Y39525002D01*
X166124998Y39525002D02*
X171900000Y33750000D01*
X133900000Y33000000D02*
X135849989Y34949989D01*
X65100000Y71000000D02*
X71900000Y71000000D01*
X138400000Y52000000D02*
X131600000Y52000000D01*
X242900000Y52000000D02*
X236100000Y52000000D01*
X228900000Y33000000D02*
X203100000Y33000000D01*
X200400000Y14000000D02*
X193600000Y14000000D01*
X162400000Y14000000D02*
X155600000Y14000000D01*
X71900000Y71000000D02*
X76500000Y71000000D01*
X131500000Y52100000D02*
X131600000Y52000000D01*
X131500000Y55500000D02*
X131500000Y52100000D01*
X228900000Y44800000D02*
X228900000Y33000000D01*
X236100000Y52000000D02*
X228900000Y44800000D01*
X164400000Y12000000D02*
X191600000Y12000000D01*
X162400000Y14000000D02*
X164400000Y12000000D01*
X191600000Y12000000D02*
X193600000Y14000000D01*
X200400000Y21100000D02*
X200000000Y21500000D01*
X200400000Y14000000D02*
X200400000Y21100000D01*
X198000000Y33000000D02*
X203100000Y33000000D01*
X138400000Y52400000D02*
X140000000Y54000000D01*
X138400000Y52000000D02*
X138400000Y52400000D01*
X155100000Y13500000D02*
X155600000Y14000000D01*
X151500000Y13500000D02*
X155100000Y13500000D01*
X150000000Y-5000000D02*
X151500000Y-3500000D01*
X140639800Y-3300000D02*
X140639800Y-4139800D01*
X140639800Y-4139800D02*
X141500000Y-5000000D01*
X141500000Y-5000000D02*
X150000000Y-5000000D01*
X247400000Y67000000D02*
X240600000Y67000000D01*
X271400000Y48000000D02*
X236100000Y48000000D01*
X28900000Y67000000D02*
X22100000Y67000000D01*
X257400000Y10000000D02*
X250600000Y10000000D01*
X139369800Y130200D02*
X139369800Y-2030000D01*
X138500000Y1000000D02*
X139369800Y130200D01*
X26727179Y1000000D02*
X138500000Y1000000D01*
X8049991Y19677188D02*
X26727179Y1000000D01*
X8049991Y52949991D02*
X8049991Y19677188D01*
X22100000Y67000000D02*
X8049991Y52949991D01*
X250500000Y63900000D02*
X247400000Y67000000D01*
X250500000Y55600000D02*
X250500000Y63900000D01*
X242900000Y48000000D02*
X250500000Y55600000D01*
X264600000Y39900000D02*
X265000000Y39500000D01*
X264600000Y48000000D02*
X264600000Y39900000D01*
X257900000Y10500000D02*
X257400000Y10000000D01*
X264500000Y10500000D02*
X257900000Y10500000D01*
X139369800Y130200D02*
X139369800Y369800D01*
X247769800Y369800D02*
X257400000Y10000000D01*
X139369800Y369800D02*
X247769800Y369800D01*
X223900000Y67000000D02*
X179100000Y67000000D01*
X238400000Y10000000D02*
X212600000Y10000000D01*
X214400000Y48000000D02*
X207600000Y48000000D01*
X181400000Y10000000D02*
X155600000Y10000000D01*
X204900000Y67000000D02*
X209000000Y67000000D01*
X209000000Y67000000D02*
X220000000Y56000000D01*
X220000000Y53600000D02*
X214400000Y48000000D01*
X220000000Y56000000D02*
X220000000Y53600000D01*
X153600000Y8000000D02*
X155600000Y10000000D01*
X153000000Y8000000D02*
X153600000Y8000000D01*
X155600001Y-4399999D02*
X156000000Y-4000000D01*
X154549989Y-5450011D02*
X155600001Y-4399999D01*
X140450011Y-5450011D02*
X154549989Y-5450011D01*
X139369800Y-3300000D02*
X139369800Y-4369800D01*
X139369800Y-4369800D02*
X140450011Y-5450011D01*
X185400000Y6000000D02*
X181400000Y10000000D01*
X208600000Y6000000D02*
X185400000Y6000000D01*
X212600000Y10000000D02*
X208600000Y6000000D01*
X214400000Y43600000D02*
X215500000Y42500000D01*
X214400000Y48000000D02*
X214400000Y43600000D01*
X216000000Y6600000D02*
X219400000Y10000000D01*
X216000000Y6000000D02*
X216000000Y6600000D01*
X22600000Y10000000D02*
X143400000Y10000000D01*
X200400000Y10000000D02*
X193600000Y10000000D01*
X193600000Y10000000D02*
X192050011Y11549989D01*
X192050011Y11549989D02*
X144199989Y11549989D01*
X144199989Y11549989D02*
X143400000Y10750000D01*
X143400000Y10750000D02*
X143400000Y10000000D01*
X136500000Y-430200D02*
X136500000Y0D01*
X138099800Y-2030000D02*
X136500000Y-430200D01*
X105400000Y4900000D02*
X105400000Y10000000D01*
X103500000Y3000000D02*
X105400000Y4900000D01*
X142900000Y86000000D02*
X136100000Y86000000D01*
X266900000Y29000000D02*
X241100000Y29000000D01*
X19900000Y29000000D02*
X13100000Y29000000D01*
X17600000Y48000000D02*
X24400000Y48000000D01*
X71900000Y67000000D02*
X46100000Y67000000D01*
X133900000Y29000000D02*
X127100000Y29000000D01*
X43400000Y67000000D02*
X24400000Y48000000D01*
X46100000Y67000000D02*
X43400000Y67000000D01*
X19900000Y29000000D02*
X23500000Y29000000D01*
X24400000Y29900000D02*
X24400000Y48000000D01*
X23500000Y29000000D02*
X24400000Y29900000D01*
X134700000Y84600000D02*
X136100000Y86000000D01*
X93600000Y84600000D02*
X134700000Y84600000D01*
X76000000Y67000000D02*
X93600000Y84600000D01*
X71900000Y67000000D02*
X76000000Y67000000D01*
X136100000Y78600000D02*
X136000000Y78500000D01*
X136100000Y86000000D02*
X136100000Y78600000D01*
X137000000Y29000000D02*
X133900000Y29000000D01*
X138500000Y30500000D02*
X137000000Y29000000D01*
X155500000Y30500000D02*
X138500000Y30500000D01*
X156000000Y31000000D02*
X155500000Y30500000D01*
X238500000Y27000000D02*
X160000000Y27000000D01*
X239100000Y27000000D02*
X238500000Y27000000D01*
X241100000Y29000000D02*
X239100000Y27000000D01*
X159599978Y-5900022D02*
X159600001Y-5899999D01*
X139400022Y-5900022D02*
X159599978Y-5900022D01*
X159600001Y-5899999D02*
X160000000Y-5500000D01*
X138099800Y-4599800D02*
X139400022Y-5900022D01*
X138099800Y-3300000D02*
X138099800Y-4599800D01*
X114900000Y29000000D02*
X89100000Y29000000D01*
X57900000Y29000000D02*
X32100000Y29000000D01*
X55600000Y48000000D02*
X62400000Y48000000D01*
X109900000Y67000000D02*
X103100000Y67000000D01*
X152900000Y29000000D02*
X146100000Y29000000D01*
X203100000Y29000000D02*
X209900000Y29000000D01*
X102600000Y34500000D02*
X108100000Y29000000D01*
X62650000Y34500000D02*
X102600000Y34500000D01*
X57900000Y29750000D02*
X62650000Y34500000D01*
X57900000Y29000000D02*
X57900000Y29750000D01*
X62400000Y34750000D02*
X62650000Y34500000D01*
X62400000Y48000000D02*
X62400000Y34750000D01*
X103100000Y63400000D02*
X106500000Y60000000D01*
X103100000Y67000000D02*
X103100000Y63400000D01*
X103000000Y34500000D02*
X102600000Y34500000D01*
X106000000Y37500000D02*
X103000000Y34500000D01*
X135799800Y-1000000D02*
X96500000Y-1000000D01*
X136829800Y-2030000D02*
X135799800Y-1000000D01*
X89100000Y26100000D02*
X89100000Y29000000D01*
X86000000Y23000000D02*
X89100000Y26100000D01*
X203100000Y29000000D02*
X200000000Y29000000D01*
X200000000Y26000000D02*
X142000000Y26000000D01*
X142000000Y29000000D02*
X146100000Y29000000D01*
X114900000Y24600000D02*
X116000000Y23500000D01*
X114900000Y29000000D02*
X114900000Y24600000D01*
X128500000Y26000000D02*
X142000000Y26000000D01*
X128000000Y25500000D02*
X128500000Y26000000D01*
X166900000Y67000000D02*
X141100000Y67000000D01*
X165100000Y29000000D02*
X190900000Y29000000D01*
X147900000Y63400000D02*
X147900000Y67000000D01*
X147500000Y63000000D02*
X147900000Y63400000D01*
X133500000Y8000000D02*
X148500000Y8000000D01*
X128000000Y2500000D02*
X133500000Y8000000D01*
X140425010Y48000000D02*
X141500000Y46925010D01*
X169600000Y48000000D02*
X170000000Y47600000D01*
X138400000Y48000000D02*
X142500000Y52100000D01*
X170000000Y47600000D02*
X170000000Y44874990D01*
X138400000Y48000000D02*
X140425010Y48000000D01*
X142500000Y52100000D02*
X142500000Y55725010D01*
X142500000Y55725010D02*
X142349845Y55875165D01*
X165100000Y29000000D02*
X163250000Y29000000D01*
X160800000Y31450000D02*
X160800000Y34000000D01*
X163250000Y29000000D02*
X160800000Y31450000D01*
X131600000Y48000000D02*
X138400000Y48000000D01*
X138400000Y48000000D02*
X150600000Y48000000D01*
X150600000Y48000000D02*
X157400000Y48000000D01*
X157400000Y48000000D02*
X169600000Y48000000D01*
X169600000Y48000000D02*
X176400000Y48000000D01*
X176400000Y48000000D02*
X195400000Y48000000D01*
X36600000Y48000000D02*
X43400000Y48000000D01*
X84100000Y67000000D02*
X90900000Y67000000D01*
X122100000Y67000000D02*
X128900000Y67000000D01*
X76900000Y29000000D02*
X70100000Y29000000D01*
X222100000Y29000000D02*
X228900000Y29000000D01*
X84100000Y67000000D02*
X84100000Y49400000D01*
X85000000Y48500000D02*
X85000000Y48000000D01*
X84100000Y49400000D02*
X85000000Y48500000D01*
X85000000Y48000000D02*
X74600000Y48000000D01*
X119400000Y48000000D02*
X85000000Y48000000D01*
X72600000Y50000000D02*
X74600000Y48000000D01*
X45400000Y50000000D02*
X72600000Y50000000D01*
X43400000Y48000000D02*
X45400000Y50000000D01*
X74600000Y46900000D02*
X76500000Y45000000D01*
X74600000Y48000000D02*
X74600000Y46900000D01*
X69100000Y30000000D02*
X70100000Y29000000D01*
X65500000Y30000000D02*
X69100000Y30000000D01*
X128900000Y51326998D02*
X128900000Y67000000D01*
X125573002Y48000000D02*
X128900000Y51326998D01*
X119400000Y48000000D02*
X125573002Y48000000D01*
X75800000Y-3300000D02*
X74000000Y-1500000D01*
X135559800Y-3300000D02*
X75800000Y-3300000D01*
X70500000Y28600000D02*
X70100000Y29000000D01*
X70500000Y26000000D02*
X70500000Y28600000D01*
X125674999Y28174999D02*
X122000000Y24500000D01*
X221274999Y28174999D02*
X125674999Y28174999D01*
X222100000Y29000000D02*
X221274999Y28174999D01*
X118000000Y46600000D02*
X119400000Y48000000D01*
X118000000Y45000000D02*
X118000000Y46600000D01*
M02*
