G04 #@! TF.GenerationSoftware,KiCad,Pcbnew,(5.1.10)-1*
G04 #@! TF.CreationDate,2022-08-14T11:16:36-04:00*
G04 #@! TF.ProjectId,KBAdapter,4b424164-6170-4746-9572-2e6b69636164,rev?*
G04 #@! TF.SameCoordinates,Original*
G04 #@! TF.FileFunction,Copper,L1,Top*
G04 #@! TF.FilePolarity,Positive*
%FSLAX46Y46*%
G04 Gerber Fmt 4.6, Leading zero omitted, Abs format (unit mm)*
G04 Created by KiCad (PCBNEW (5.1.10)-1) date 2022-08-14 11:16:36*
%MOMM*%
%LPD*%
G01*
G04 APERTURE LIST*
G04 #@! TA.AperFunction,ConnectorPad*
%ADD10R,8.000000X2.000000*%
G04 #@! TD*
G04 #@! TA.AperFunction,SMDPad,CuDef*
%ADD11R,2.100000X0.750000*%
G04 #@! TD*
G04 #@! TA.AperFunction,Conductor*
%ADD12C,0.500000*%
G04 #@! TD*
G04 #@! TA.AperFunction,Conductor*
%ADD13C,0.200000*%
G04 #@! TD*
G04 APERTURE END LIST*
D10*
X172500000Y-113550000D03*
X172500000Y-111010000D03*
X172500000Y-108470000D03*
X172500000Y-105930000D03*
X172500000Y-103390000D03*
X172500000Y-100850000D03*
X172500000Y-98310000D03*
X172500000Y-95770000D03*
X172500000Y-93230000D03*
X172500000Y-90690000D03*
X172500000Y-88150000D03*
X172500000Y-85610000D03*
X172500000Y-83070000D03*
X172500000Y-80530000D03*
X172500000Y-77990000D03*
X172500000Y-75450000D03*
D11*
X106900000Y-100345000D03*
X110500000Y-100345000D03*
X106900000Y-99075000D03*
X110500000Y-99075000D03*
X106900000Y-97805000D03*
X110500000Y-97805000D03*
X106900000Y-96535000D03*
X110500000Y-96535000D03*
X106900000Y-95265000D03*
X110500000Y-95265000D03*
X106900000Y-93995000D03*
X110500000Y-93995000D03*
X106900000Y-92725000D03*
X110500000Y-92725000D03*
X106900000Y-91455000D03*
X110500000Y-91455000D03*
D12*
X126947360Y-75450000D02*
X172500000Y-75450000D01*
D13*
X110500000Y-91455000D02*
X110500000Y-90500000D01*
X125550000Y-75450000D02*
X126947360Y-75450000D01*
X110500000Y-90500000D02*
X125550000Y-75450000D01*
D12*
X172500000Y-77990000D02*
X126490160Y-77990000D01*
D13*
X107475001Y-92030001D02*
X111669999Y-92030001D01*
X106900000Y-91455000D02*
X107475001Y-92030001D01*
X125710000Y-77990000D02*
X126490160Y-77990000D01*
X111669999Y-92030001D02*
X125710000Y-77990000D01*
D12*
X172500000Y-83070000D02*
X123630120Y-83070000D01*
D13*
X107475001Y-93300001D02*
X111999999Y-93300001D01*
X106900000Y-92725000D02*
X107475001Y-93300001D01*
X122230000Y-83070000D02*
X123630120Y-83070000D01*
X111999999Y-93300001D02*
X122230000Y-83070000D01*
D12*
X172500000Y-85610000D02*
X123807920Y-85610000D01*
D13*
X110500000Y-93995000D02*
X113505000Y-93995000D01*
X121890000Y-85610000D02*
X123807920Y-85610000D01*
X113505000Y-93995000D02*
X121890000Y-85610000D01*
D12*
X172500000Y-88150000D02*
X124295600Y-88150000D01*
D13*
X107475001Y-94570001D02*
X115629999Y-94570001D01*
X106900000Y-93995000D02*
X107475001Y-94570001D01*
X122050000Y-88150000D02*
X124295600Y-88150000D01*
X115629999Y-94570001D02*
X122050000Y-88150000D01*
D12*
X172500000Y-90690000D02*
X125220160Y-90690000D01*
D13*
X110500000Y-95265000D02*
X118035000Y-95265000D01*
X122610000Y-90690000D02*
X125220160Y-90690000D01*
X118035000Y-95265000D02*
X122610000Y-90690000D01*
D12*
X172500000Y-93230000D02*
X127115000Y-93230000D01*
D13*
X107475001Y-95840001D02*
X121659999Y-95840001D01*
X106900000Y-95265000D02*
X107475001Y-95840001D01*
X124270000Y-93230000D02*
X127115000Y-93230000D01*
X121659999Y-95840001D02*
X124270000Y-93230000D01*
D12*
X172500000Y-95770000D02*
X127612840Y-95770000D01*
D13*
X110500000Y-96535000D02*
X123865000Y-96535000D01*
X124630000Y-95770000D02*
X127612840Y-95770000D01*
X123865000Y-96535000D02*
X124630000Y-95770000D01*
D12*
X172500000Y-98310000D02*
X124294200Y-98310000D01*
D13*
X107475001Y-97110001D02*
X121110001Y-97110001D01*
X106900000Y-96535000D02*
X107475001Y-97110001D01*
X122310000Y-98310000D02*
X124294200Y-98310000D01*
X121110001Y-97110001D02*
X122310000Y-98310000D01*
D12*
X172500000Y-100850000D02*
X125162880Y-100850000D01*
D13*
X110500000Y-97805000D02*
X119605000Y-97805000D01*
X122650000Y-100850000D02*
X125162880Y-100850000D01*
X119605000Y-97805000D02*
X122650000Y-100850000D01*
D12*
X172500000Y-103390000D02*
X125564200Y-103390000D01*
D13*
X107475001Y-98380001D02*
X118080001Y-98380001D01*
X106900000Y-97805000D02*
X107475001Y-98380001D01*
X123090000Y-103390000D02*
X125564200Y-103390000D01*
X118080001Y-98380001D02*
X123090000Y-103390000D01*
D12*
X172500000Y-105930000D02*
X126143320Y-105930000D01*
X126143320Y-105930000D02*
X126117920Y-105930000D01*
D13*
X110500000Y-99075000D02*
X116375000Y-99075000D01*
X123230000Y-105930000D02*
X126143320Y-105930000D01*
X116375000Y-99075000D02*
X123230000Y-105930000D01*
D12*
X172500000Y-108470000D02*
X126554278Y-108470000D01*
X126554278Y-108470000D02*
X126539560Y-108470000D01*
D13*
X107594999Y-99769999D02*
X114569999Y-99769999D01*
X106900000Y-99075000D02*
X107594999Y-99769999D01*
X123270000Y-108470000D02*
X126554278Y-108470000D01*
X114569999Y-99769999D02*
X123270000Y-108470000D01*
D12*
X172500000Y-111010000D02*
X126473520Y-111010000D01*
X126473520Y-111010000D02*
X126422720Y-111010000D01*
D13*
X110500000Y-100345000D02*
X111845000Y-100345000D01*
X122510000Y-111010000D02*
X126473520Y-111010000D01*
X111845000Y-100345000D02*
X122510000Y-111010000D01*
D12*
X172500000Y-113550000D02*
X126239840Y-113550000D01*
X126239840Y-113550000D02*
X126183960Y-113550000D01*
D13*
X120105000Y-113550000D02*
X126239840Y-113550000D01*
X106900000Y-100345000D02*
X120105000Y-113550000D01*
M02*
