G04 #@! TF.GenerationSoftware,KiCad,Pcbnew,(5.1.10)-1*
G04 #@! TF.CreationDate,2022-08-14T11:16:36-04:00*
G04 #@! TF.ProjectId,KBAdapter,4b424164-6170-4746-9572-2e6b69636164,rev?*
G04 #@! TF.SameCoordinates,Original*
G04 #@! TF.FileFunction,Legend,Top*
G04 #@! TF.FilePolarity,Positive*
%FSLAX46Y46*%
G04 Gerber Fmt 4.6, Leading zero omitted, Abs format (unit mm)*
G04 Created by KiCad (PCBNEW (5.1.10)-1) date 2022-08-14 11:16:36*
%MOMM*%
%LPD*%
G01*
G04 APERTURE LIST*
%ADD10C,0.187500*%
%ADD11C,0.250000*%
%ADD12C,0.500000*%
%ADD13C,0.120000*%
%ADD14C,0.150000*%
G04 APERTURE END LIST*
D10*
X110260714Y-86390476D02*
X111010714Y-86390476D01*
X111010714Y-86771428D01*
X110975000Y-86866666D01*
X110939285Y-86914285D01*
X110867857Y-86961904D01*
X110760714Y-86961904D01*
X110689285Y-86914285D01*
X110653571Y-86866666D01*
X110617857Y-86771428D01*
X110617857Y-86390476D01*
X110260714Y-87390476D02*
X110760714Y-87390476D01*
X111010714Y-87390476D02*
X110975000Y-87342857D01*
X110939285Y-87390476D01*
X110975000Y-87438095D01*
X111010714Y-87390476D01*
X110939285Y-87390476D01*
X110760714Y-87866666D02*
X110260714Y-87866666D01*
X110689285Y-87866666D02*
X110725000Y-87914285D01*
X110760714Y-88009523D01*
X110760714Y-88152380D01*
X110725000Y-88247619D01*
X110653571Y-88295238D01*
X110260714Y-88295238D01*
X110260714Y-90057142D02*
X110260714Y-89485714D01*
X110260714Y-89771428D02*
X111010714Y-89771428D01*
X110903571Y-89676190D01*
X110832142Y-89580952D01*
X110796428Y-89485714D01*
D11*
X141547619Y-80595238D02*
X141547619Y-81738095D01*
X140547619Y-81166666D02*
X141547619Y-81166666D01*
X140547619Y-82404761D02*
X141547619Y-82404761D01*
X140547619Y-83261904D02*
X141071428Y-83261904D01*
X141166666Y-83166666D01*
X141214285Y-82976190D01*
X141214285Y-82690476D01*
X141166666Y-82499999D01*
X141119047Y-82404761D01*
X140547619Y-84214285D02*
X141214285Y-84214285D01*
X141547619Y-84214285D02*
X141500000Y-84119047D01*
X141452380Y-84214285D01*
X141500000Y-84309523D01*
X141547619Y-84214285D01*
X141452380Y-84214285D01*
X140595238Y-85071428D02*
X140547619Y-85261904D01*
X140547619Y-85642857D01*
X140595238Y-85833333D01*
X140690476Y-85928571D01*
X140738095Y-85928571D01*
X140833333Y-85833333D01*
X140880952Y-85642857D01*
X140880952Y-85357142D01*
X140928571Y-85166666D01*
X141023809Y-85071428D01*
X141071428Y-85071428D01*
X141166666Y-85166666D01*
X141214285Y-85357142D01*
X141214285Y-85642857D01*
X141166666Y-85833333D01*
X140595238Y-88214285D02*
X140547619Y-88404761D01*
X140547619Y-88785714D01*
X140595238Y-88976190D01*
X140690476Y-89071428D01*
X140738095Y-89071428D01*
X140833333Y-88976190D01*
X140880952Y-88785714D01*
X140880952Y-88500000D01*
X140928571Y-88309523D01*
X141023809Y-88214285D01*
X141071428Y-88214285D01*
X141166666Y-88309523D01*
X141214285Y-88500000D01*
X141214285Y-88785714D01*
X141166666Y-88976190D01*
X140547619Y-89928571D02*
X141214285Y-89928571D01*
X141547619Y-89928571D02*
X141500000Y-89833333D01*
X141452380Y-89928571D01*
X141500000Y-90023809D01*
X141547619Y-89928571D01*
X141452380Y-89928571D01*
X140547619Y-91738095D02*
X141547619Y-91738095D01*
X140595238Y-91738095D02*
X140547619Y-91547619D01*
X140547619Y-91166666D01*
X140595238Y-90976190D01*
X140642857Y-90880952D01*
X140738095Y-90785714D01*
X141023809Y-90785714D01*
X141119047Y-90880952D01*
X141166666Y-90976190D01*
X141214285Y-91166666D01*
X141214285Y-91547619D01*
X141166666Y-91738095D01*
X140595238Y-93452380D02*
X140547619Y-93261904D01*
X140547619Y-92880952D01*
X140595238Y-92690476D01*
X140690476Y-92595238D01*
X141071428Y-92595238D01*
X141166666Y-92690476D01*
X141214285Y-92880952D01*
X141214285Y-93261904D01*
X141166666Y-93452380D01*
X141071428Y-93547619D01*
X140976190Y-93547619D01*
X140880952Y-92595238D01*
X141214285Y-95642857D02*
X141214285Y-96404761D01*
X140547619Y-95928571D02*
X141404761Y-95928571D01*
X141500000Y-96023809D01*
X141547619Y-96214285D01*
X141547619Y-96404761D01*
X140547619Y-97928571D02*
X141071428Y-97928571D01*
X141166666Y-97833333D01*
X141214285Y-97642857D01*
X141214285Y-97261904D01*
X141166666Y-97071428D01*
X140595238Y-97928571D02*
X140547619Y-97738095D01*
X140547619Y-97261904D01*
X140595238Y-97071428D01*
X140690476Y-96976190D01*
X140785714Y-96976190D01*
X140880952Y-97071428D01*
X140928571Y-97261904D01*
X140928571Y-97738095D01*
X140976190Y-97928571D01*
X140595238Y-99738095D02*
X140547619Y-99547619D01*
X140547619Y-99166666D01*
X140595238Y-98976190D01*
X140642857Y-98880952D01*
X140738095Y-98785714D01*
X141023809Y-98785714D01*
X141119047Y-98880952D01*
X141166666Y-98976190D01*
X141214285Y-99166666D01*
X141214285Y-99547619D01*
X141166666Y-99738095D01*
X140595238Y-101357142D02*
X140547619Y-101166666D01*
X140547619Y-100785714D01*
X140595238Y-100595238D01*
X140690476Y-100500000D01*
X141071428Y-100500000D01*
X141166666Y-100595238D01*
X141214285Y-100785714D01*
X141214285Y-101166666D01*
X141166666Y-101357142D01*
X141071428Y-101452380D01*
X140976190Y-101452380D01*
X140880952Y-100500000D01*
X140595238Y-102214285D02*
X140547619Y-102404761D01*
X140547619Y-102785714D01*
X140595238Y-102976190D01*
X140690476Y-103071428D01*
X140738095Y-103071428D01*
X140833333Y-102976190D01*
X140880952Y-102785714D01*
X140880952Y-102500000D01*
X140928571Y-102309523D01*
X141023809Y-102214285D01*
X141071428Y-102214285D01*
X141166666Y-102309523D01*
X141214285Y-102500000D01*
X141214285Y-102785714D01*
X141166666Y-102976190D01*
X141214285Y-106309523D02*
X140547619Y-106309523D01*
X141214285Y-105452380D02*
X140690476Y-105452380D01*
X140595238Y-105547619D01*
X140547619Y-105738095D01*
X140547619Y-106023809D01*
X140595238Y-106214285D01*
X140642857Y-106309523D01*
X141214285Y-107261904D02*
X140214285Y-107261904D01*
X141166666Y-107261904D02*
X141214285Y-107452380D01*
X141214285Y-107833333D01*
X141166666Y-108023809D01*
X141119047Y-108119047D01*
X141023809Y-108214285D01*
X140738095Y-108214285D01*
X140642857Y-108119047D01*
X140595238Y-108023809D01*
X140547619Y-107833333D01*
X140547619Y-107452380D01*
X140595238Y-107261904D01*
D12*
X144590476Y-78547619D02*
X148590476Y-78547619D01*
X144590476Y-79976190D02*
X146876190Y-78904761D01*
X148590476Y-79976190D02*
X146304761Y-78547619D01*
X144780952Y-82000000D02*
X144590476Y-81761904D01*
X144590476Y-81285714D01*
X144780952Y-81047619D01*
X145161904Y-80928571D01*
X146685714Y-80928571D01*
X147066666Y-81047619D01*
X147257142Y-81285714D01*
X147257142Y-81761904D01*
X147066666Y-82000000D01*
X146685714Y-82119047D01*
X146304761Y-82119047D01*
X145923809Y-80928571D01*
X147257142Y-82952380D02*
X144590476Y-83547619D01*
X147257142Y-84142857D02*
X144590476Y-83547619D01*
X143638095Y-83309523D01*
X143447619Y-83190476D01*
X143257142Y-82952380D01*
X144590476Y-85095238D02*
X148590476Y-85095238D01*
X147066666Y-85095238D02*
X147257142Y-85333333D01*
X147257142Y-85809523D01*
X147066666Y-86047619D01*
X146876190Y-86166666D01*
X146495238Y-86285714D01*
X145352380Y-86285714D01*
X144971428Y-86166666D01*
X144780952Y-86047619D01*
X144590476Y-85809523D01*
X144590476Y-85333333D01*
X144780952Y-85095238D01*
X144590476Y-87714285D02*
X144780952Y-87476190D01*
X144971428Y-87357142D01*
X145352380Y-87238095D01*
X146495238Y-87238095D01*
X146876190Y-87357142D01*
X147066666Y-87476190D01*
X147257142Y-87714285D01*
X147257142Y-88071428D01*
X147066666Y-88309523D01*
X146876190Y-88428571D01*
X146495238Y-88547619D01*
X145352380Y-88547619D01*
X144971428Y-88428571D01*
X144780952Y-88309523D01*
X144590476Y-88071428D01*
X144590476Y-87714285D01*
X144590476Y-90690476D02*
X146685714Y-90690476D01*
X147066666Y-90571428D01*
X147257142Y-90333333D01*
X147257142Y-89857142D01*
X147066666Y-89619047D01*
X144780952Y-90690476D02*
X144590476Y-90452380D01*
X144590476Y-89857142D01*
X144780952Y-89619047D01*
X145161904Y-89500000D01*
X145542857Y-89500000D01*
X145923809Y-89619047D01*
X146114285Y-89857142D01*
X146114285Y-90452380D01*
X146304761Y-90690476D01*
X144590476Y-91880952D02*
X147257142Y-91880952D01*
X146495238Y-91880952D02*
X146876190Y-92000000D01*
X147066666Y-92119047D01*
X147257142Y-92357142D01*
X147257142Y-92595238D01*
X144590476Y-94500000D02*
X148590476Y-94500000D01*
X144780952Y-94500000D02*
X144590476Y-94261904D01*
X144590476Y-93785714D01*
X144780952Y-93547619D01*
X144971428Y-93428571D01*
X145352380Y-93309523D01*
X146495238Y-93309523D01*
X146876190Y-93428571D01*
X147066666Y-93547619D01*
X147257142Y-93785714D01*
X147257142Y-94261904D01*
X147066666Y-94500000D01*
X145733333Y-97476190D02*
X145733333Y-98666666D01*
X144590476Y-97238095D02*
X148590476Y-98071428D01*
X144590476Y-98904761D01*
X144590476Y-100809523D02*
X148590476Y-100809523D01*
X144780952Y-100809523D02*
X144590476Y-100571428D01*
X144590476Y-100095238D01*
X144780952Y-99857142D01*
X144971428Y-99738095D01*
X145352380Y-99619047D01*
X146495238Y-99619047D01*
X146876190Y-99738095D01*
X147066666Y-99857142D01*
X147257142Y-100095238D01*
X147257142Y-100571428D01*
X147066666Y-100809523D01*
X144590476Y-103071428D02*
X146685714Y-103071428D01*
X147066666Y-102952380D01*
X147257142Y-102714285D01*
X147257142Y-102238095D01*
X147066666Y-102000000D01*
X144780952Y-103071428D02*
X144590476Y-102833333D01*
X144590476Y-102238095D01*
X144780952Y-102000000D01*
X145161904Y-101880952D01*
X145542857Y-101880952D01*
X145923809Y-102000000D01*
X146114285Y-102238095D01*
X146114285Y-102833333D01*
X146304761Y-103071428D01*
X147257142Y-104261904D02*
X143257142Y-104261904D01*
X147066666Y-104261904D02*
X147257142Y-104500000D01*
X147257142Y-104976190D01*
X147066666Y-105214285D01*
X146876190Y-105333333D01*
X146495238Y-105452380D01*
X145352380Y-105452380D01*
X144971428Y-105333333D01*
X144780952Y-105214285D01*
X144590476Y-104976190D01*
X144590476Y-104500000D01*
X144780952Y-104261904D01*
X147257142Y-106166666D02*
X147257142Y-107119047D01*
X148590476Y-106523809D02*
X145161904Y-106523809D01*
X144780952Y-106642857D01*
X144590476Y-106880952D01*
X144590476Y-107119047D01*
X144780952Y-108904761D02*
X144590476Y-108666666D01*
X144590476Y-108190476D01*
X144780952Y-107952380D01*
X145161904Y-107833333D01*
X146685714Y-107833333D01*
X147066666Y-107952380D01*
X147257142Y-108190476D01*
X147257142Y-108666666D01*
X147066666Y-108904761D01*
X146685714Y-109023809D01*
X146304761Y-109023809D01*
X145923809Y-107833333D01*
X144590476Y-110095238D02*
X147257142Y-110095238D01*
X146495238Y-110095238D02*
X146876190Y-110214285D01*
X147066666Y-110333333D01*
X147257142Y-110571428D01*
X147257142Y-110809523D01*
D13*
X107370000Y-90760000D02*
X110030000Y-90760000D01*
X110030000Y-90760000D02*
X110030000Y-90820000D01*
X110030000Y-100980000D02*
X110030000Y-101040000D01*
X107370000Y-101040000D02*
X110030000Y-101040000D01*
X107370000Y-90760000D02*
X107370000Y-90820000D01*
X107370000Y-100980000D02*
X107370000Y-101040000D01*
X110030000Y-90820000D02*
X111490000Y-90820000D01*
D14*
X165602380Y-94833333D02*
X166316666Y-94833333D01*
X166459523Y-94880952D01*
X166554761Y-94976190D01*
X166602380Y-95119047D01*
X166602380Y-95214285D01*
X165697619Y-94404761D02*
X165650000Y-94357142D01*
X165602380Y-94261904D01*
X165602380Y-94023809D01*
X165650000Y-93928571D01*
X165697619Y-93880952D01*
X165792857Y-93833333D01*
X165888095Y-93833333D01*
X166030952Y-93880952D01*
X166602380Y-94452380D01*
X166602380Y-93833333D01*
X103852380Y-96233333D02*
X104566666Y-96233333D01*
X104709523Y-96280952D01*
X104804761Y-96376190D01*
X104852380Y-96519047D01*
X104852380Y-96614285D01*
X104852380Y-95233333D02*
X104852380Y-95804761D01*
X104852380Y-95519047D02*
X103852380Y-95519047D01*
X103995238Y-95614285D01*
X104090476Y-95709523D01*
X104138095Y-95804761D01*
M02*
