G04 #@! TF.GenerationSoftware,KiCad,Pcbnew,(5.1.10)-1*
G04 #@! TF.CreationDate,2022-08-14T11:16:36-04:00*
G04 #@! TF.ProjectId,KBAdapter,4b424164-6170-4746-9572-2e6b69636164,rev?*
G04 #@! TF.SameCoordinates,Original*
G04 #@! TF.FileFunction,Soldermask,Top*
G04 #@! TF.FilePolarity,Negative*
%FSLAX46Y46*%
G04 Gerber Fmt 4.6, Leading zero omitted, Abs format (unit mm)*
G04 Created by KiCad (PCBNEW (5.1.10)-1) date 2022-08-14 11:16:36*
%MOMM*%
%LPD*%
G01*
G04 APERTURE LIST*
%ADD10C,0.100000*%
%ADD11R,8.000000X2.000000*%
%ADD12R,2.100000X0.750000*%
G04 APERTURE END LIST*
D10*
G36*
X177000000Y-116000000D02*
G01*
X168500000Y-116000000D01*
X168500000Y-73000000D01*
X177000000Y-73000000D01*
X177000000Y-116000000D01*
G37*
X177000000Y-116000000D02*
X168500000Y-116000000D01*
X168500000Y-73000000D01*
X177000000Y-73000000D01*
X177000000Y-116000000D01*
D11*
X172500000Y-113550000D03*
X172500000Y-111010000D03*
X172500000Y-108470000D03*
X172500000Y-105930000D03*
X172500000Y-103390000D03*
X172500000Y-100850000D03*
X172500000Y-98310000D03*
X172500000Y-95770000D03*
X172500000Y-93230000D03*
X172500000Y-90690000D03*
X172500000Y-88150000D03*
X172500000Y-85610000D03*
X172500000Y-83070000D03*
X172500000Y-80530000D03*
X172500000Y-77990000D03*
X172500000Y-75450000D03*
D12*
X106900000Y-100345000D03*
X110500000Y-100345000D03*
X106900000Y-99075000D03*
X110500000Y-99075000D03*
X106900000Y-97805000D03*
X110500000Y-97805000D03*
X106900000Y-96535000D03*
X110500000Y-96535000D03*
X106900000Y-95265000D03*
X110500000Y-95265000D03*
X106900000Y-93995000D03*
X110500000Y-93995000D03*
X106900000Y-92725000D03*
X110500000Y-92725000D03*
X106900000Y-91455000D03*
X110500000Y-91455000D03*
M02*
