G04 #@! TF.GenerationSoftware,KiCad,Pcbnew,(5.1.10)-1*
G04 #@! TF.CreationDate,2022-07-15T10:43:49-04:00*
G04 #@! TF.ProjectId,CoCo2SwitchBoard,436f436f-3253-4776-9974-6368426f6172,1.0*
G04 #@! TF.SameCoordinates,Original*
G04 #@! TF.FileFunction,Paste,Bot*
G04 #@! TF.FilePolarity,Positive*
%FSLAX46Y46*%
G04 Gerber Fmt 4.6, Leading zero omitted, Abs format (unit mm)*
G04 Created by KiCad (PCBNEW (5.1.10)-1) date 2022-07-15 10:43:49*
%MOMM*%
%LPD*%
G01*
G04 APERTURE LIST*
%ADD10R,3.200000X1.000000*%
G04 APERTURE END LIST*
D10*
X167400000Y64500000D03*
X160600000Y64500000D03*
X160600000Y60500000D03*
X167400000Y60500000D03*
X247900000Y64500000D03*
X241100000Y64500000D03*
X241100000Y60500000D03*
X247900000Y60500000D03*
X29900000Y64500000D03*
X23100000Y64500000D03*
X23100000Y60500000D03*
X29900000Y60500000D03*
X224400000Y64500000D03*
X217600000Y64500000D03*
X217600000Y60500000D03*
X224400000Y60500000D03*
X143400000Y7500000D03*
X136600000Y7500000D03*
X136600000Y3500000D03*
X143400000Y3500000D03*
X143400000Y83500000D03*
X136600000Y83500000D03*
X136600000Y79500000D03*
X143400000Y79500000D03*
X57900000Y26500000D03*
X51100000Y26500000D03*
X51100000Y22500000D03*
X57900000Y22500000D03*
X190900000Y26500000D03*
X184100000Y26500000D03*
X184100000Y22500000D03*
X190900000Y22500000D03*
X119400000Y45500000D03*
X112600000Y45500000D03*
X112600000Y41500000D03*
X119400000Y41500000D03*
X205400000Y64500000D03*
X198600000Y64500000D03*
X198600000Y60500000D03*
X205400000Y60500000D03*
X124400000Y7500000D03*
X117600000Y7500000D03*
X117600000Y3500000D03*
X124400000Y3500000D03*
X266900000Y26500000D03*
X260100000Y26500000D03*
X260100000Y22500000D03*
X266900000Y22500000D03*
X110400000Y64500000D03*
X103600000Y64500000D03*
X103600000Y60500000D03*
X110400000Y60500000D03*
X148400000Y64500000D03*
X141600000Y64500000D03*
X141600000Y60500000D03*
X148400000Y60500000D03*
X100400000Y45500000D03*
X93600000Y45500000D03*
X93600000Y41500000D03*
X100400000Y41500000D03*
X238400000Y7500000D03*
X231600000Y7500000D03*
X231600000Y3500000D03*
X238400000Y3500000D03*
X105400000Y7500000D03*
X98600000Y7500000D03*
X98600000Y3500000D03*
X105400000Y3500000D03*
X247900000Y26500000D03*
X241100000Y26500000D03*
X241100000Y22500000D03*
X247900000Y22500000D03*
X152900000Y26500000D03*
X146100000Y26500000D03*
X146100000Y22500000D03*
X152900000Y22500000D03*
X76900000Y26500000D03*
X70100000Y26500000D03*
X70100000Y22500000D03*
X76900000Y22500000D03*
X186400000Y64500000D03*
X179600000Y64500000D03*
X179600000Y60500000D03*
X186400000Y60500000D03*
X86400000Y7500000D03*
X79600000Y7500000D03*
X79600000Y3500000D03*
X86400000Y3500000D03*
X24400000Y45500000D03*
X17600000Y45500000D03*
X17600000Y41500000D03*
X24400000Y41500000D03*
X114900000Y26500000D03*
X108100000Y26500000D03*
X108100000Y22500000D03*
X114900000Y22500000D03*
X195400000Y45500000D03*
X188600000Y45500000D03*
X188600000Y41500000D03*
X195400000Y41500000D03*
X81400000Y45500000D03*
X74600000Y45500000D03*
X74600000Y41500000D03*
X81400000Y41500000D03*
X214400000Y45500000D03*
X207600000Y45500000D03*
X207600000Y41500000D03*
X214400000Y41500000D03*
X67400000Y7500000D03*
X60600000Y7500000D03*
X60600000Y3500000D03*
X67400000Y3500000D03*
X19900000Y26500000D03*
X13100000Y26500000D03*
X13100000Y22500000D03*
X19900000Y22500000D03*
X62400000Y45500000D03*
X55600000Y45500000D03*
X55600000Y41500000D03*
X62400000Y41500000D03*
X176400000Y45500000D03*
X169600000Y45500000D03*
X169600000Y41500000D03*
X176400000Y41500000D03*
X91400000Y64500000D03*
X84600000Y64500000D03*
X84600000Y60500000D03*
X91400000Y60500000D03*
X257400000Y7500000D03*
X250600000Y7500000D03*
X250600000Y3500000D03*
X257400000Y3500000D03*
X219400000Y7500000D03*
X212600000Y7500000D03*
X212600000Y3500000D03*
X219400000Y3500000D03*
X48400000Y7500000D03*
X41600000Y7500000D03*
X41600000Y3500000D03*
X48400000Y3500000D03*
X53400000Y64500000D03*
X46600000Y64500000D03*
X46600000Y60500000D03*
X53400000Y60500000D03*
X95900000Y26500000D03*
X89100000Y26500000D03*
X89100000Y22500000D03*
X95900000Y22500000D03*
X157400000Y45500000D03*
X150600000Y45500000D03*
X150600000Y41500000D03*
X157400000Y41500000D03*
X129400000Y64500000D03*
X122600000Y64500000D03*
X122600000Y60500000D03*
X129400000Y60500000D03*
X261400000Y45500000D03*
X254600000Y45500000D03*
X254600000Y41500000D03*
X261400000Y41500000D03*
X181400000Y7500000D03*
X174600000Y7500000D03*
X174600000Y3500000D03*
X181400000Y3500000D03*
X29400000Y7500000D03*
X22600000Y7500000D03*
X22600000Y3500000D03*
X29400000Y3500000D03*
X133900000Y26500000D03*
X127100000Y26500000D03*
X127100000Y22500000D03*
X133900000Y22500000D03*
X38900000Y26500000D03*
X32100000Y26500000D03*
X32100000Y22500000D03*
X38900000Y22500000D03*
X171900000Y26500000D03*
X165100000Y26500000D03*
X165100000Y22500000D03*
X171900000Y22500000D03*
X43400000Y45500000D03*
X36600000Y45500000D03*
X36600000Y41500000D03*
X43400000Y41500000D03*
X237900000Y45500000D03*
X231100000Y45500000D03*
X231100000Y41500000D03*
X237900000Y41500000D03*
X162400000Y7500000D03*
X155600000Y7500000D03*
X155600000Y3500000D03*
X162400000Y3500000D03*
X200400000Y7500000D03*
X193600000Y7500000D03*
X193600000Y3500000D03*
X200400000Y3500000D03*
X72400000Y64500000D03*
X65600000Y64500000D03*
X65600000Y60500000D03*
X72400000Y60500000D03*
X209900000Y26500000D03*
X203100000Y26500000D03*
X203100000Y22500000D03*
X209900000Y22500000D03*
X138400000Y45500000D03*
X131600000Y45500000D03*
X131600000Y41500000D03*
X138400000Y41500000D03*
X228900000Y26500000D03*
X222100000Y26500000D03*
X222100000Y22500000D03*
X228900000Y22500000D03*
M02*
