M48
INCH,TZ
T1C0.0157
T2C0.0256
%
G90
G05
T1
X7087Y23228
X10630Y18898
X10630Y9843
X10630Y8268
X13971Y25399
X16929Y19291
X18110Y11417
X18504Y7874
X18898Y16142
X19291Y17717
X19685Y14961
X23228Y25197
X23228Y17323
X23622Y5118
X24409Y6693
X25197Y14961
X25984Y19291
X27165Y13386
X28346Y19291
X28740Y1969
X30709Y24803
X31496Y10236
X33071Y14961
X33071Y9843
X33858Y17717
X33858Y11417
X35827Y14173
X37402Y3543
X37795Y25984
X39764Y11417
X39764Y7874
X40551Y17323
X41339Y6299
X42126Y14961
X42520Y17323
X44094Y2756
X44488Y17323
X44488Y15354
X45669Y24803
X45669Y22047
X46457Y24803
X46457Y22047
X47244Y31890
X47244Y22047
X47244Y15748
X47244Y6693
X48031Y17323
X48031Y6299
X49606Y28740
X50394Y7087
X50394Y2825
X50787Y5512
X51181Y18898
X51181Y9449
X51181Y1663
X51181Y787
X51969Y14961
X51969Y3002
X51969Y1683
X51969Y787
X52568Y1712
X52756Y787
X53543Y25197
X53543Y0
X54331Y787
X54724Y6693
X55118Y10236
X55118Y1969
X55507Y-5
X55906Y16929
X56693Y15354
X57087Y6693
X57874Y2756
X58268Y11417
X58268Y3937
X58661Y19685
X58661Y19685
X58661Y9449
X59449Y3150
X59449Y-1181
X60236Y2362
X60236Y1575
X62205Y-787
X62992Y24803
X62992Y14961
X63386Y11417
X64173Y17717
X66142Y14567
X67323Y22441
X69685Y10236
X69685Y3937
X70866Y9843
X70866Y6693
X71260Y12992
X71654Y17717
X71654Y15354
X76378Y14173
X78346Y9843
X78740Y3937
X82677Y22441
X83071Y25197
X83465Y4724
X84252Y11024
X84646Y24803
X84646Y22835
X85827Y11024
X85827Y9843
X86220Y4724
X88976Y7087
X89764Y27165
X92126Y24803
X92126Y16929
X92126Y14567
X95276Y17717
X95276Y14173
X100000Y12205
X106299Y9449
X108268Y9055
T2
X53370Y-799
X53370Y-1299
X53870Y-799
X53870Y-1299
X54370Y-799
X54370Y-1299
X54870Y-799
X54870Y-1299
X55370Y-799
X55370Y-1299
X55870Y-799
X55870Y-1299
X56370Y-799
X56370Y-1299
X56870Y-799
X56870Y-1299
T0
M30
