G04 #@! TF.GenerationSoftware,KiCad,Pcbnew,(5.1.10)-1*
G04 #@! TF.CreationDate,2022-07-15T10:43:49-04:00*
G04 #@! TF.ProjectId,CoCo2SwitchBoard,436f436f-3253-4776-9974-6368426f6172,1.0*
G04 #@! TF.SameCoordinates,Original*
G04 #@! TF.FileFunction,Copper,L2,Bot*
G04 #@! TF.FilePolarity,Positive*
%FSLAX46Y46*%
G04 Gerber Fmt 4.6, Leading zero omitted, Abs format (unit mm)*
G04 Created by KiCad (PCBNEW (5.1.10)-1) date 2022-07-15 10:43:49*
%MOMM*%
%LPD*%
G01*
G04 APERTURE LIST*
G04 #@! TA.AperFunction,ComponentPad*
%ADD10O,1.000000X1.000000*%
G04 #@! TD*
G04 #@! TA.AperFunction,ComponentPad*
%ADD11R,1.000000X1.000000*%
G04 #@! TD*
G04 #@! TA.AperFunction,SMDPad,CuDef*
%ADD12R,3.200000X1.000000*%
G04 #@! TD*
G04 #@! TA.AperFunction,ViaPad*
%ADD13C,0.800000*%
G04 #@! TD*
G04 #@! TA.AperFunction,Conductor*
%ADD14C,0.250000*%
G04 #@! TD*
G04 APERTURE END LIST*
D10*
X144449800Y-2030000D03*
X144449800Y-3300000D03*
X143179800Y-2030000D03*
X143179800Y-3300000D03*
X141909800Y-2030000D03*
X141909800Y-3300000D03*
X140639800Y-2030000D03*
X140639800Y-3300000D03*
X139369800Y-2030000D03*
X139369800Y-3300000D03*
X138099800Y-2030000D03*
X138099800Y-3300000D03*
X136829800Y-2030000D03*
X136829800Y-3300000D03*
X135559800Y-2030000D03*
D11*
X135559800Y-3300000D03*
D12*
X167400000Y64500000D03*
X160600000Y64500000D03*
X160600000Y60500000D03*
X167400000Y60500000D03*
X247900000Y64500000D03*
X241100000Y64500000D03*
X241100000Y60500000D03*
X247900000Y60500000D03*
X29900000Y64500000D03*
X23100000Y64500000D03*
X23100000Y60500000D03*
X29900000Y60500000D03*
X224400000Y64500000D03*
X217600000Y64500000D03*
X217600000Y60500000D03*
X224400000Y60500000D03*
X143400000Y7500000D03*
X136600000Y7500000D03*
X136600000Y3500000D03*
X143400000Y3500000D03*
X143400000Y83500000D03*
X136600000Y83500000D03*
X136600000Y79500000D03*
X143400000Y79500000D03*
X57900000Y26500000D03*
X51100000Y26500000D03*
X51100000Y22500000D03*
X57900000Y22500000D03*
X190900000Y26500000D03*
X184100000Y26500000D03*
X184100000Y22500000D03*
X190900000Y22500000D03*
X119400000Y45500000D03*
X112600000Y45500000D03*
X112600000Y41500000D03*
X119400000Y41500000D03*
X205400000Y64500000D03*
X198600000Y64500000D03*
X198600000Y60500000D03*
X205400000Y60500000D03*
X124400000Y7500000D03*
X117600000Y7500000D03*
X117600000Y3500000D03*
X124400000Y3500000D03*
X266900000Y26500000D03*
X260100000Y26500000D03*
X260100000Y22500000D03*
X266900000Y22500000D03*
X110400000Y64500000D03*
X103600000Y64500000D03*
X103600000Y60500000D03*
X110400000Y60500000D03*
X148400000Y64500000D03*
X141600000Y64500000D03*
X141600000Y60500000D03*
X148400000Y60500000D03*
X100400000Y45500000D03*
X93600000Y45500000D03*
X93600000Y41500000D03*
X100400000Y41500000D03*
X238400000Y7500000D03*
X231600000Y7500000D03*
X231600000Y3500000D03*
X238400000Y3500000D03*
X105400000Y7500000D03*
X98600000Y7500000D03*
X98600000Y3500000D03*
X105400000Y3500000D03*
X247900000Y26500000D03*
X241100000Y26500000D03*
X241100000Y22500000D03*
X247900000Y22500000D03*
X152900000Y26500000D03*
X146100000Y26500000D03*
X146100000Y22500000D03*
X152900000Y22500000D03*
X76900000Y26500000D03*
X70100000Y26500000D03*
X70100000Y22500000D03*
X76900000Y22500000D03*
X186400000Y64500000D03*
X179600000Y64500000D03*
X179600000Y60500000D03*
X186400000Y60500000D03*
X86400000Y7500000D03*
X79600000Y7500000D03*
X79600000Y3500000D03*
X86400000Y3500000D03*
X24400000Y45500000D03*
X17600000Y45500000D03*
X17600000Y41500000D03*
X24400000Y41500000D03*
X114900000Y26500000D03*
X108100000Y26500000D03*
X108100000Y22500000D03*
X114900000Y22500000D03*
X195400000Y45500000D03*
X188600000Y45500000D03*
X188600000Y41500000D03*
X195400000Y41500000D03*
X81400000Y45500000D03*
X74600000Y45500000D03*
X74600000Y41500000D03*
X81400000Y41500000D03*
X214400000Y45500000D03*
X207600000Y45500000D03*
X207600000Y41500000D03*
X214400000Y41500000D03*
X67400000Y7500000D03*
X60600000Y7500000D03*
X60600000Y3500000D03*
X67400000Y3500000D03*
X19900000Y26500000D03*
X13100000Y26500000D03*
X13100000Y22500000D03*
X19900000Y22500000D03*
X62400000Y45500000D03*
X55600000Y45500000D03*
X55600000Y41500000D03*
X62400000Y41500000D03*
X176400000Y45500000D03*
X169600000Y45500000D03*
X169600000Y41500000D03*
X176400000Y41500000D03*
X91400000Y64500000D03*
X84600000Y64500000D03*
X84600000Y60500000D03*
X91400000Y60500000D03*
X257400000Y7500000D03*
X250600000Y7500000D03*
X250600000Y3500000D03*
X257400000Y3500000D03*
X219400000Y7500000D03*
X212600000Y7500000D03*
X212600000Y3500000D03*
X219400000Y3500000D03*
X48400000Y7500000D03*
X41600000Y7500000D03*
X41600000Y3500000D03*
X48400000Y3500000D03*
X53400000Y64500000D03*
X46600000Y64500000D03*
X46600000Y60500000D03*
X53400000Y60500000D03*
X95900000Y26500000D03*
X89100000Y26500000D03*
X89100000Y22500000D03*
X95900000Y22500000D03*
X157400000Y45500000D03*
X150600000Y45500000D03*
X150600000Y41500000D03*
X157400000Y41500000D03*
X129400000Y64500000D03*
X122600000Y64500000D03*
X122600000Y60500000D03*
X129400000Y60500000D03*
X261400000Y45500000D03*
X254600000Y45500000D03*
X254600000Y41500000D03*
X261400000Y41500000D03*
X181400000Y7500000D03*
X174600000Y7500000D03*
X174600000Y3500000D03*
X181400000Y3500000D03*
X29400000Y7500000D03*
X22600000Y7500000D03*
X22600000Y3500000D03*
X29400000Y3500000D03*
X133900000Y26500000D03*
X127100000Y26500000D03*
X127100000Y22500000D03*
X133900000Y22500000D03*
X38900000Y26500000D03*
X32100000Y26500000D03*
X32100000Y22500000D03*
X38900000Y22500000D03*
X171900000Y26500000D03*
X165100000Y26500000D03*
X165100000Y22500000D03*
X171900000Y22500000D03*
X43400000Y45500000D03*
X36600000Y45500000D03*
X36600000Y41500000D03*
X43400000Y41500000D03*
X237900000Y45500000D03*
X231100000Y45500000D03*
X231100000Y41500000D03*
X237900000Y41500000D03*
X162400000Y7500000D03*
X155600000Y7500000D03*
X155600000Y3500000D03*
X162400000Y3500000D03*
X200400000Y7500000D03*
X193600000Y7500000D03*
X193600000Y3500000D03*
X200400000Y3500000D03*
X72400000Y64500000D03*
X65600000Y64500000D03*
X65600000Y60500000D03*
X72400000Y60500000D03*
X209900000Y26500000D03*
X203100000Y26500000D03*
X203100000Y22500000D03*
X209900000Y22500000D03*
X138400000Y45500000D03*
X131600000Y45500000D03*
X131600000Y41500000D03*
X138400000Y41500000D03*
X228900000Y26500000D03*
X222100000Y26500000D03*
X222100000Y22500000D03*
X228900000Y22500000D03*
D13*
X46000000Y29000000D03*
X194000000Y36000000D03*
X210000000Y57000000D03*
X215000000Y58000000D03*
X215000000Y63000000D03*
X120000000Y56000000D03*
X120000000Y81000000D03*
X122000000Y16000000D03*
X122000000Y44000000D03*
X69000000Y34000000D03*
X91000000Y36000000D03*
X113000000Y39000000D03*
X113000000Y44000000D03*
X180000000Y17000000D03*
X180000000Y25000000D03*
X147000000Y6999984D03*
X35487340Y64512660D03*
X116000000Y56000000D03*
X116000000Y63000000D03*
X211000000Y64000000D03*
X254000000Y31000000D03*
X105000000Y16000000D03*
X103000000Y44000000D03*
X128000000Y7175021D03*
X160000000Y38000000D03*
X160000000Y63000000D03*
X226000000Y18000000D03*
X168000000Y37000000D03*
X80000000Y26000000D03*
X95000000Y9000000D03*
X112000000Y7000000D03*
X84000000Y25000000D03*
X27000000Y48000000D03*
X43000000Y49000000D03*
X66000000Y49000000D03*
X72000000Y49000000D03*
X101000000Y29000000D03*
X86000000Y45000000D03*
X101000000Y20000000D03*
X182000000Y39000000D03*
X182000000Y45000000D03*
X144000000Y39000000D03*
X60000000Y13000000D03*
X59000000Y44000000D03*
X73000000Y5000000D03*
X171000000Y57000000D03*
X96000000Y66000000D03*
X134000000Y2000000D03*
X59000000Y64000000D03*
X86000000Y29000000D03*
X107000000Y38000000D03*
X108000000Y44000000D03*
X118000000Y56000000D03*
X118000000Y63000000D03*
X136000000Y64000000D03*
X149000000Y50000000D03*
X163000000Y45000000D03*
X212000000Y12000000D03*
X219000000Y12000000D03*
X62000000Y17000000D03*
X151000000Y-3000000D03*
X149000000Y50000000D03*
X27000000Y21000000D03*
X27000000Y25000000D03*
X177000000Y26000000D03*
X177000000Y10000000D03*
X148000000Y29000000D03*
X161000000Y29000000D03*
X234000000Y43000000D03*
X234000000Y37000000D03*
X218000000Y25000000D03*
X181000000Y33000000D03*
X84000000Y38000000D03*
X64000000Y38000000D03*
X50000000Y38000000D03*
X49000000Y45000000D03*
X140000000Y26000000D03*
X140987347Y-12653D03*
X140000000Y5000000D03*
X151000000Y8000000D03*
X145000000Y17000000D03*
X139000000Y17000000D03*
X78000000Y63000000D03*
X130000000Y48000000D03*
X199000000Y25000000D03*
X200000000Y10000000D03*
X142000000Y43000000D03*
X148000000Y10000000D03*
X153000000Y4000000D03*
X153000000Y6000000D03*
X214000018Y28000000D03*
X218000000Y28000000D03*
X18000000Y59000000D03*
X234000000Y63000000D03*
X228000000Y69000000D03*
X138000000Y2000014D03*
X126000000Y73000000D03*
X130000000Y24000000D03*
X275000000Y23000000D03*
X270000000Y24000000D03*
X158000000Y-2000000D03*
X149000000Y24000000D03*
X48000000Y41000000D03*
X47000000Y20000000D03*
X136000000Y0D03*
X129000000Y14000000D03*
X128000000Y18000000D03*
X133523846Y4348824D03*
X132000000Y2000000D03*
X132000000Y38000000D03*
X132000000Y4274988D03*
X132000000Y7625032D03*
X130000000Y2000000D03*
X130000000Y4225000D03*
X120000000Y17000000D03*
X120000000Y40000000D03*
X242000000Y45000000D03*
X242000000Y36000000D03*
D14*
X247900000Y64500000D02*
X217600000Y64500000D01*
X23100000Y64500000D02*
X29900000Y64500000D01*
X51100000Y26500000D02*
X57900000Y26500000D01*
X48600000Y29000000D02*
X51100000Y26500000D01*
X46000000Y29000000D02*
X48600000Y29000000D01*
X184100000Y26500000D02*
X190900000Y26500000D01*
X190900000Y32900000D02*
X194000000Y36000000D01*
X190900000Y26500000D02*
X190900000Y32900000D01*
X214000000Y57000000D02*
X215000000Y58000000D01*
X210000000Y57000000D02*
X214000000Y57000000D01*
X216100000Y63000000D02*
X217600000Y64500000D01*
X215000000Y63000000D02*
X216100000Y63000000D01*
X143400000Y83500000D02*
X136600000Y83500000D01*
X115500000Y45500000D02*
X119400000Y45500000D01*
X112600000Y45500000D02*
X115500000Y45500000D01*
X119400000Y55400000D02*
X120000000Y56000000D01*
X119400000Y45500000D02*
X119400000Y55400000D01*
X122500000Y83500000D02*
X136600000Y83500000D01*
X120000000Y81000000D02*
X122500000Y83500000D01*
X143400000Y7500000D02*
X136600000Y7500000D01*
X120900000Y44000000D02*
X119400000Y45500000D01*
X122000000Y44000000D02*
X120900000Y44000000D01*
X61500000Y26500000D02*
X69000000Y34000000D01*
X57900000Y26500000D02*
X61500000Y26500000D01*
X94000000Y39000000D02*
X113000000Y39000000D01*
X91000000Y36000000D02*
X94000000Y39000000D01*
X113000000Y45100000D02*
X112600000Y45500000D01*
X113000000Y44000000D02*
X113000000Y45100000D01*
X152900000Y17000000D02*
X180000000Y17000000D01*
X143400000Y7500000D02*
X152900000Y17000000D01*
X182600000Y25000000D02*
X184100000Y26500000D01*
X180000000Y25000000D02*
X182600000Y25000000D01*
X122565685Y16000000D02*
X122000000Y16000000D01*
X136600000Y8250000D02*
X128850000Y16000000D01*
X136600000Y7500000D02*
X136600000Y8250000D01*
X128850000Y16000000D02*
X122565685Y16000000D01*
X143400000Y7500000D02*
X146499984Y7500000D01*
X146499984Y7500000D02*
X147000000Y6999984D01*
X29900000Y64500000D02*
X35474680Y64500000D01*
X35474680Y64500000D02*
X35487340Y64512660D01*
X205400000Y64500000D02*
X198600000Y64500000D01*
X198600000Y64500000D02*
X198600000Y65400000D01*
X198600000Y65400000D02*
X197000000Y67000000D01*
X150900000Y67000000D02*
X148400000Y64500000D01*
X197000000Y67000000D02*
X150900000Y67000000D01*
X148400000Y64500000D02*
X141600000Y64500000D01*
X103600000Y64500000D02*
X110400000Y64500000D01*
X93600000Y45500000D02*
X100400000Y45500000D01*
X105500000Y45500000D02*
X116000000Y56000000D01*
X111900000Y63000000D02*
X110400000Y64500000D01*
X116000000Y63000000D02*
X111900000Y63000000D01*
X210500000Y64500000D02*
X211000000Y64000000D01*
X205400000Y64500000D02*
X210500000Y64500000D01*
X258500000Y26500000D02*
X266900000Y26500000D01*
X254000000Y31000000D02*
X258500000Y26500000D01*
X124400000Y7500000D02*
X117600000Y7500000D01*
X113500000Y7500000D02*
X105000000Y16000000D01*
X117600000Y7500000D02*
X113500000Y7500000D01*
X101500000Y45500000D02*
X103000000Y44000000D01*
X100400000Y45500000D02*
X101500000Y45500000D01*
X104000000Y44000000D02*
X105500000Y45500000D01*
X103000000Y44000000D02*
X104000000Y44000000D01*
X124400000Y7500000D02*
X127675021Y7500000D01*
X127675021Y7500000D02*
X128000000Y7175021D01*
X139100000Y67000000D02*
X141600000Y64500000D01*
X112000000Y67000000D02*
X139100000Y67000000D01*
X110400000Y65400000D02*
X112000000Y67000000D01*
X110400000Y64500000D02*
X110400000Y65400000D01*
X231600000Y7500000D02*
X238400000Y7500000D01*
X241100000Y26500000D02*
X247900000Y26500000D01*
X167400000Y64500000D02*
X160600000Y64500000D01*
X146100000Y26500000D02*
X152900000Y26500000D01*
X152900000Y30900000D02*
X160000000Y38000000D01*
X152900000Y26500000D02*
X152900000Y30900000D01*
X160000000Y63900000D02*
X160600000Y64500000D01*
X160000000Y63000000D02*
X160000000Y63900000D01*
X231600000Y12400000D02*
X226000000Y18000000D01*
X231600000Y7500000D02*
X231600000Y12400000D01*
X167000000Y38000000D02*
X160000000Y38000000D01*
X168000000Y37000000D02*
X167000000Y38000000D01*
X70100000Y26500000D02*
X76900000Y26500000D01*
X79500000Y26500000D02*
X80000000Y26000000D01*
X76900000Y26500000D02*
X79500000Y26500000D01*
X97100000Y9000000D02*
X98600000Y7500000D01*
X95000000Y9000000D02*
X97100000Y9000000D01*
X98600000Y7500000D02*
X105400000Y7500000D01*
X111500000Y7500000D02*
X112000000Y7000000D01*
X105400000Y7500000D02*
X111500000Y7500000D01*
X239500000Y26500000D02*
X241100000Y26500000D01*
X238400000Y25400000D02*
X239500000Y26500000D01*
X238400000Y7500000D02*
X238400000Y25400000D01*
X144600000Y25000000D02*
X84000000Y25000000D01*
X146100000Y26500000D02*
X144600000Y25000000D01*
X195400000Y45500000D02*
X188600000Y45500000D01*
X186400000Y64500000D02*
X179600000Y64500000D01*
X184100000Y50000000D02*
X188600000Y45500000D01*
X177000000Y50000000D02*
X184100000Y50000000D01*
X174000000Y53000000D02*
X177000000Y50000000D01*
X174000000Y63000000D02*
X174000000Y53000000D01*
X175500000Y64500000D02*
X174000000Y63000000D01*
X179600000Y64500000D02*
X175500000Y64500000D01*
X17600000Y45500000D02*
X24400000Y45500000D01*
X24500000Y45500000D02*
X27000000Y48000000D01*
X24400000Y45500000D02*
X24500000Y45500000D01*
X43000000Y49000000D02*
X66000000Y49000000D01*
X72000000Y48100000D02*
X74600000Y45500000D01*
X72000000Y49000000D02*
X72000000Y48100000D01*
X74600000Y45500000D02*
X81400000Y45500000D01*
X114900000Y26500000D02*
X108100000Y26500000D01*
X103500000Y26500000D02*
X101000000Y29000000D01*
X108100000Y26500000D02*
X103500000Y26500000D01*
X81900000Y45000000D02*
X81400000Y45500000D01*
X86000000Y45000000D02*
X81900000Y45000000D01*
X88500000Y7500000D02*
X101000000Y20000000D01*
X86400000Y7500000D02*
X88500000Y7500000D01*
X79600000Y7500000D02*
X86400000Y7500000D01*
X187100000Y44000000D02*
X188600000Y45500000D01*
X182000000Y45000000D02*
X183000000Y44000000D01*
X183000000Y44000000D02*
X187100000Y44000000D01*
X136914998Y39000000D02*
X182000000Y39000000D01*
X128914998Y31000000D02*
X136914998Y39000000D01*
X119400000Y31000000D02*
X128914998Y31000000D01*
X114900000Y26500000D02*
X119400000Y31000000D01*
X214400000Y45500000D02*
X207600000Y45500000D01*
X169600000Y45500000D02*
X176400000Y45500000D01*
X91400000Y64500000D02*
X84600000Y64500000D01*
X13100000Y26500000D02*
X19900000Y26500000D01*
X55600000Y45500000D02*
X62400000Y45500000D01*
X66000000Y46636410D02*
X83863590Y64500000D01*
X83863590Y64500000D02*
X84600000Y64500000D01*
X66000000Y46000000D02*
X66000000Y46636410D01*
X65500000Y45500000D02*
X66000000Y46000000D01*
X62400000Y45500000D02*
X65500000Y45500000D01*
X67400000Y7500000D02*
X60600000Y7500000D01*
X60600000Y12400000D02*
X60000000Y13000000D01*
X60600000Y7500000D02*
X60600000Y12400000D01*
X60900000Y44000000D02*
X62400000Y45500000D01*
X59000000Y44000000D02*
X60900000Y44000000D01*
X70500000Y7500000D02*
X73000000Y5000000D01*
X67400000Y7500000D02*
X70500000Y7500000D01*
X169600000Y55600000D02*
X171000000Y57000000D01*
X169600000Y45500000D02*
X169600000Y55600000D01*
X94500000Y64500000D02*
X91400000Y64500000D01*
X96000000Y66000000D02*
X94500000Y64500000D01*
X135000000Y1000000D02*
X134000000Y2000000D01*
X141000000Y1000000D02*
X135000000Y1000000D01*
X141909800Y90200D02*
X141000000Y1000000D01*
X141909800Y-2030000D02*
X141909800Y90200D01*
X205850000Y43000000D02*
X178150000Y43000000D01*
X176400000Y44750000D02*
X176400000Y45500000D01*
X178150000Y43000000D02*
X176400000Y44750000D01*
X207600000Y44750000D02*
X205850000Y43000000D01*
X207600000Y45500000D02*
X207600000Y44750000D01*
X53100000Y48000000D02*
X55600000Y45500000D01*
X33000000Y48000000D02*
X53100000Y48000000D01*
X30450010Y45450010D02*
X33000000Y48000000D01*
X30450010Y37050010D02*
X30450010Y45450010D01*
X19900000Y26500000D02*
X30450010Y37050010D01*
X257400000Y7500000D02*
X250600000Y7500000D01*
X150600000Y45500000D02*
X157400000Y45500000D01*
X122600000Y64500000D02*
X129400000Y64500000D01*
X46600000Y64500000D02*
X53400000Y64500000D01*
X58500000Y64500000D02*
X59000000Y64000000D01*
X53400000Y64500000D02*
X58500000Y64500000D01*
X86600000Y29000000D02*
X89100000Y26500000D01*
X86000000Y29000000D02*
X86600000Y29000000D01*
X89100000Y26500000D02*
X95900000Y26500000D01*
X95900000Y26500000D02*
X95900000Y26900000D01*
X95900000Y26900000D02*
X107000000Y38000000D01*
X108000000Y46000000D02*
X118000000Y56000000D01*
X108000000Y44000000D02*
X108000000Y46000000D01*
X121100000Y63000000D02*
X122600000Y64500000D01*
X118000000Y63000000D02*
X121100000Y63000000D01*
X135500000Y64500000D02*
X136000000Y64000000D01*
X129400000Y64500000D02*
X135500000Y64500000D01*
X150600000Y48400000D02*
X150600000Y45500000D01*
X149000000Y50000000D02*
X150600000Y48400000D01*
X162500000Y45500000D02*
X163000000Y45000000D01*
X157400000Y45500000D02*
X162500000Y45500000D01*
X212000000Y8100000D02*
X212600000Y7500000D01*
X212000000Y12000000D02*
X212000000Y8100000D01*
X219400000Y11600000D02*
X219000000Y12000000D01*
X219400000Y7500000D02*
X219400000Y11600000D01*
X41600000Y7500000D02*
X48400000Y7500000D01*
X52500000Y7500000D02*
X62000000Y17000000D01*
X48400000Y7500000D02*
X52500000Y7500000D01*
X248100000Y5000000D02*
X221900000Y5000000D01*
X221900000Y5000000D02*
X219400000Y7500000D01*
X250600000Y7500000D02*
X248100000Y5000000D01*
X143609800Y-5000000D02*
X149000000Y-5000000D01*
X149000000Y-5000000D02*
X151000000Y-3000000D01*
X141909800Y-3300000D02*
X143609800Y-5000000D01*
X261400000Y45500000D02*
X254600000Y45500000D01*
X36600000Y45500000D02*
X43400000Y45500000D01*
X38900000Y26500000D02*
X38900000Y33900000D01*
X38900000Y33900000D02*
X36800000Y36000000D01*
X36800000Y36000000D02*
X34000000Y36000000D01*
X34000000Y36000000D02*
X32000000Y38000000D01*
X32000000Y38000000D02*
X32000000Y43000000D01*
X34500000Y45500000D02*
X36600000Y45500000D01*
X32000000Y43000000D02*
X34500000Y45500000D01*
X38900000Y26500000D02*
X32100000Y26500000D01*
X22600000Y7500000D02*
X29400000Y7500000D01*
X29400000Y18600000D02*
X27000000Y21000000D01*
X29400000Y7500000D02*
X29400000Y18600000D01*
X28500000Y26500000D02*
X32100000Y26500000D01*
X27000000Y25000000D02*
X28500000Y26500000D01*
X174600000Y7500000D02*
X181400000Y7500000D01*
X165100000Y26500000D02*
X171900000Y26500000D01*
X176500000Y26500000D02*
X177000000Y26000000D01*
X171900000Y26500000D02*
X176500000Y26500000D01*
X174600000Y7600000D02*
X174600000Y7500000D01*
X177000000Y10000000D02*
X174600000Y7600000D01*
X127100000Y26500000D02*
X133900000Y26500000D01*
X136400000Y29000000D02*
X148000000Y29000000D01*
X133900000Y26500000D02*
X136400000Y29000000D01*
X162600000Y29000000D02*
X165100000Y26500000D01*
X161000000Y29000000D02*
X162600000Y29000000D01*
X252100000Y43000000D02*
X234000000Y43000000D01*
X254600000Y45500000D02*
X252100000Y43000000D01*
X230085002Y25000000D02*
X218000000Y25000000D01*
X234000000Y28914998D02*
X230085002Y25000000D01*
X234000000Y37000000D02*
X234000000Y28914998D01*
X181000000Y30000000D02*
X177000000Y26000000D01*
X181000000Y33000000D02*
X181000000Y30000000D01*
X84000000Y28914998D02*
X84000000Y38000000D01*
X87239999Y25674999D02*
X84000000Y28914998D01*
X126274999Y25674999D02*
X87239999Y25674999D01*
X127100000Y26500000D02*
X126274999Y25674999D01*
X64000000Y38000000D02*
X50000000Y38000000D01*
X48500000Y45500000D02*
X43400000Y45500000D01*
X49000000Y45000000D02*
X48500000Y45500000D01*
X139500000Y26500000D02*
X140000000Y26000000D01*
X133900000Y26500000D02*
X139500000Y26500000D01*
X140639800Y-360200D02*
X140987347Y-12653D01*
X140639800Y-2030000D02*
X140639800Y-360200D01*
X145000000Y17000000D02*
X139000000Y17000000D01*
X149000000Y6000000D02*
X151000000Y8000000D01*
X141000000Y6000000D02*
X149000000Y6000000D01*
X140000000Y5000000D02*
X141000000Y6000000D01*
X203100000Y26500000D02*
X209900000Y26500000D01*
X222100000Y26500000D02*
X228900000Y26500000D01*
X228900000Y26500000D02*
X228900000Y37100000D01*
X228900000Y37100000D02*
X227000000Y39000000D01*
X227000000Y39000000D02*
X227000000Y43000000D01*
X229500000Y45500000D02*
X231100000Y45500000D01*
X227000000Y43000000D02*
X229500000Y45500000D01*
X237900000Y45500000D02*
X231100000Y45500000D01*
X65600000Y64500000D02*
X72400000Y64500000D01*
X76500000Y64500000D02*
X78000000Y63000000D01*
X72400000Y64500000D02*
X76500000Y64500000D01*
X130000000Y47100000D02*
X131600000Y45500000D01*
X130000000Y48000000D02*
X130000000Y47100000D01*
X131600000Y45500000D02*
X138400000Y45500000D01*
X200400000Y7500000D02*
X193600000Y7500000D01*
X155600000Y7500000D02*
X162400000Y7500000D01*
X200500000Y26500000D02*
X199000000Y25000000D01*
X203100000Y26500000D02*
X200500000Y26500000D01*
X200000000Y7900000D02*
X200400000Y7500000D01*
X200000000Y10000000D02*
X200000000Y7900000D01*
X162400000Y7500000D02*
X169500000Y7500000D01*
X169500000Y7500000D02*
X173000000Y11000000D01*
X190100000Y11000000D02*
X193600000Y7500000D01*
X173000000Y11000000D02*
X190100000Y11000000D01*
X140900000Y43000000D02*
X142000000Y43000000D01*
X138400000Y45500000D02*
X140900000Y43000000D01*
X153100000Y10000000D02*
X155600000Y7500000D01*
X148000000Y10000000D02*
X153100000Y10000000D01*
X154100000Y6000000D02*
X155600000Y7500000D01*
X153000000Y6000000D02*
X154100000Y6000000D01*
X140639800Y-3300000D02*
X142789811Y-5450011D01*
X153000000Y-4000000D02*
X153000000Y4000000D01*
X142789811Y-5450011D02*
X151549989Y-5450011D01*
X151549989Y-5450011D02*
X153000000Y-4000000D01*
X209900000Y26500000D02*
X212500018Y26500000D01*
X212500018Y26500000D02*
X214000018Y28000000D01*
X219500000Y26500000D02*
X218000000Y28000000D01*
X222100000Y26500000D02*
X219500000Y26500000D01*
X247900000Y60500000D02*
X241100000Y60500000D01*
X261400000Y41500000D02*
X231100000Y41500000D01*
X257400000Y3500000D02*
X250600000Y3500000D01*
X23100000Y60500000D02*
X29900000Y60500000D01*
X266500000Y41500000D02*
X261400000Y41500000D01*
X257400000Y3500000D02*
X266500000Y3500000D01*
X266500000Y3500000D02*
X272000000Y9000000D01*
X272000000Y36000000D02*
X266500000Y41500000D01*
X272000000Y9000000D02*
X272000000Y36000000D01*
X19500000Y60500000D02*
X18000000Y59000000D01*
X23100000Y60500000D02*
X19500000Y60500000D01*
X236500000Y60500000D02*
X234000000Y63000000D01*
X241100000Y60500000D02*
X236500000Y60500000D01*
X268000000Y43000000D02*
X266500000Y41500000D01*
X268000000Y54000000D02*
X268000000Y43000000D01*
X261500000Y60500000D02*
X268000000Y54000000D01*
X247900000Y60500000D02*
X261500000Y60500000D01*
X227549991Y69450009D02*
X228000000Y69000000D01*
X45450009Y69450009D02*
X227549991Y69450009D01*
X36500000Y60500000D02*
X45450009Y69450009D01*
X29900000Y60500000D02*
X36500000Y60500000D01*
X238400000Y3500000D02*
X212600000Y3500000D01*
X155600000Y3500000D02*
X181400000Y3500000D01*
X181400000Y3500000D02*
X182500000Y3500000D01*
X182500000Y3500000D02*
X185000000Y1000000D01*
X210100000Y1000000D02*
X212600000Y3500000D01*
X185000000Y1000000D02*
X210100000Y1000000D01*
X179600000Y60500000D02*
X224400000Y60500000D01*
X207600000Y41500000D02*
X214400000Y41500000D01*
X214400000Y41500000D02*
X223500000Y41500000D01*
X224400000Y42400000D02*
X224400000Y60500000D01*
X223500000Y41500000D02*
X224400000Y42400000D01*
X212600000Y3500000D02*
X213500000Y3500000D01*
X213500000Y3500000D02*
X216000000Y6000000D01*
X216000000Y39900000D02*
X214400000Y41500000D01*
X216000000Y6000000D02*
X216000000Y39900000D01*
X152099978Y-5900022D02*
X155600000Y-2400000D01*
X139369800Y-3300000D02*
X141969822Y-5900022D01*
X141969822Y-5900022D02*
X152099978Y-5900022D01*
X155600000Y-2400000D02*
X155600000Y3500000D01*
X200400000Y3500000D02*
X193600000Y3500000D01*
X143400000Y3500000D02*
X22600000Y3500000D01*
X146750000Y5000000D02*
X145250000Y3500000D01*
X193600000Y3500000D02*
X192100000Y5000000D01*
X192100000Y5000000D02*
X146750000Y5000000D01*
X145250000Y3500000D02*
X143400000Y3500000D01*
X136600000Y3500000D02*
X138000000Y2100000D01*
X138000000Y2100000D02*
X138000000Y2000014D01*
X266900000Y22500000D02*
X241100000Y22500000D01*
X17600000Y41500000D02*
X24400000Y41500000D01*
X19900000Y22500000D02*
X13100000Y22500000D01*
X46600000Y60500000D02*
X72400000Y60500000D01*
X127100000Y22500000D02*
X133900000Y22500000D01*
X143400000Y79500000D02*
X136600000Y79500000D01*
X13100000Y22500000D02*
X6500000Y22500000D01*
X6500000Y22500000D02*
X4000000Y25000000D01*
X4000000Y25000000D02*
X4000000Y38000000D01*
X7500000Y41500000D02*
X17600000Y41500000D01*
X4000000Y38000000D02*
X7500000Y41500000D01*
X132500000Y79500000D02*
X126000000Y73000000D01*
X136600000Y79500000D02*
X132500000Y79500000D01*
X128500000Y22500000D02*
X127100000Y22500000D01*
X130000000Y24000000D02*
X128500000Y22500000D01*
X143400000Y79500000D02*
X252500000Y79500000D01*
X275000000Y57000000D02*
X275000000Y23000000D01*
X252500000Y79500000D02*
X275000000Y57000000D01*
X268500000Y22500000D02*
X266900000Y22500000D01*
X270000000Y24000000D02*
X268500000Y22500000D01*
X135400000Y24000000D02*
X133900000Y22500000D01*
X149000000Y24000000D02*
X135400000Y24000000D01*
X157600001Y-2399999D02*
X158000000Y-2000000D01*
X153649967Y-6350033D02*
X157600001Y-2399999D01*
X141149833Y-6350033D02*
X153649967Y-6350033D01*
X138099800Y-3300000D02*
X141149833Y-6350033D01*
X43100000Y57000000D02*
X46600000Y60500000D01*
X29000000Y53000000D02*
X33000000Y57000000D01*
X33000000Y57000000D02*
X43100000Y57000000D01*
X29000000Y43000000D02*
X29000000Y53000000D01*
X27500000Y41500000D02*
X29000000Y43000000D01*
X24400000Y41500000D02*
X27500000Y41500000D01*
X85000000Y24000000D02*
X125600000Y24000000D01*
X125600000Y24000000D02*
X127100000Y22500000D01*
X80000000Y19000000D02*
X85000000Y24000000D01*
X67000000Y19000000D02*
X80000000Y19000000D01*
X62000000Y24000000D02*
X67000000Y19000000D01*
X23000000Y24000000D02*
X62000000Y24000000D01*
X21500000Y22500000D02*
X23000000Y24000000D01*
X19900000Y22500000D02*
X21500000Y22500000D01*
X32100000Y22500000D02*
X57900000Y22500000D01*
X89100000Y22500000D02*
X114900000Y22500000D01*
X152900000Y22500000D02*
X156500000Y22500000D01*
X156500000Y22500000D02*
X160000000Y19000000D01*
X199600000Y19000000D02*
X203100000Y22500000D01*
X160000000Y19000000D02*
X199600000Y19000000D01*
X203100000Y22500000D02*
X209900000Y22500000D01*
X55600000Y41500000D02*
X62400000Y41500000D01*
X103600000Y60500000D02*
X110400000Y60500000D01*
X146100000Y22500000D02*
X152900000Y22500000D01*
X114900000Y22500000D02*
X115500000Y22500000D01*
X115500000Y22500000D02*
X118000000Y20000000D01*
X143600000Y20000000D02*
X146100000Y22500000D01*
X62400000Y41500000D02*
X68500000Y41500000D01*
X68500000Y41500000D02*
X70000000Y43000000D01*
X70000000Y43000000D02*
X70000000Y50000000D01*
X70000000Y50000000D02*
X73000000Y53000000D01*
X73000000Y53000000D02*
X101000000Y53000000D01*
X103600000Y55600000D02*
X103600000Y60500000D01*
X101000000Y53000000D02*
X103600000Y55600000D01*
X57900000Y22500000D02*
X61500000Y22500000D01*
X61500000Y22500000D02*
X66000000Y18000000D01*
X66000000Y18000000D02*
X81000000Y18000000D01*
X85500000Y22500000D02*
X89100000Y22500000D01*
X81000000Y18000000D02*
X85500000Y22500000D01*
X48500000Y41500000D02*
X48000000Y41000000D01*
X55600000Y41500000D02*
X48500000Y41500000D01*
X48600000Y20000000D02*
X51100000Y22500000D01*
X47000000Y20000000D02*
X48600000Y20000000D01*
X136829800Y-829800D02*
X136000000Y0D01*
X136829800Y-2030000D02*
X136829800Y-829800D01*
X128000000Y18000000D02*
X128000000Y20000000D01*
X128000000Y20000000D02*
X143600000Y20000000D01*
X118000000Y20000000D02*
X128000000Y20000000D01*
X129000000Y14000000D02*
X133523846Y9476154D01*
X133523846Y9476154D02*
X133523846Y4348824D01*
X165100000Y22500000D02*
X190900000Y22500000D01*
X131600000Y41500000D02*
X195400000Y41500000D01*
X141600000Y60500000D02*
X167400000Y60500000D01*
X131600000Y41500000D02*
X128500000Y41500000D01*
X128500000Y41500000D02*
X128000000Y42000000D01*
X128000000Y42000000D02*
X128000000Y49000000D01*
X128000000Y49000000D02*
X131000000Y52000000D01*
X131000000Y52000000D02*
X131000000Y56000000D01*
X135500000Y60500000D02*
X141600000Y60500000D01*
X131000000Y56000000D02*
X135500000Y60500000D01*
X190900000Y22500000D02*
X194500000Y22500000D01*
X194500000Y22500000D02*
X196000000Y24000000D01*
X196000000Y40900000D02*
X195400000Y41500000D01*
X196000000Y24000000D02*
X196000000Y40900000D01*
X132000000Y1529800D02*
X132000000Y2000000D01*
X135559800Y-2030000D02*
X132000000Y1529800D01*
X132000000Y41100000D02*
X131600000Y41500000D01*
X132000000Y38000000D02*
X132000000Y41100000D01*
X132000000Y4274988D02*
X132000000Y7625032D01*
X228900000Y22500000D02*
X222100000Y22500000D01*
X36600000Y41500000D02*
X43400000Y41500000D01*
X43400000Y41500000D02*
X43500000Y41500000D01*
X43500000Y41500000D02*
X46000000Y39000000D01*
X72100000Y39000000D02*
X74600000Y41500000D01*
X74600000Y41500000D02*
X81400000Y41500000D01*
X81400000Y41500000D02*
X119400000Y41500000D01*
X76900000Y22500000D02*
X70100000Y22500000D01*
X84600000Y60500000D02*
X91400000Y60500000D01*
X122600000Y60500000D02*
X129400000Y60500000D01*
X121100000Y62000000D02*
X122600000Y60500000D01*
X99000000Y62000000D02*
X121100000Y62000000D01*
X97500000Y60500000D02*
X99000000Y62000000D01*
X91400000Y60500000D02*
X97500000Y60500000D01*
X46000000Y39000000D02*
X72100000Y39000000D01*
X76900000Y22500000D02*
X78500000Y22500000D01*
X81400000Y25400000D02*
X81400000Y41500000D01*
X78500000Y22500000D02*
X81400000Y25400000D01*
X135300000Y-3300000D02*
X130000000Y2000000D01*
X135559800Y-3300000D02*
X135300000Y-3300000D01*
X120000000Y16248023D02*
X120000000Y17000000D01*
X130000000Y6248023D02*
X120000000Y16248023D01*
X130000000Y4225000D02*
X130000000Y6248023D01*
X120000000Y40900000D02*
X119400000Y41500000D01*
X120000000Y40000000D02*
X120000000Y40900000D01*
X242000000Y36000000D02*
X242000000Y32000000D01*
X232500000Y22500000D02*
X228900000Y22500000D01*
X242000000Y32000000D02*
X232500000Y22500000D01*
X129400000Y52400000D02*
X129400000Y60500000D01*
X126000000Y49000000D02*
X129400000Y52400000D01*
X126000000Y43000000D02*
X126000000Y49000000D01*
X124500000Y41500000D02*
X126000000Y43000000D01*
X119400000Y41500000D02*
X124500000Y41500000D01*
X233000000Y54000000D02*
X242000000Y45000000D01*
X229000000Y62000000D02*
X233000000Y58000000D01*
X195000000Y62000000D02*
X229000000Y62000000D01*
X191000000Y66000000D02*
X195000000Y62000000D01*
X233000000Y58000000D02*
X233000000Y54000000D01*
X170274999Y62274999D02*
X174000000Y66000000D01*
X174000000Y66000000D02*
X191000000Y66000000D01*
X135274999Y62274999D02*
X170274999Y62274999D01*
X133500000Y60500000D02*
X135274999Y62274999D01*
X129400000Y60500000D02*
X133500000Y60500000D01*
M02*
