G04 #@! TF.GenerationSoftware,KiCad,Pcbnew,(5.1.10)-1*
G04 #@! TF.CreationDate,2021-10-26T21:43:45-04:00*
G04 #@! TF.ProjectId,CoCo3SwitchBoard,436f436f-3353-4776-9974-6368426f6172,1.0*
G04 #@! TF.SameCoordinates,Original*
G04 #@! TF.FileFunction,Paste,Bot*
G04 #@! TF.FilePolarity,Positive*
%FSLAX46Y46*%
G04 Gerber Fmt 4.6, Leading zero omitted, Abs format (unit mm)*
G04 Created by KiCad (PCBNEW (5.1.10)-1) date 2021-10-26 21:43:45*
%MOMM*%
%LPD*%
G01*
G04 APERTURE LIST*
%ADD10R,3.200000X1.000000*%
G04 APERTURE END LIST*
D10*
X243150000Y64500000D03*
X236350000Y64500000D03*
X236350000Y60500000D03*
X243150000Y60500000D03*
X28900000Y64500000D03*
X22100000Y64500000D03*
X22100000Y60500000D03*
X28900000Y60500000D03*
X221650000Y64500000D03*
X214850000Y64500000D03*
X214850000Y60500000D03*
X221650000Y60500000D03*
X140900000Y7500000D03*
X134100000Y7500000D03*
X134100000Y3500000D03*
X140900000Y3500000D03*
X135900000Y83500000D03*
X129100000Y83500000D03*
X129100000Y79500000D03*
X135900000Y79500000D03*
X55400000Y26500000D03*
X48600000Y26500000D03*
X48600000Y22500000D03*
X55400000Y22500000D03*
X188400000Y26500000D03*
X181600000Y26500000D03*
X181600000Y22500000D03*
X188400000Y22500000D03*
X116900000Y45500000D03*
X110100000Y45500000D03*
X110100000Y41500000D03*
X116900000Y41500000D03*
X273900000Y83500000D03*
X267100000Y83500000D03*
X267100000Y79500000D03*
X273900000Y79500000D03*
X202650000Y64500000D03*
X195850000Y64500000D03*
X195850000Y60500000D03*
X202650000Y60500000D03*
X121900000Y7500000D03*
X115100000Y7500000D03*
X115100000Y3500000D03*
X121900000Y3500000D03*
X273900000Y45500000D03*
X267100000Y45500000D03*
X267100000Y41500000D03*
X273900000Y41500000D03*
X107650000Y64500000D03*
X100850000Y64500000D03*
X100850000Y60500000D03*
X107650000Y60500000D03*
X145650000Y64500000D03*
X138850000Y64500000D03*
X138850000Y60500000D03*
X145650000Y60500000D03*
X97900000Y45500000D03*
X91100000Y45500000D03*
X91100000Y41500000D03*
X97900000Y41500000D03*
X254900000Y83500000D03*
X248100000Y83500000D03*
X248100000Y79500000D03*
X254900000Y79500000D03*
X235900000Y7500000D03*
X229100000Y7500000D03*
X229100000Y3500000D03*
X235900000Y3500000D03*
X102900000Y7500000D03*
X96100000Y7500000D03*
X96100000Y3500000D03*
X102900000Y3500000D03*
X254900000Y45500000D03*
X248100000Y45500000D03*
X248100000Y41500000D03*
X254900000Y41500000D03*
X150400000Y26500000D03*
X143600000Y26500000D03*
X143600000Y22500000D03*
X150400000Y22500000D03*
X164650000Y64500000D03*
X157850000Y64500000D03*
X157850000Y60500000D03*
X164650000Y60500000D03*
X74400000Y26500000D03*
X67600000Y26500000D03*
X67600000Y22500000D03*
X74400000Y22500000D03*
X21900000Y45500000D03*
X15100000Y45500000D03*
X15100000Y41500000D03*
X21900000Y41500000D03*
X183650000Y64500000D03*
X176850000Y64500000D03*
X176850000Y60500000D03*
X183650000Y60500000D03*
X83900000Y7500000D03*
X77100000Y7500000D03*
X77100000Y3500000D03*
X83900000Y3500000D03*
X264400000Y64500000D03*
X257600000Y64500000D03*
X257600000Y60500000D03*
X264400000Y60500000D03*
X112400000Y26500000D03*
X105600000Y26500000D03*
X105600000Y22500000D03*
X112400000Y22500000D03*
X192900000Y45500000D03*
X186100000Y45500000D03*
X186100000Y41500000D03*
X192900000Y41500000D03*
X78900000Y45500000D03*
X72100000Y45500000D03*
X72100000Y41500000D03*
X78900000Y41500000D03*
X17400000Y26500000D03*
X10600000Y26500000D03*
X10600000Y22500000D03*
X17400000Y22500000D03*
X211900000Y45500000D03*
X205100000Y45500000D03*
X205100000Y41500000D03*
X211900000Y41500000D03*
X64900000Y7500000D03*
X58100000Y7500000D03*
X58100000Y3500000D03*
X64900000Y3500000D03*
X264400000Y26500000D03*
X257600000Y26500000D03*
X257600000Y22500000D03*
X264400000Y22500000D03*
X59900000Y45500000D03*
X53100000Y45500000D03*
X53100000Y41500000D03*
X59900000Y41500000D03*
X173900000Y45500000D03*
X167100000Y45500000D03*
X167100000Y41500000D03*
X173900000Y41500000D03*
X88650000Y64500000D03*
X81850000Y64500000D03*
X81850000Y60500000D03*
X88650000Y60500000D03*
X273900000Y7500000D03*
X267100000Y7500000D03*
X267100000Y3500000D03*
X273900000Y3500000D03*
X216900000Y7500000D03*
X210100000Y7500000D03*
X210100000Y3500000D03*
X216900000Y3500000D03*
X45900000Y7500000D03*
X39100000Y7500000D03*
X39100000Y3500000D03*
X45900000Y3500000D03*
X50650000Y64500000D03*
X43850000Y64500000D03*
X43850000Y60500000D03*
X50650000Y60500000D03*
X93400000Y26500000D03*
X86600000Y26500000D03*
X86600000Y22500000D03*
X93400000Y22500000D03*
X154900000Y45500000D03*
X148100000Y45500000D03*
X148100000Y41500000D03*
X154900000Y41500000D03*
X126650000Y64500000D03*
X119850000Y64500000D03*
X119850000Y60500000D03*
X126650000Y60500000D03*
X245400000Y26500000D03*
X238600000Y26500000D03*
X238600000Y22500000D03*
X245400000Y22500000D03*
X178900000Y7500000D03*
X172100000Y7500000D03*
X172100000Y3500000D03*
X178900000Y3500000D03*
X26900000Y7500000D03*
X20100000Y7500000D03*
X20100000Y3500000D03*
X26900000Y3500000D03*
X131400000Y26500000D03*
X124600000Y26500000D03*
X124600000Y22500000D03*
X131400000Y22500000D03*
X36400000Y26500000D03*
X29600000Y26500000D03*
X29600000Y22500000D03*
X36400000Y22500000D03*
X169400000Y26500000D03*
X162600000Y26500000D03*
X162600000Y22500000D03*
X169400000Y22500000D03*
X40900000Y45500000D03*
X34100000Y45500000D03*
X34100000Y41500000D03*
X40900000Y41500000D03*
X233900000Y45500000D03*
X227100000Y45500000D03*
X227100000Y41500000D03*
X233900000Y41500000D03*
X159900000Y7500000D03*
X153100000Y7500000D03*
X153100000Y3500000D03*
X159900000Y3500000D03*
X197900000Y7500000D03*
X191100000Y7500000D03*
X191100000Y3500000D03*
X197900000Y3500000D03*
X69650000Y64500000D03*
X62850000Y64500000D03*
X62850000Y60500000D03*
X69650000Y60500000D03*
X207400000Y26500000D03*
X200600000Y26500000D03*
X200600000Y22500000D03*
X207400000Y22500000D03*
X135900000Y45500000D03*
X129100000Y45500000D03*
X129100000Y41500000D03*
X135900000Y41500000D03*
X226400000Y26500000D03*
X219600000Y26500000D03*
X219600000Y22500000D03*
X226400000Y22500000D03*
M02*
