G04 #@! TF.GenerationSoftware,KiCad,Pcbnew,(5.1.10)-1*
G04 #@! TF.CreationDate,2021-10-26T21:43:45-04:00*
G04 #@! TF.ProjectId,CoCo3SwitchBoard,436f436f-3353-4776-9974-6368426f6172,1.0*
G04 #@! TF.SameCoordinates,Original*
G04 #@! TF.FileFunction,Copper,L1,Top*
G04 #@! TF.FilePolarity,Positive*
%FSLAX46Y46*%
G04 Gerber Fmt 4.6, Leading zero omitted, Abs format (unit mm)*
G04 Created by KiCad (PCBNEW (5.1.10)-1) date 2021-10-26 21:43:45*
%MOMM*%
%LPD*%
G01*
G04 APERTURE LIST*
G04 #@! TA.AperFunction,ComponentPad*
%ADD10O,1.000000X1.000000*%
G04 #@! TD*
G04 #@! TA.AperFunction,ComponentPad*
%ADD11R,1.000000X1.000000*%
G04 #@! TD*
G04 #@! TA.AperFunction,ViaPad*
%ADD12C,0.800000*%
G04 #@! TD*
G04 #@! TA.AperFunction,Conductor*
%ADD13C,0.250000*%
G04 #@! TD*
G04 APERTURE END LIST*
D10*
X144449800Y-2030000D03*
X144449800Y-3300000D03*
X143179800Y-2030000D03*
X143179800Y-3300000D03*
X141909800Y-2030000D03*
X141909800Y-3300000D03*
X140639800Y-2030000D03*
X140639800Y-3300000D03*
X139369800Y-2030000D03*
X139369800Y-3300000D03*
X138099800Y-2030000D03*
X138099800Y-3300000D03*
X136829800Y-2030000D03*
X136829800Y-3300000D03*
X135559800Y-2030000D03*
D11*
X135559800Y-3300000D03*
D12*
X227000000Y56000000D03*
X196000000Y35000000D03*
X173000000Y26000000D03*
X144000000Y12000000D03*
X121000000Y25000000D03*
X119000000Y34000000D03*
X106000000Y43000000D03*
X42900000Y58200000D03*
X44200000Y39800000D03*
X123800000Y10300000D03*
X108000000Y10000000D03*
X82000000Y27000000D03*
X94000000Y44000000D03*
X84700000Y39300000D03*
X277700000Y45500000D03*
X258000000Y6000000D03*
X240000000Y6000000D03*
X240000000Y6000000D03*
X120000000Y28000000D03*
X87000000Y10000000D03*
X73000000Y25000000D03*
X111200004Y13400000D03*
X147800000Y6300000D03*
X117000000Y33000000D03*
X77000000Y43000000D03*
X80000000Y27000000D03*
X76000000Y38000000D03*
X155999982Y55000000D03*
X140000000Y58000004D03*
X132000000Y58000024D03*
X62600000Y50000000D03*
X82500000Y46500000D03*
X87400000Y13200000D03*
X102900000Y31500000D03*
X114000004Y29900000D03*
X169700000Y59699998D03*
X153200000Y400000D03*
X153100000Y10600000D03*
X200000000Y41000000D03*
X63000000Y27000000D03*
X67000000Y40000000D03*
X152000000Y57000000D03*
X158000000Y46000000D03*
X81500000Y55999990D03*
X66999992Y46000000D03*
X68400000Y11900000D03*
X165500001Y53000001D03*
X270499998Y28600000D03*
X150100000Y29700000D03*
X150100000Y35600000D03*
X150100000Y50300000D03*
X265000000Y10000000D03*
X223000000Y10000000D03*
X223000000Y14250000D03*
X40300000Y62900000D03*
X37900000Y14900000D03*
X154900000Y500000D03*
X154900000Y10400000D03*
X156300000Y13500000D03*
X156100000Y16600000D03*
X181000000Y9000000D03*
X174000000Y25000000D03*
X241000000Y25000000D03*
X154000000Y33000000D03*
X132000000Y29000000D03*
X44000000Y31000000D03*
X124000000Y28000000D03*
X139700000Y25300000D03*
X217000000Y33000000D03*
X193000000Y33000000D03*
X153000000Y34000000D03*
X68000000Y62000000D03*
X127440000Y48000000D03*
X156300000Y600000D03*
X156300000Y9200000D03*
X34500000Y56250000D03*
X242750000Y79500000D03*
X232200000Y30275000D03*
X212000000Y29000000D03*
X199250000Y49500000D03*
X214750000Y58000000D03*
X206600000Y17200000D03*
X149325010Y2788442D03*
X149325010Y8809926D03*
X118600000Y-100000D03*
X120200000Y16100000D03*
X160800000Y16300000D03*
X161500000Y13500000D03*
X136000000Y25000000D03*
X142000000Y79000000D03*
X248100006Y39400000D03*
X125900000Y900000D03*
X125900000Y24300000D03*
X48000000Y41000000D03*
X86000000Y57000000D03*
X100000000Y57000000D03*
X70750000Y52000000D03*
X129000000Y18000000D03*
X163000000Y38000000D03*
X160000000Y29000000D03*
X158000000Y22000000D03*
X160000000Y46000000D03*
X158499998Y33500000D03*
X128000000Y40000000D03*
X110000000Y39000000D03*
X123400000Y36900000D03*
X71000000Y20600000D03*
D13*
X227000000Y56000000D02*
X220000000Y49000000D01*
X220000000Y49000000D02*
X203000000Y49000000D01*
X203000000Y49000000D02*
X196000000Y42000000D01*
X196000000Y42000000D02*
X196000000Y35000000D01*
X173000000Y26000000D02*
X172000000Y25000000D01*
X172000000Y25000000D02*
X172000000Y18000000D01*
X172000000Y18000000D02*
X166000000Y12000000D01*
X106000000Y41926998D02*
X106000000Y43000000D01*
X113926998Y34000000D02*
X106000000Y41926998D01*
X119000000Y34000000D02*
X113926998Y34000000D01*
X42900000Y41100000D02*
X42900000Y58200000D01*
X44200000Y39800000D02*
X42900000Y41100000D01*
X121000000Y25000000D02*
X123800000Y22200000D01*
X123800000Y22200000D02*
X123800000Y10300000D01*
X148600000Y12000000D02*
X144000000Y12000000D01*
X166000000Y12000000D02*
X148600000Y12000000D01*
X148600000Y-1000000D02*
X148600000Y12000000D01*
X147570000Y-2030000D02*
X148600000Y-1000000D01*
X144449800Y-2030000D02*
X147570000Y-2030000D01*
X108000000Y10000000D02*
X101000000Y17000000D01*
X101000000Y17000000D02*
X85000000Y17000000D01*
X82000000Y20000000D02*
X82000000Y27000000D01*
X85000000Y17000000D02*
X82000000Y20000000D01*
X94000000Y44000000D02*
X89300000Y39300000D01*
X89300000Y39300000D02*
X84700000Y39300000D01*
X277700000Y21626998D02*
X277700000Y45500000D01*
X252773002Y-3300000D02*
X277700000Y21626998D01*
X144449800Y-3300000D02*
X252773002Y-3300000D01*
X258000000Y6000000D02*
X240000000Y6000000D01*
X87000000Y10000000D02*
X74000000Y10000000D01*
X74000000Y10000000D02*
X74000000Y24000000D01*
X74000000Y24000000D02*
X73000000Y25000000D01*
X120000000Y28000000D02*
X120000000Y20234315D01*
X120000000Y20234315D02*
X113165685Y13400000D01*
X113165685Y13400000D02*
X111200004Y13400000D01*
X144004801Y-1204999D02*
X147495001Y-1204999D01*
X143179800Y-2030000D02*
X144004801Y-1204999D01*
X147800000Y-900000D02*
X147800000Y6300000D01*
X147495001Y-1204999D02*
X147800000Y-900000D01*
X76000000Y42000000D02*
X77000000Y43000000D01*
X76000000Y38000000D02*
X76000000Y42000000D01*
X140000000Y58000004D02*
X132000020Y58000004D01*
X132000020Y58000004D02*
X132000000Y58000024D01*
X62600000Y50000000D02*
X67000000Y50000000D01*
X67000000Y50000000D02*
X70700000Y53700000D01*
X75300000Y53700000D02*
X82500000Y46500000D01*
X70700000Y53700000D02*
X75300000Y53700000D01*
X80000000Y20600000D02*
X87400000Y13200000D01*
X80000000Y27000000D02*
X80000000Y20600000D01*
X88500000Y31500000D02*
X102900000Y31500000D01*
X77000000Y43000000D02*
X88500000Y31500000D01*
X117000000Y33000000D02*
X114000004Y30000004D01*
X114000004Y30000004D02*
X114000004Y29900000D01*
X155999982Y55000000D02*
X165000002Y55000000D01*
X165000002Y55000000D02*
X169700000Y59699998D01*
X153200000Y10500000D02*
X153100000Y10600000D01*
X153200000Y400000D02*
X153200000Y10500000D01*
X152000000Y57000000D02*
X150999990Y55999990D01*
X150999990Y55999990D02*
X81500000Y55999990D01*
X67000000Y45999992D02*
X66999992Y46000000D01*
X67000000Y40000000D02*
X67000000Y45999992D01*
X68400000Y21600000D02*
X68400000Y11900000D01*
X63000000Y27000000D02*
X68400000Y21600000D01*
X158000000Y46000000D02*
X165000001Y53000001D01*
X165000001Y53000001D02*
X165500001Y53000001D01*
X200000000Y41000000D02*
X258099998Y41000000D01*
X258099998Y41000000D02*
X270499998Y28600000D01*
X141909800Y21509800D02*
X150100000Y29700000D01*
X141909800Y-2030000D02*
X141909800Y21509800D01*
X150100000Y35600000D02*
X150100000Y50300000D01*
X265000000Y10000000D02*
X263000000Y8000000D01*
X263000000Y8000000D02*
X242000000Y8000000D01*
X242000000Y8000000D02*
X240000000Y10000000D01*
X240000000Y10000000D02*
X223000000Y10000000D01*
X223000000Y14250000D02*
X223000000Y10000000D01*
X40300000Y62900000D02*
X40300000Y17300000D01*
X40300000Y17300000D02*
X37900000Y14900000D01*
X154900000Y500000D02*
X154900000Y10400000D01*
X156300000Y16400000D02*
X156100000Y16600000D01*
X156300000Y13500000D02*
X156300000Y16400000D01*
X174000000Y16000000D02*
X174000000Y25000000D01*
X181000000Y9000000D02*
X174000000Y16000000D01*
X154000000Y33000000D02*
X138000000Y33000000D01*
X136000000Y33000000D02*
X132000000Y29000000D01*
X138000000Y33000000D02*
X136000000Y33000000D01*
X123274999Y28725001D02*
X124000000Y28000000D01*
X46274999Y28725001D02*
X123274999Y28725001D01*
X44000000Y31000000D02*
X46274999Y28725001D01*
X231250000Y15250000D02*
X187250000Y15250000D01*
X187250000Y15250000D02*
X181000000Y9000000D01*
X241000000Y25000000D02*
X231250000Y15250000D01*
X140639800Y24360200D02*
X139700000Y25300000D01*
X140639800Y-2030000D02*
X140639800Y24360200D01*
X193000000Y33000000D02*
X217000000Y33000000D01*
X68000000Y62000000D02*
X82000000Y48000000D01*
X153000000Y34000000D02*
X140874315Y34000000D01*
X127440000Y47434315D02*
X127440000Y48000000D01*
X140874315Y34000000D02*
X127440000Y47434315D01*
X83900000Y48000000D02*
X127440000Y48000000D01*
X82000000Y48000000D02*
X83900000Y48000000D01*
X156300000Y600000D02*
X156300000Y9200000D01*
X34500000Y56250000D02*
X37250000Y59000000D01*
X37250000Y59000000D02*
X37250000Y86750000D01*
X37250000Y86750000D02*
X41000000Y90500000D01*
X231750000Y90500000D02*
X242750000Y79500000D01*
X41000000Y90500000D02*
X231750000Y90500000D01*
X232049999Y30425001D02*
X232200000Y30275000D01*
X143751999Y30425001D02*
X232049999Y30425001D01*
X138869801Y25542803D02*
X143751999Y30425001D01*
X138869801Y-1530001D02*
X138869801Y25542803D01*
X139369800Y-2030000D02*
X138869801Y-1530001D01*
X206250000Y49500000D02*
X214750000Y58000000D01*
X199250000Y49500000D02*
X206250000Y49500000D01*
X212000000Y22600000D02*
X206600000Y17200000D01*
X212000000Y29000000D02*
X212000000Y22600000D01*
X149325010Y8809926D02*
X149325010Y2788442D01*
X120200000Y1500000D02*
X120200000Y16100000D01*
X118600000Y-100000D02*
X120200000Y1500000D01*
X161500000Y15600000D02*
X161500000Y13500000D01*
X160800000Y16300000D02*
X161500000Y15600000D01*
X142000000Y31000000D02*
X136000000Y25000000D01*
X159000000Y31000000D02*
X142000000Y31000000D01*
X153000000Y37000000D02*
X159000000Y31000000D01*
X153000000Y61000000D02*
X153000000Y37000000D01*
X142000000Y72000000D02*
X153000000Y61000000D01*
X142000000Y79000000D02*
X142000000Y72000000D01*
X159000000Y31000000D02*
X239700006Y31000000D01*
X239700006Y31000000D02*
X247700007Y39000001D01*
X247700007Y39000001D02*
X248100006Y39400000D01*
X125900000Y900000D02*
X125900000Y24300000D01*
X86000000Y57000000D02*
X100000000Y57000000D01*
X59750000Y41000000D02*
X70750000Y52000000D01*
X48000000Y41000000D02*
X59750000Y41000000D01*
X129000000Y5800000D02*
X129000000Y18000000D01*
X136829800Y-2029800D02*
X129000000Y5800000D01*
X136829800Y-2030000D02*
X136829800Y-2029800D01*
X163000000Y38000000D02*
X162000000Y37000000D01*
X158000000Y27000000D02*
X158000000Y22000000D01*
X160000000Y29000000D02*
X158000000Y27000000D01*
X162000000Y44000000D02*
X160000000Y46000000D01*
X162000000Y37000000D02*
X158899997Y33899999D01*
X158899997Y33899999D02*
X158499998Y33500000D01*
X162000000Y39000000D02*
X163000000Y38000000D01*
X162000000Y44000000D02*
X162000000Y39000000D01*
X135559800Y-2030000D02*
X128000000Y5529800D01*
X128000000Y5529800D02*
X128000000Y40000000D01*
X121300000Y39000000D02*
X123400000Y36900000D01*
X118800000Y39000000D02*
X121300000Y39000000D01*
X110000000Y39000000D02*
X118800000Y39000000D01*
X71000000Y12363590D02*
X71000000Y20600000D01*
X86663590Y-3300000D02*
X71000000Y12363590D01*
X135559800Y-3300000D02*
X86663590Y-3300000D01*
M02*
