G04 #@! TF.GenerationSoftware,KiCad,Pcbnew,(5.1.10)-1*
G04 #@! TF.CreationDate,2021-10-26T21:43:45-04:00*
G04 #@! TF.ProjectId,CoCo3SwitchBoard,436f436f-3353-4776-9974-6368426f6172,1.0*
G04 #@! TF.SameCoordinates,Original*
G04 #@! TF.FileFunction,Profile,NP*
%FSLAX46Y46*%
G04 Gerber Fmt 4.6, Leading zero omitted, Abs format (unit mm)*
G04 Created by KiCad (PCBNEW (5.1.10)-1) date 2021-10-26 21:43:45*
%MOMM*%
%LPD*%
G01*
G04 APERTURE LIST*
G04 #@! TA.AperFunction,Profile*
%ADD10C,0.050000*%
G04 #@! TD*
G04 #@! TA.AperFunction,Profile*
%ADD11C,0.150000*%
G04 #@! TD*
G04 APERTURE END LIST*
D10*
X144250000Y50000000D02*
G75*
G03*
X144250000Y50000000I-4250000J0D01*
G01*
X-5000000Y103000000D02*
G75*
G02*
X-1000000Y107000000I4000000J0D01*
G01*
X281000000Y107000000D02*
G75*
G02*
X285000000Y103000000I0J-4000000D01*
G01*
X-1000000Y107000000D02*
X281000000Y107000000D01*
X-1000000Y-7000000D02*
G75*
G02*
X-5000000Y-3000000I0J4000000D01*
G01*
X285000000Y-3000000D02*
G75*
G02*
X281000000Y-7000000I-4000000J0D01*
G01*
X-1000000Y-7000000D02*
X281000000Y-7000000D01*
X281000000Y-7000000D02*
X281000000Y-7000000D01*
D11*
X253500000Y12000000D02*
G75*
G03*
X253500000Y12000000I-1500000J0D01*
G01*
X63150000Y39000000D02*
G75*
G03*
X63150000Y39000000I-1650000J0D01*
G01*
X177150000Y39000000D02*
G75*
G03*
X177150000Y39000000I-1650000J0D01*
G01*
X124900000Y58000000D02*
G75*
G03*
X124900000Y58000000I-1650000J0D01*
G01*
X222400000Y58000000D02*
G75*
G03*
X222400000Y58000000I-1650000J0D01*
G01*
X169650000Y100000000D02*
G75*
G03*
X169650000Y100000000I-1650000J0D01*
G01*
X225650000Y100000000D02*
G75*
G03*
X225650000Y100000000I-1650000J0D01*
G01*
X281650000Y100000000D02*
G75*
G03*
X281650000Y100000000I-1650000J0D01*
G01*
X281650000Y58000000D02*
G75*
G03*
X281650000Y58000000I-1650000J0D01*
G01*
X281650000Y0D02*
G75*
G03*
X281650000Y0I-1650000J0D01*
G01*
X225650000Y0D02*
G75*
G03*
X225650000Y0I-1650000J0D01*
G01*
X169650000Y0D02*
G75*
G03*
X169650000Y0I-1650000J0D01*
G01*
X113650000Y0D02*
G75*
G03*
X113650000Y0I-1650000J0D01*
G01*
X57650000Y0D02*
G75*
G03*
X57650000Y0I-1650000J0D01*
G01*
X113650000Y100000000D02*
G75*
G03*
X113650000Y100000000I-1650000J0D01*
G01*
X57650000Y100000000D02*
G75*
G03*
X57650000Y100000000I-1650000J0D01*
G01*
X1650000Y100000000D02*
G75*
G03*
X1650000Y100000000I-1650000J0D01*
G01*
X1650000Y58000000D02*
G75*
G03*
X1650000Y58000000I-1650000J0D01*
G01*
X1650000Y0D02*
G75*
G03*
X1650000Y0I-1650000J0D01*
G01*
X1500000Y12000000D02*
G75*
G03*
X1500000Y12000000I-1500000J0D01*
G01*
D10*
X285000000Y-3000000D02*
X285000000Y103000000D01*
X-5000000Y103000000D02*
X-5000000Y-3000000D01*
M02*
