M48
INCH,TZ
T1C0.0157
T2C0.0256
%
G90
G05
T1
X13583Y22146
X14921Y5866
X15866Y24764
X16890Y22913
X17323Y12205
X17402Y15669
X18898Y16142
X24646Y19685
X24803Y10630
X26378Y18110
X26378Y15748
X26772Y24409
X26929Y4685
X27854Y20472
X27953Y8110
X28740Y9843
X29921Y14961
X30315Y16929
X31496Y10630
X32087Y22047
X32283Y10630
X32480Y18307
X33346Y15472
X33858Y22441
X34252Y3937
X34409Y5197
X37008Y17323
X39370Y22441
X40512Y12402
X41732Y16929
X42520Y3937
X43307Y15354
X43780Y5276
X44882Y11772
X46063Y12992
X46693Y-39
X46850Y13386
X47244Y11024
X47323Y6339
X47638Y9843
X48583Y14528
X48740Y4055
X48819Y11024
X49567Y9567
X49567Y354
X50173Y18898
X50394Y15748
X50787Y7087
X51969Y22835
X51969Y11417
X53543Y9843
X55000Y9961
X55118Y22835
X55906Y31102
X56693Y4724
X58189Y2480
X58789Y3468
X58789Y1098
X59094Y19803
X59094Y14016
X59094Y11693
X59843Y22441
X60236Y13386
X60276Y4173
X60315Y157
X60630Y12992
X60984Y4094
X60984Y197
X61417Y21654
X61457Y6535
X61535Y5315
X61535Y3622
X61535Y236
X62205Y18110
X62205Y8661
X62402Y13189
X62992Y18110
X62992Y11417
X63307Y6417
X63583Y5315
X64173Y14961
X65157Y20866
X66811Y23504
X68110Y10236
X68504Y9843
X71260Y3543
X75984Y12992
X77165Y13780
X78445Y19488
X78740Y16142
X81339Y6772
X83465Y11417
X84547Y22835
X85433Y12992
X87795Y5610
X87795Y3937
X89370Y22047
X91417Y11919
X94488Y2362
X94488Y2362
X94882Y9843
X95571Y31299
X97677Y15512
X101575Y2362
X104331Y3937
X106496Y11260
X109331Y17913
T2
X53370Y-799
X53370Y-1299
X53870Y-799
X53870Y-1299
X54370Y-799
X54370Y-1299
X54870Y-799
X54870Y-1299
X55370Y-799
X55370Y-1299
X55870Y-799
X55870Y-1299
X56370Y-799
X56370Y-1299
X56870Y-799
X56870Y-1299
T0
M30
